<svg width="505" height="378" viewBox="0 0 505 378" fill="none" xmlns="http://www.w3.org/2000/svg">
<g clip-path="url(#clip0_1975_23952)">
<path d="M505 332.187H0V332.44H505V332.187Z" fill="#EBEBEB"/>
<path d="M454.399 348.51H432.502V348.763H454.399V348.51Z" fill="#EBEBEB"/>
<path d="M348.117 343.244H313.666V343.498H348.117V343.244Z" fill="#EBEBEB"/>
<path d="M445.531 339.095H400.556V339.349H445.531V339.095Z" fill="#EBEBEB"/>
<path d="M174.75 344.208H163.499V344.462H174.75V344.208Z" fill="#EBEBEB"/>
<path d="M154.5 344.208H115.726V344.462H154.5V344.208Z" fill="#EBEBEB"/>
<path d="M94.9502 339.927H66.9731V340.181H94.9502V339.927Z" fill="#EBEBEB"/>
<path d="M239.37 286.942H44.349C42.8213 286.939 41.357 286.327 40.2776 285.241C39.1983 284.155 38.592 282.684 38.592 281.149V5.7926C38.6053 4.26687 39.2174 2.80802 40.2953 1.73293C41.3733 0.657835 42.83 0.0533339 44.349 0.0507202H239.37C240.899 0.0507202 242.366 0.66101 243.448 1.74733C244.529 2.83366 245.137 4.30703 245.137 5.84332V281.149C245.137 282.685 244.529 284.159 243.448 285.245C242.366 286.331 240.899 286.942 239.37 286.942ZM44.349 0.253614C42.8882 0.256301 41.4882 0.841055 40.4562 1.87952C39.4242 2.91799 38.8445 4.32532 38.8445 5.7926V281.149C38.8445 282.616 39.4242 284.024 40.4562 285.062C41.4882 286.101 42.8882 286.685 44.349 286.688H239.37C240.832 286.685 242.233 286.101 243.266 285.063C244.3 284.025 244.882 282.617 244.885 281.149V5.7926C244.882 4.32439 244.3 2.91709 243.266 1.87891C242.233 0.840726 240.832 0.256296 239.37 0.253614H44.349Z" fill="#EBEBEB"/>
<path d="M457.843 286.942H262.812C261.283 286.939 259.818 286.328 258.737 285.242C257.656 284.156 257.048 282.684 257.045 281.149V5.7926C257.061 4.26594 257.675 2.8071 258.755 1.73229C259.834 0.657481 261.292 0.0533054 262.812 0.0507202H457.843C459.36 0.056 460.815 0.661681 461.89 1.73649C462.966 2.81129 463.577 4.26862 463.59 5.7926V281.149C463.59 282.682 462.985 284.152 461.908 285.238C460.831 286.324 459.369 286.936 457.843 286.942ZM262.812 0.253614C261.35 0.256296 259.949 0.840726 258.916 1.87891C257.882 2.91709 257.3 4.32439 257.298 5.7926V281.149C257.3 282.617 257.882 284.025 258.916 285.063C259.949 286.101 261.35 286.685 262.812 286.688H457.843C459.305 286.685 460.706 286.101 461.74 285.063C462.773 284.025 463.355 282.617 463.358 281.149V5.7926C463.355 4.32439 462.773 2.91709 461.74 1.87891C460.706 0.840726 459.305 0.256296 457.843 0.253614H262.812Z" fill="#EBEBEB"/>
<path d="M218.231 148.041L218.685 134.711L210.545 132.033C210.195 127.515 209.465 123.036 208.363 118.642L215.271 113.569L210.585 101.051L202.04 101.741C200.014 97.7074 197.649 93.8553 194.97 90.2265L199.394 82.8108L190.304 73.0618L182.669 76.9878C179.235 74.0398 175.567 71.3798 171.7 69.0343L172.932 60.5128L160.812 54.9941L155.257 61.5273C150.972 60.1504 146.58 59.1324 142.127 58.4839L140.107 50.1349L126.795 49.6783L124.169 57.8651C119.676 58.2199 115.22 58.9494 110.847 60.0462L105.717 53.1478L93.2533 57.8245L93.9401 66.4069C89.9266 68.4727 86.0921 70.8718 82.4766 73.5792L75.043 69.0343L65.2965 78.1645L69.2052 85.8745C66.2695 89.3059 63.6337 92.9851 61.3272 96.8713L52.8533 95.593L47.3185 107.767L53.8633 113.336C52.4827 117.638 51.469 122.05 50.8333 126.524L42.42 128.644L41.9655 141.974L50.1465 144.653C50.4849 149.167 51.2114 153.644 52.318 158.033L45.4096 163.106L50.1061 175.634L58.6507 174.945C60.6714 178.981 63.0369 182.833 65.7207 186.459L61.2868 193.874L70.3768 203.623L78.0124 199.697C81.4369 202.645 85.0989 205.302 88.9608 207.641L87.6882 216.152L99.8082 221.681L105.393 215.148C109.679 216.537 114.07 217.572 118.523 218.242L120.543 226.591L133.855 227.048L136.481 218.861C140.977 218.502 145.436 217.772 149.813 216.68L154.863 223.578L167.327 218.901L166.68 210.319C170.686 208.24 174.52 205.842 178.144 203.147L185.486 207.59L195.233 198.46L191.324 190.75C194.261 187.319 196.897 183.64 199.202 179.753L207.676 181.031L213.211 168.858L206.666 163.278C208.07 158.98 209.101 154.567 209.747 150.09L218.231 148.041ZM128.553 191.227C118.138 190.873 108.061 187.425 99.5969 181.319C91.133 175.212 84.6624 166.721 81.0036 156.92C77.3448 147.12 76.6621 136.449 79.042 126.258C81.4218 116.068 86.7572 106.815 94.3734 99.6706C101.989 92.5262 111.544 87.811 121.829 86.1216C132.113 84.4322 142.665 85.8444 152.151 90.1796C161.636 94.5148 169.628 101.578 175.116 110.476C180.604 119.375 183.341 129.708 182.982 140.169C182.502 154.188 176.499 167.442 166.292 177.017C156.086 186.592 142.511 191.703 128.553 191.227Z" fill="#EBEBEB"/>
<path d="M445.41 103.952L448.753 100.818L447.43 98.1698C448.439 96.9834 449.348 95.7143 450.147 94.3757L453.076 94.812L454.965 90.6121L452.722 88.6947C453.205 87.2098 453.56 85.6859 453.783 84.1398L456.661 83.4195L456.803 78.8138L453.995 77.9008C453.872 76.341 453.622 74.7938 453.248 73.2749L455.621 71.4995L454.005 67.1881L451.066 67.4214C450.357 66.0309 449.536 64.7009 448.612 63.4447L450.137 60.9085L446.996 57.5405L444.37 58.8897C443.187 57.8783 441.923 56.9656 440.592 56.1608L441.017 53.2189L436.845 51.3015L434.926 53.5638C433.445 53.1005 431.928 52.7612 430.391 52.5493L429.674 49.6683L425.089 49.4958L424.17 52.3363C422.623 52.4551 421.089 52.7062 419.584 53.087L417.827 50.703L413.524 52.316L413.767 55.2782C412.378 55.9832 411.054 56.808 409.808 57.7434L407.262 56.2116L403.909 59.3462L405.212 61.9331C404.195 63.1161 403.283 64.3856 402.485 65.7272L399.566 65.291L397.667 69.4909L399.92 71.4184C399.453 72.9011 399.115 74.4218 398.91 75.9632L396.021 76.6835L395.88 81.2891L398.698 82.2022C398.813 83.7623 399.059 85.3099 399.435 86.8281L397.051 88.5933L398.667 92.9048L401.616 92.6816C402.325 94.0721 403.146 95.4021 404.071 96.6583L402.546 99.1945L405.687 102.562L408.313 101.213C409.493 102.228 410.757 103.141 412.09 103.942L411.656 106.874L415.837 108.791L417.756 106.539C419.239 106.998 420.755 107.337 422.291 107.554L423.008 110.435L427.594 110.607L428.513 107.767C430.06 107.649 431.594 107.397 433.098 107.016L434.856 109.4L439.158 107.787L438.926 104.825C440.31 104.119 441.632 103.294 442.875 102.36L445.41 103.952ZM421.554 84.5456C420.672 83.5963 420.09 82.4056 419.882 81.1241C419.674 79.8427 419.849 78.528 420.385 77.3464C420.92 76.1648 421.793 75.1694 422.892 74.4861C423.992 73.8028 425.268 73.4624 426.56 73.5078C427.852 73.5532 429.101 73.9825 430.15 74.7413C431.199 75.5001 432.001 76.5544 432.453 77.7708C432.905 78.9871 432.988 80.3109 432.691 81.5746C432.395 82.8383 431.731 83.9852 430.785 84.8702C430.157 85.4647 429.419 85.9283 428.611 86.2341C427.804 86.5398 426.944 86.6817 426.082 86.6515C425.22 86.6213 424.372 86.4197 423.588 86.0582C422.803 85.6967 422.098 85.1826 421.513 84.5456H421.554Z" fill="#EBEBEB"/>
<path d="M323.2 240.824L312.757 233.571C311.733 229.794 310.325 226.132 308.555 222.645L311.232 212.094L296.082 195.802L285.416 197.76C282.07 195.746 278.526 194.084 274.841 192.799L268.357 181.833L246.137 181.072L238.926 191.562C235.17 192.589 231.528 194 228.058 195.772L217.554 193.083L201.333 208.3L203.283 218.993C201.28 222.36 199.628 225.926 198.354 229.634L187.436 236.147L186.678 258.466L197.132 265.709C198.138 269.506 199.544 273.186 201.323 276.685L198.617 287.144L213.767 303.437L224.361 301.489C227.733 303.505 231.3 305.17 235.007 306.46L241.481 317.406L263.701 318.177L270.902 307.687C274.692 306.659 278.367 305.245 281.871 303.467L292.314 306.145L308.545 290.928L306.596 280.236C308.604 276.868 310.256 273.298 311.524 269.584L322.443 263.071L323.2 240.824ZM254.066 274.697C249.133 274.528 244.361 272.893 240.353 270C236.345 267.106 233.281 263.084 231.549 258.442C229.816 253.8 229.493 248.746 230.62 243.92C231.748 239.093 234.274 234.711 237.881 231.327C241.487 227.942 246.012 225.708 250.883 224.907C255.754 224.105 260.752 224.772 265.245 226.823C269.738 228.875 273.525 232.218 276.127 236.431C278.728 240.644 280.028 245.537 279.861 250.492C279.629 257.137 276.782 263.418 271.943 267.956C267.105 272.494 260.672 274.919 254.055 274.697H254.066Z" fill="#EBEBEB"/>
<path d="M346.985 177.582H346.915L329.422 176.984C329.067 176.977 328.72 176.881 328.413 176.703C328.106 176.526 327.848 176.273 327.664 175.969L322.947 168.006C320.405 167.072 317.946 165.925 315.595 164.577L308.05 165.885C307.698 165.95 307.336 165.924 306.997 165.811C306.658 165.697 306.353 165.5 306.111 165.236L294.162 152.393C293.912 152.127 293.733 151.8 293.645 151.445C293.557 151.09 293.561 150.717 293.657 150.364L295.566 142.847C294.384 140.411 293.417 137.875 292.678 135.269L285.072 129.994C284.778 129.79 284.539 129.515 284.378 129.194C284.217 128.873 284.14 128.516 284.153 128.157L284.749 110.587C284.761 110.232 284.859 109.886 285.035 109.578C285.212 109.27 285.46 109.011 285.759 108.822L293.708 104.084C294.625 101.537 295.764 99.0754 297.112 96.7293L295.718 89.0903C295.653 88.7357 295.678 88.3703 295.791 88.028C295.904 87.6857 296.101 87.3776 296.364 87.1324L309.151 75.1414C309.415 74.8886 309.74 74.7083 310.094 74.6177C310.447 74.5271 310.818 74.5293 311.171 74.624L318.685 76.5515C321.104 75.363 323.622 74.3888 326.21 73.64L331.462 66.0011C331.657 65.6977 331.929 65.4521 332.251 65.2898C332.572 65.1275 332.931 65.0544 333.29 65.0779L350.773 65.6866C351.128 65.6942 351.476 65.791 351.785 65.9682C352.094 66.1453 352.353 66.3973 352.54 66.7011L357.257 74.6748C359.781 75.6055 362.221 76.7527 364.549 78.1037L372.185 76.6936C372.536 76.628 372.899 76.6531 373.238 76.7667C373.577 76.8803 373.882 77.0785 374.124 77.3428L386.072 90.186C386.322 90.453 386.499 90.7796 386.587 91.1346C386.675 91.4896 386.672 91.8615 386.577 92.2149L384.658 99.7524C385.842 102.183 386.815 104.712 387.567 107.31L395.162 112.585C395.457 112.789 395.696 113.064 395.857 113.385C396.018 113.706 396.095 114.062 396.082 114.422L395.486 131.982C395.474 132.338 395.375 132.686 395.199 132.995C395.023 133.305 394.775 133.566 394.476 133.757L386.527 138.495C385.604 141.037 384.465 143.494 383.123 145.84L384.517 153.489C384.582 153.842 384.557 154.206 384.444 154.546C384.331 154.887 384.134 155.193 383.871 155.436L371.003 167.438C370.738 167.689 370.413 167.868 370.059 167.957C369.706 168.046 369.335 168.042 368.983 167.945L361.509 166.027C359.074 167.21 356.543 168.184 353.944 168.939L348.743 176.568C348.555 176.869 348.297 177.119 347.991 177.296C347.684 177.473 347.339 177.571 346.985 177.582ZM330.735 172.743L345.885 173.261L350.935 165.967C351.214 165.541 351.643 165.237 352.136 165.114C354.979 164.334 357.736 163.27 360.368 161.939C360.827 161.717 361.348 161.663 361.843 161.787L368.913 163.603L380.023 153.205L378.75 145.87C378.652 145.357 378.745 144.826 379.013 144.379C380.513 141.867 381.748 139.205 382.699 136.435C382.86 135.933 383.197 135.508 383.648 135.238L391.254 130.714L391.769 115.497L384.497 110.425C384.114 110.162 383.827 109.781 383.679 109.339C383.679 109.288 383.679 109.227 383.679 109.167C382.901 106.363 381.845 103.644 380.528 101.051C380.294 100.587 380.236 100.053 380.366 99.5495L382.184 92.367L371.831 81.2079L364.57 82.547C364.062 82.6394 363.539 82.5458 363.095 82.2833C360.589 80.7735 357.936 79.526 355.177 78.5602C355.018 78.5092 354.866 78.4412 354.722 78.3573C354.431 78.1748 354.188 77.9242 354.015 77.6269L349.46 69.9676L334.31 69.4401L329.26 76.7544C328.959 77.1832 328.514 77.4892 328.008 77.6167C325.195 78.3888 322.467 79.4459 319.867 80.7717C319.409 81.0066 318.88 81.0644 318.382 80.934L311.231 79.108L300.121 89.5062L301.455 96.78C301.534 97.2388 301.467 97.711 301.263 98.1292L301.162 98.3017C299.66 100.823 298.424 103.496 297.475 106.275C297.308 106.752 296.979 107.154 296.546 107.412L288.941 111.946L288.426 127.163L295.708 132.236C296.123 132.521 296.424 132.945 296.556 133.433C297.313 136.281 298.366 139.042 299.697 141.67C299.769 141.82 299.827 141.976 299.869 142.137C299.945 142.471 299.945 142.817 299.869 143.151L298.051 150.252L308.403 161.412L315.615 160.083C316.119 159.99 316.639 160.084 317.079 160.346C319.604 161.853 322.274 163.101 325.048 164.069C325.549 164.219 325.972 164.557 326.23 165.013L330.735 172.743ZM340.097 153.499C339.724 153.499 339.35 153.499 338.976 153.499C330.58 153.35 322.582 149.877 316.723 143.835C310.864 137.792 307.619 129.67 307.693 121.236C307.767 112.802 311.154 104.738 317.118 98.8007C323.082 92.8629 331.139 89.5315 339.537 89.5315C347.934 89.5315 355.992 92.8629 361.955 98.8007C367.919 104.738 371.307 112.802 371.381 121.236C371.455 129.67 368.209 137.792 362.35 143.835C356.491 149.877 348.493 153.35 340.097 153.499ZM340.097 93.554C332.76 93.6811 325.77 96.7141 320.649 101.993C315.527 107.272 312.689 114.369 312.753 121.739C312.816 129.11 315.775 136.157 320.986 141.346C326.198 146.535 333.239 149.447 340.577 149.447C347.915 149.447 354.956 146.535 360.168 141.346C365.379 136.157 368.338 129.11 368.401 121.739C368.465 114.369 365.627 107.272 360.505 101.993C355.384 96.7141 348.394 93.6811 341.057 93.554H340.097Z" fill="#EBEBEB"/>
<path d="M387.274 51.0986L380.023 49.1407L378.083 41.867L380.921 39.0164L383.911 45.2452L390.112 48.248L387.274 51.0986Z" fill="#E0E0E0"/>
<path d="M387.719 46.2292C388.033 45.9141 388.281 45.5401 388.451 45.1284C388.621 44.7168 388.708 44.2755 388.708 43.83C388.708 43.3844 388.621 42.9432 388.451 42.5315C388.281 42.1199 388.033 41.7458 387.719 41.4308C387.405 41.1157 387.033 40.8658 386.623 40.6953C386.213 40.5247 385.774 40.437 385.33 40.437C384.887 40.437 384.447 40.5247 384.037 40.6953C383.628 40.8658 383.255 41.1157 382.942 41.4308L386.547 35.9932L391.375 38.4482L392.436 43.5206L387.719 46.2292Z" fill="#E0E0E0"/>
<path d="M380.346 39.6149L385.658 34.2788L392.89 36.2164L394.839 43.4902L389.527 48.8262L382.285 46.8683L380.346 39.6149ZM389.991 43.9771C390.464 43.5017 390.786 42.8961 390.916 42.237C391.047 41.5778 390.979 40.8947 390.723 40.2739C390.467 39.6531 390.033 39.1226 389.477 38.7493C388.921 38.376 388.267 38.1768 387.598 38.1768C386.928 38.1768 386.274 38.376 385.718 38.7493C385.162 39.1226 384.728 39.6531 384.472 40.2739C384.216 40.8947 384.149 41.5778 384.279 42.237C384.409 42.8961 384.731 43.5017 385.204 43.9771C385.844 44.6076 386.705 44.959 387.602 44.9552C388.498 44.9514 389.357 44.5927 389.991 43.9568V43.9771Z" fill="#F0F0F0"/>
<path d="M91.1223 245.247L95.0108 244.202L96.0511 240.296L94.5361 238.775L92.9302 242.112L89.5972 243.725L91.1223 245.247Z" fill="#E0E0E0"/>
<path d="M90.9001 242.64C90.5962 242.291 90.4356 241.84 90.4509 241.376C90.4661 240.913 90.6561 240.473 90.9823 240.146C91.3085 239.818 91.7466 239.627 92.2076 239.612C92.6687 239.597 93.1184 239.758 93.4655 240.063L91.5363 237.152L88.8801 238.45L88.3145 241.189L90.9001 242.64Z" fill="#E0E0E0"/>
<path d="M94.839 239.079L91.9908 236.218L88.1023 237.233L87.0923 241.138L89.89 244.03L93.7785 243.015L94.839 239.079ZM89.6678 241.422C89.4805 241.258 89.3289 241.056 89.2224 240.83C89.1158 240.604 89.0566 240.359 89.0484 240.109C89.0401 239.859 89.083 239.61 89.1745 239.378C89.2659 239.145 89.4039 238.934 89.5799 238.757C89.7558 238.581 89.9661 238.442 90.1976 238.35C90.4291 238.258 90.6768 238.215 90.9256 238.224C91.1743 238.232 91.4187 238.291 91.6437 238.398C91.8686 238.505 92.0692 238.658 92.2332 238.846C92.5371 239.194 92.6977 239.646 92.6824 240.109C92.6671 240.572 92.4771 241.012 92.1509 241.34C91.8247 241.667 91.3867 241.858 90.9256 241.874C90.4645 241.889 90.0149 241.728 89.6678 241.422Z" fill="#F0F0F0"/>
<path d="M77.1235 31.1542L80.3555 34.4005C80.7597 34.7995 81.3038 35.0231 81.8705 35.0231C82.4373 35.0231 82.9813 34.7995 83.3855 34.4005C83.7804 33.9933 84.0013 33.4473 84.0013 32.8788C84.0013 32.3104 83.7804 31.7644 83.3855 31.3571L80.1636 28.121C79.7582 27.7244 79.2146 27.5024 78.6486 27.5024C78.0827 27.5024 77.5391 27.7244 77.1336 28.121C76.7381 28.5252 76.5156 29.0687 76.5137 29.6355C76.5118 30.2023 76.7307 30.7474 77.1235 31.1542Z" fill="#F0F0F0"/>
<path d="M74.8511 23.0892C75.6945 22.8537 76.588 22.8706 77.4219 23.138C78.2559 23.4053 78.9939 23.9115 79.5454 24.5942C80.097 25.277 80.438 26.1067 80.5266 26.9814C80.6153 27.8562 80.4477 28.7378 80.0444 29.5182C79.6412 30.2986 79.0198 30.9437 78.2566 31.3744C77.4934 31.805 76.6216 32.0024 75.7483 31.9424C74.875 31.8824 74.0381 31.5675 73.3405 31.0364C72.6428 30.5053 72.1148 29.7811 71.8211 28.9528C71.6347 28.3681 71.5653 27.752 71.6169 27.1402C71.6684 26.5284 71.8399 25.9328 72.1216 25.3878C72.4032 24.8429 72.7893 24.3592 73.2578 23.9647C73.7262 23.5702 74.2677 23.2727 74.8511 23.0892Z" fill="#E0E0E0"/>
<path d="M71.3362 28.3996L71.804 29.7076L81.4043 26.2436L80.9365 24.9356L71.3362 28.3996Z" fill="#F0F0F0"/>
<path d="M252.5 378C360.653 378 448.329 372.859 448.329 366.516C448.329 360.174 360.653 355.032 252.5 355.032C144.347 355.032 56.6711 360.174 56.6711 366.516C56.6711 372.859 144.347 378 252.5 378Z" fill="#F5F5F5"/>
<path d="M87.5872 66.6504C86.5772 62.1766 87.0216 58.4231 88.9406 55.3594C90.8596 52.2957 93.9906 50.2871 98.4447 49.2726C102.899 48.2581 106.747 48.6639 109.757 50.5508C112.767 52.4377 114.807 55.6232 115.817 59.9854C116.53 62.6778 116.589 65.5028 115.988 68.2228C115.401 70.4818 114.161 72.5152 112.423 74.0661C110.359 75.8112 107.883 76.9922 105.232 77.495C102.633 78.188 99.9127 78.2816 97.2731 77.7689C94.9787 77.2088 92.9034 75.9723 91.3141 74.2183C89.4154 72.0792 88.1276 69.4643 87.5872 66.6504ZM96.0106 64.7635C96.6368 67.5228 97.5963 69.3894 98.8891 70.3633C99.5565 70.8103 100.307 71.1171 101.095 71.2652C101.884 71.4134 102.694 71.3999 103.477 71.2255C104.26 71.0511 105 70.7195 105.652 70.2506C106.304 69.7816 106.855 69.1851 107.272 68.4967C107.999 67.0866 108.009 64.8446 107.323 61.7911C106.737 59.2144 105.791 57.4492 104.485 56.4956C103.827 56.0215 103.072 55.7015 102.275 55.5593C101.478 55.4171 100.659 55.4563 99.8789 55.6739C99.0982 55.8207 98.3609 56.1435 97.7223 56.6179C97.0838 57.0924 96.5607 57.7061 96.1924 58.4129C95.445 59.9042 95.3743 61.9331 96.0106 64.7635Z" fill="#263238"/>
<path d="M119.776 63.3026C119.417 61.9201 119.353 60.4771 119.588 59.0681C119.823 57.659 120.352 56.3157 121.139 55.1261C122.022 53.8622 123.145 52.7859 124.443 51.959C125.742 51.1321 127.19 50.5708 128.704 50.3073C132.657 49.4078 135.902 49.8779 138.441 51.7174C140.577 53.3808 142.029 55.7755 142.521 58.4452C143.013 61.1148 142.51 63.8729 141.107 66.1939C139.532 68.6083 136.966 70.2179 133.411 71.0227C130.672 71.7919 127.75 71.5544 125.169 70.3532C123.789 69.6758 122.585 68.6868 121.649 67.4636C120.713 66.2404 120.072 64.8163 119.776 63.3026ZM127.361 61.5476C127.565 62.9652 128.255 64.2672 129.31 65.2301C129.729 65.5483 130.211 65.7711 130.724 65.8831C131.237 65.9951 131.768 65.9937 132.28 65.8788C132.793 65.7639 133.274 65.5384 133.691 65.2179C134.107 64.8974 134.45 64.4896 134.694 64.0229C135.222 62.6603 135.272 61.1571 134.835 59.7622C134.623 58.3778 133.941 57.1094 132.906 56.171C132.504 55.8438 132.033 55.6141 131.528 55.4998C131.024 55.3854 130.5 55.3894 129.997 55.5115C129.473 55.6206 128.981 55.8482 128.557 56.1768C128.134 56.5055 127.79 56.9268 127.553 57.4086C127.009 58.7233 126.941 60.1879 127.361 61.5476Z" fill="#263238"/>
<path d="M150.066 74.6849L143.875 47.2944L150.945 45.6712L151.611 48.603C152.11 47.4338 152.834 46.3753 153.742 45.4886C154.739 44.6391 155.929 44.0501 157.207 43.7742C158.387 43.4515 159.63 43.433 160.82 43.7202C162.01 44.0075 163.108 44.5912 164.014 45.4176C166.01 47.2919 167.364 49.7529 167.882 52.4478C168.63 55.7449 168.407 58.4433 167.236 60.5636C166.679 61.5773 165.908 62.4571 164.979 63.1421C164.049 63.827 162.983 64.3006 161.853 64.5301C160.764 64.7894 159.635 64.8342 158.53 64.662C157.469 64.4754 156.458 64.0714 155.56 63.4751L157.701 72.94L150.066 74.6849ZM153.712 55.5521C153.897 56.8191 154.528 57.9777 155.49 58.8187C155.875 59.1152 156.323 59.3204 156.798 59.4188C157.274 59.5171 157.766 59.5062 158.237 59.3868C158.674 59.2987 159.085 59.1087 159.436 58.8321C159.786 58.5554 160.068 58.1999 160.257 57.7941C160.686 56.5244 160.686 55.1479 160.257 53.8782C160.072 52.6049 159.463 51.4319 158.53 50.5508C158.183 50.2619 157.775 50.0567 157.338 49.9512C156.9 49.8456 156.444 49.8425 156.005 49.9421C155.541 50.0427 155.105 50.2474 154.731 50.5407C154.357 50.8341 154.053 51.2086 153.843 51.6363C153.349 52.8868 153.302 54.271 153.712 55.5521Z" fill="#263238"/>
<path d="M171.124 56.1506L178.477 53.7261C178.868 54.44 179.477 55.009 180.214 55.3492C181.008 55.58 181.847 55.5984 182.65 55.4026C183.452 55.2069 184.19 54.8038 184.79 54.2333C184.957 54.0543 185.079 53.8369 185.144 53.6001C185.209 53.3632 185.216 53.1139 185.163 52.8739C185.103 52.5993 184.961 52.3491 184.758 52.1557C184.555 51.9623 184.298 51.8344 184.022 51.7884C182.881 51.6626 181.729 51.6626 180.588 51.7884C178.672 51.9521 176.747 51.9521 174.831 51.7884C173.71 51.625 172.658 51.1427 171.801 50.3986C170.886 49.6035 170.255 48.5308 170.001 47.3428C169.748 46.1548 169.887 44.9163 170.397 43.8147C170.986 42.636 171.901 41.6532 173.033 40.9844C174.644 40.0651 176.395 39.4174 178.214 39.067C179.952 38.5935 181.748 38.3748 183.547 38.4178C184.677 38.4909 185.773 38.839 186.739 39.4322C187.768 40.1298 188.642 41.035 189.304 42.0901L182.234 44.4336C181.97 43.905 181.531 43.4853 180.992 43.2466C180.255 42.9819 179.456 42.9466 178.699 43.1452C178.03 43.2389 177.41 43.5487 176.932 44.0278C176.78 44.1911 176.67 44.3893 176.612 44.605C176.554 44.8207 176.549 45.0475 176.598 45.2654C176.653 45.5053 176.779 45.7229 176.959 45.8895C177.14 46.0561 177.366 46.1639 177.608 46.1987C178.738 46.3304 179.879 46.3065 181.002 46.1277C182.95 45.8442 184.926 45.8169 186.88 46.0466C188.11 46.221 189.262 46.7536 190.193 47.5784C191.035 48.3455 191.621 49.3553 191.87 50.4696C192.128 51.6645 192.034 52.9093 191.597 54.0507C191.063 55.402 190.133 56.5588 188.931 57.368C187.159 58.5312 185.174 59.3279 183.093 59.7114C179.49 60.5365 176.797 60.6075 175.013 59.9244C173.274 59.2271 171.878 57.8719 171.124 56.1506Z" fill="#263238"/>
<path d="M195.788 31.0629H204.081V37.4541L202.555 50.3073H197.425L195.788 37.4743V31.0629ZM196.192 52.245H203.929V59.1231H196.192V52.245Z" fill="#263238"/>
<path d="M129.967 118.317H129.785C125.24 116.542 122.523 114.817 121.109 112.738C120.002 112.948 118.857 112.792 117.847 112.291C116.663 111.709 115.681 110.783 115.029 109.633C114.686 109.898 114.282 110.071 113.855 110.136C113.427 110.202 112.99 110.158 112.585 110.009C111.34 109.541 110.278 108.684 109.555 107.564C109.102 107.902 108.54 108.058 107.979 108C104.949 107.757 100.909 101.751 100.616 95.3598C100.613 95.2249 100.662 95.094 100.752 94.994C100.842 94.894 100.967 94.8325 101.101 94.8221C101.167 94.8194 101.233 94.8298 101.296 94.8529C101.358 94.8759 101.415 94.911 101.464 94.9562C101.513 95.0014 101.552 95.0559 101.58 95.1164C101.608 95.177 101.623 95.2424 101.626 95.309C101.909 101.396 105.777 106.803 108.07 106.986C108.237 107.004 108.406 106.99 108.567 106.943C108.728 106.896 108.878 106.817 109.009 106.712C108.219 105.265 107.723 103.676 107.55 102.035C107.376 100.395 107.529 98.7361 107.999 97.1554C108.868 94.112 109.635 92.9149 110.565 93.0975C112.302 93.5337 112.069 100.199 111.15 104.551C111.011 105.336 110.723 106.087 110.302 106.762C110.897 107.765 111.796 108.551 112.867 109.004C113.153 109.114 113.464 109.138 113.763 109.075C114.062 109.012 114.336 108.864 114.554 108.649C113.766 106.691 113.544 104.013 114.675 100.605C116.089 96.1105 116.695 95.9888 117.008 95.9076C117.126 95.8827 117.248 95.8903 117.362 95.9296C117.476 95.9689 117.577 96.0384 117.655 96.1308C118.594 97.196 117.473 104.175 116.301 107.625C116.164 108.04 115.974 108.435 115.736 108.801C116.278 109.899 117.16 110.789 118.251 111.338C118.966 111.687 119.761 111.837 120.553 111.774C120.463 111.581 120.382 111.388 120.301 111.185C119.503 109.004 119.897 106.499 121.503 103.496C122.563 101.518 123.432 100.584 124.24 100.584C124.454 100.587 124.664 100.652 124.843 100.77C125.022 100.889 125.163 101.057 125.25 101.254C126.129 102.887 125.492 108.274 123.755 110.952C123.348 111.566 122.783 112.057 122.119 112.372C123.472 114.158 126.048 115.73 130.199 117.333C130.261 117.356 130.318 117.39 130.367 117.436C130.416 117.481 130.455 117.535 130.482 117.596C130.509 117.656 130.524 117.722 130.526 117.788C130.528 117.854 130.516 117.92 130.492 117.982C130.453 118.088 130.38 118.178 130.285 118.238C130.19 118.299 130.079 118.326 129.967 118.317ZM124.23 101.609C124.23 101.609 123.654 101.609 122.382 103.993C120.917 106.712 120.543 108.954 121.24 110.841C121.325 111.074 121.426 111.301 121.543 111.52C122.09 111.293 122.555 110.904 122.876 110.404C124.29 108.233 124.967 103.77 124.442 102.025C124.371 101.67 124.23 101.609 124.23 101.609ZM116.978 97.338C116.431 98.493 115.979 99.6906 115.625 100.919C114.85 103.048 114.717 105.359 115.241 107.564L115.332 107.3C116.392 104.084 116.958 100.725 117.008 97.338H116.978ZM110.332 94.1424C110.161 94.2946 109.666 94.9337 108.969 97.409C108.145 100.187 108.405 103.176 109.696 105.768C109.903 105.315 110.056 104.838 110.15 104.348C111.231 99.3669 110.928 94.8627 110.363 94.1424H110.332Z" fill="#263238"/>
<path d="M168.367 171.495C166.752 171.511 165.163 171.094 163.761 170.288C163.646 170.218 163.562 170.106 163.528 169.975C163.494 169.845 163.513 169.706 163.58 169.588C163.613 169.531 163.657 169.481 163.71 169.441C163.763 169.402 163.823 169.373 163.887 169.357C163.951 169.341 164.017 169.338 164.082 169.348C164.148 169.358 164.21 169.381 164.266 169.416C167.872 171.536 172.528 170.055 173.488 168.503C173.557 168.405 173.606 168.295 173.632 168.178C173.658 168.062 173.661 167.941 173.639 167.823C171.795 167.929 169.97 167.408 168.458 166.342C165.882 164.729 165.68 164.242 165.701 163.856C165.705 163.746 165.74 163.638 165.8 163.545C165.861 163.453 165.945 163.378 166.044 163.329C167.054 162.822 171.609 164.922 173.508 166.18C173.735 166.331 173.946 166.508 174.134 166.707C174.88 166.537 175.553 166.132 176.053 165.551C176.335 165.218 176.538 164.826 176.649 164.404H176.447C174.831 164.567 173.215 163.867 171.488 162.264C170.296 161.168 169.842 160.407 169.993 159.809C170.039 159.641 170.132 159.489 170.261 159.372C170.389 159.255 170.549 159.178 170.72 159.149C172.114 158.794 175.568 160.275 176.972 161.828C177.285 162.165 177.508 162.577 177.619 163.025C178.942 162.406 180.335 160.996 181.982 158.693C182.02 158.638 182.069 158.591 182.125 158.555C182.181 158.52 182.244 158.495 182.31 158.484C182.376 158.473 182.443 158.475 182.508 158.489C182.573 158.504 182.634 158.532 182.689 158.571C182.797 158.65 182.87 158.769 182.893 158.901C182.915 159.034 182.886 159.17 182.81 159.281C180.901 161.959 179.305 163.481 177.709 164.1C177.627 164.85 177.32 165.557 176.831 166.129C176.249 166.808 175.484 167.305 174.629 167.559C174.677 167.801 174.677 168.051 174.628 168.293C174.58 168.535 174.484 168.765 174.346 168.969C173.498 170.42 171.054 171.495 168.367 171.495ZM167.468 164.455C167.811 164.709 168.296 165.043 168.993 165.469C170.079 166.205 171.327 166.665 172.629 166.809C171.004 165.829 169.272 165.04 167.468 164.455ZM170.993 160.144C171.283 160.692 171.686 161.173 172.175 161.554C173.669 162.943 175.033 163.583 176.346 163.42H176.669C176.597 163.105 176.444 162.815 176.225 162.578C174.811 160.975 171.7 159.981 170.993 160.144Z" fill="#263238"/>
<path d="M181.739 170.106L166.004 172.977L151.712 94.6395L121.351 100.178L71.8615 188.437L77.1741 217.562L140.653 205.987L144.996 229.807L175.356 224.248L171.013 200.428L186.749 197.557L181.739 170.106ZM102.101 184.683L128.361 138.454L135.683 178.566L102.101 184.683Z" fill="#407BFF"/>
<path d="M308.484 89.3237C308.006 84.3992 306.921 79.5534 305.252 74.898C303.536 70.4386 301.152 66.2684 298.182 62.5317C294.667 58.1843 290.301 54.6073 285.355 52.0218C279.969 49.0528 272.824 46.9867 263.923 45.8234C245.44 43.4022 231.037 46.6959 220.715 55.7043C210.393 64.7128 203.592 81.9587 200.313 107.442C199.004 116.966 198.666 126.599 199.303 136.192C199.977 144.984 201.586 152.062 204.131 157.425C207.37 164.657 212.479 170.886 218.928 175.462C225.304 179.959 234.057 182.932 245.188 184.379C264.97 186.969 279.639 183.152 289.193 172.926C298.748 162.7 305.077 145.42 308.181 121.087C309.561 110.55 309.663 99.8847 308.484 89.3237Z" fill="#407BFF"/>
<path d="M254.288 173.961C251.854 173.879 249.238 173.656 246.602 173.311C237.35 172.104 230.199 169.75 225.331 166.322C220.476 162.878 216.637 158.182 214.221 152.728L214.17 152.616C212.231 148.558 210.959 142.725 210.403 135.37C209.815 126.536 210.126 117.664 211.332 108.893C214.938 80.7717 222.382 69.0344 227.987 64.1446C234.532 58.4433 243.37 55.8666 254.985 56.2724C257.368 56.3535 259.893 56.5666 262.489 56.9014C269.943 57.9158 275.851 59.539 280.033 61.8317C283.646 63.7006 286.844 66.2853 289.436 69.43C291.703 72.2702 293.525 75.4414 294.839 78.8341C296.181 82.6171 297.049 86.553 297.425 90.5512C298.502 100.239 298.404 110.023 297.132 119.687C294.334 141.538 288.921 156.897 281.053 165.338C275.215 171.587 266.458 174.468 254.278 174.001L254.288 173.961Z" fill="#263238"/>
<path d="M274.053 89.6179L274.185 85.7731L271.831 85.0021C271.731 83.7017 271.522 82.4121 271.205 81.1471L273.225 79.666L271.872 76.0545L269.407 76.2574C268.828 75.0967 268.152 73.987 267.387 72.9401L268.66 70.7996L266.034 67.9895L263.832 69.1257C262.847 68.2749 261.793 67.508 260.681 66.833L261.035 64.378L257.54 62.7853L255.944 64.6722C254.708 64.2699 253.442 63.9713 252.157 63.7794L251.561 61.3752L247.723 61.2433L246.965 63.5968C245.671 63.7009 244.387 63.9112 243.127 64.2258L241.643 62.1969L238.047 63.5461L238.249 66.0214C237.094 66.604 235.989 67.2827 234.946 68.0503L232.825 66.762L230.017 69.3894L231.149 71.6111C230.299 72.6 229.539 73.6626 228.876 74.7864L226.432 74.4111L224.836 77.9211L226.725 79.524C226.315 80.766 226.017 82.0426 225.836 83.3384L223.432 83.947L223.301 87.7817L225.654 88.5527C225.753 89.8567 225.962 91.1497 226.28 92.4178L224.26 93.8888L225.614 97.5003L228.078 97.2974C228.652 98.4613 229.328 99.5715 230.098 100.615L228.816 102.755L231.442 105.565L233.643 104.439C234.629 105.287 235.683 106.05 236.795 106.722L236.431 109.177L239.926 110.769L241.531 108.893C242.771 109.293 244.041 109.588 245.329 109.775L245.925 112.19L249.753 112.322L250.51 109.958C251.809 109.859 253.096 109.648 254.358 109.329L255.823 111.358L259.419 110.009L259.227 107.544C260.378 106.953 261.482 106.275 262.529 105.515L264.65 106.793L267.458 104.165L266.337 101.944C267.183 100.958 267.94 99.8989 268.599 98.7785L271.044 99.1437L272.639 95.6337L270.761 94.0308C271.163 92.7906 271.457 91.5178 271.64 90.2266L274.053 89.6179ZM248.197 102.065C245.206 101.956 242.314 100.958 239.886 99.1989C237.459 97.4397 235.604 94.9975 234.557 92.1807C233.51 89.3639 233.318 86.2987 234.004 83.372C234.689 80.4453 236.223 77.7882 238.411 75.7362C240.599 73.6842 243.343 72.3293 246.297 71.8424C249.251 71.3555 252.283 71.7585 255.009 73.0005C257.735 74.2425 260.034 76.2679 261.615 78.8209C263.196 81.374 263.989 84.3403 263.893 87.3455C263.829 89.3486 263.372 91.3192 262.548 93.1444C261.723 94.9695 260.548 96.6131 259.09 97.9809C257.632 99.3486 255.919 100.414 254.049 101.114C252.18 101.815 250.191 102.139 248.197 102.065Z" fill="#407BFF"/>
<path opacity="0.3" d="M289.991 160.204L290.274 157.607L288.719 156.978C288.716 156.095 288.642 155.212 288.496 154.341L289.9 153.438L289.183 150.932H287.507C287.175 150.117 286.773 149.333 286.305 148.589L287.254 147.209L285.638 145.18L284.093 145.829C283.467 145.207 282.791 144.637 282.073 144.125L282.446 142.482L280.174 141.224L278.982 142.431C278.171 142.095 277.333 141.827 276.477 141.63L276.195 139.976L273.619 139.682L272.983 141.244C272.105 141.248 271.23 141.33 270.367 141.488L269.468 140.047L266.973 140.788V142.472C266.162 142.808 265.381 143.216 264.64 143.689L263.267 142.674L261.247 144.298L261.893 145.85C261.277 146.479 260.713 147.158 260.206 147.879L258.57 147.513L257.328 149.796L258.52 150.983C258.181 151.8 257.914 152.645 257.722 153.509L256.065 153.783L255.793 156.37L257.338 157.019C257.339 157.897 257.416 158.772 257.57 159.636L256.146 160.539L256.873 163.045H258.56C258.897 163.856 259.303 164.636 259.772 165.378L258.762 166.758L260.378 168.787L261.944 168.127C262.565 168.752 263.241 169.319 263.964 169.822L263.61 171.495L265.883 172.743L267.064 171.556C267.877 171.884 268.715 172.145 269.569 172.337L269.862 174.001L272.437 174.285L273.064 172.733C273.957 172.732 274.849 172.657 275.73 172.51L276.629 173.94L279.114 173.21V171.526C279.925 171.183 280.709 170.776 281.457 170.308L282.81 171.323L284.83 169.69L284.174 168.138C284.796 167.508 285.367 166.83 285.88 166.109L287.507 166.474L288.759 164.191L287.567 163.014C287.892 162.198 288.152 161.356 288.345 160.499L289.991 160.204ZM276.993 159.19C276.565 159.975 275.915 160.616 275.126 161.03C274.336 161.445 273.441 161.615 272.555 161.518C271.669 161.422 270.832 161.064 270.148 160.489C269.465 159.915 268.967 159.15 268.716 158.291C268.466 157.431 268.475 156.517 268.742 155.663C269.01 154.809 269.523 154.054 270.218 153.493C270.912 152.933 271.757 152.591 272.645 152.513C273.532 152.434 274.423 152.622 275.205 153.052C276.25 153.631 277.024 154.601 277.359 155.751C277.694 156.901 277.562 158.137 276.993 159.19Z" fill="#407BFF"/>
<path d="M304.303 116.359L301.273 114.269C300.975 113.183 300.569 112.129 300.061 111.125L300.828 108.081L296.465 103.384L293.435 103.952C292.474 103.378 291.459 102.898 290.405 102.522L288.537 99.3568L282.143 99.1437L280.063 102.187C278.98 102.482 277.93 102.89 276.932 103.405L273.902 102.623L269.226 107.016L269.791 110.059C269.211 111.02 268.733 112.041 268.367 113.103L265.226 114.98L265.004 121.401L268.034 123.491C268.327 124.585 268.734 125.646 269.246 126.656L268.478 129.699L272.841 134.396L275.871 133.838C276.833 134.412 277.848 134.891 278.901 135.269L280.76 138.424L287.163 138.647L289.234 135.604C290.326 135.306 291.385 134.898 292.395 134.386L295.425 135.157L300.101 130.775L299.546 127.731C300.12 126.767 300.597 125.747 300.97 124.688L304.111 122.811L304.303 116.359ZM284.376 126.118C282.954 126.069 281.579 125.598 280.424 124.764C279.269 123.93 278.387 122.771 277.888 121.433C277.389 120.095 277.296 118.639 277.622 117.248C277.947 115.857 278.676 114.594 279.715 113.619C280.755 112.645 282.059 112.001 283.463 111.771C284.867 111.541 286.307 111.734 287.602 112.326C288.896 112.918 289.987 113.882 290.736 115.096C291.485 116.311 291.858 117.721 291.809 119.149C291.741 121.062 290.92 122.87 289.526 124.177C288.133 125.483 286.281 126.181 284.376 126.118Z" fill="white"/>
<path d="M326.23 65.0982L326.755 63.8302C327.112 63.628 327.45 63.3937 327.765 63.1302H328.937L330.31 61.1012L329.866 60.0158C330.036 59.6542 330.171 59.2771 330.27 58.8897L331.28 57.9564L330.856 55.5724L329.583 55.0449C329.384 54.6851 329.15 54.3454 328.886 54.0304V52.8536L326.917 51.474L325.826 51.9305C325.427 51.7894 325.014 51.6941 324.594 51.6464L323.665 50.632L321.301 51.058L320.766 52.3363C320.391 52.5314 320.036 52.7624 319.705 53.0261H318.544L317.17 55.055L317.615 56.1405C317.479 56.5424 317.384 56.9571 317.332 57.3782L316.322 58.3216L316.746 60.6955L318.019 61.223C318.211 61.5845 318.442 61.9246 318.705 62.2374V63.4041L320.725 64.7837L321.806 64.3374C322.21 64.4693 322.626 64.561 323.049 64.6113L323.978 65.6258L326.23 65.0982ZM321.18 58.5245C321.084 57.9952 321.147 57.4493 321.361 56.9559C321.574 56.4626 321.929 56.0439 322.379 55.753C322.83 55.462 323.356 55.3118 323.891 55.3213C324.427 55.3309 324.948 55.4998 325.387 55.8066C325.827 56.1135 326.167 56.5445 326.363 57.0452C326.559 57.5459 326.602 58.0936 326.488 58.6192C326.374 59.1448 326.107 59.6245 325.721 59.9977C325.336 60.3709 324.848 60.6208 324.321 60.7157C323.616 60.8401 322.89 60.6796 322.302 60.2692C321.713 59.8589 321.31 59.2318 321.18 58.5245Z" fill="#407BFF"/>
<path d="M298.566 58.3724L297.788 57.713C299.455 55.6367 301.515 53.9127 303.848 52.6406L304.323 53.5334C302.104 54.7471 300.147 56.392 298.566 58.3724Z" fill="#407BFF"/>
<path d="M306.626 52.6L306.232 51.6667C309.962 50.0388 314.04 49.3828 318.089 49.7595L317.988 50.774C314.108 50.4066 310.198 51.0349 306.626 52.6Z" fill="#407BFF"/>
<path d="M304.717 59.6201L303.889 59.052C306.322 55.7516 309.864 53.4486 313.857 52.5696L314.049 53.584C310.317 54.4028 307.003 56.5459 304.717 59.6201Z" fill="#407BFF"/>
<path d="M237.693 157.293C237.556 157.289 237.425 157.231 237.33 157.131L235.219 154.939C234.143 154.841 233.078 154.644 232.037 154.351L228.735 155.812C228.662 155.852 228.58 155.873 228.497 155.873C228.414 155.873 228.333 155.852 228.26 155.812L222.725 152.129C222.654 152.082 222.596 152.017 222.557 151.941C222.518 151.864 222.499 151.779 222.503 151.693V148.082C221.827 147.233 221.232 146.323 220.725 145.363L217.887 144.267C217.808 144.236 217.737 144.186 217.683 144.12C217.628 144.054 217.591 143.976 217.574 143.892L216.261 137.359C216.244 137.275 216.248 137.189 216.272 137.107C216.297 137.026 216.342 136.952 216.403 136.892L218.584 134.772C218.688 133.692 218.884 132.623 219.17 131.576L217.716 128.259C217.676 128.186 217.655 128.104 217.655 128.021C217.655 127.937 217.676 127.855 217.716 127.782L221.382 122.223C221.427 122.15 221.492 122.09 221.568 122.051C221.645 122.012 221.73 121.994 221.816 122L225.412 122.05C226.254 121.368 227.161 120.771 228.119 120.265L229.219 117.414C229.249 117.335 229.297 117.265 229.361 117.21C229.424 117.155 229.501 117.117 229.583 117.1L236.087 115.781C236.171 115.763 236.257 115.766 236.338 115.791C236.42 115.816 236.493 115.861 236.552 115.923L238.663 118.114C239.742 118.213 240.811 118.41 241.855 118.703L245.147 117.242C245.222 117.202 245.305 117.181 245.39 117.181C245.474 117.181 245.557 117.202 245.632 117.242L251.157 120.924C251.227 120.974 251.284 121.039 251.325 121.115C251.365 121.19 251.387 121.275 251.389 121.361L251.328 124.972C252.007 125.821 252.606 126.731 253.116 127.691L255.944 128.797C256.023 128.826 256.093 128.875 256.148 128.939C256.202 129.002 256.24 129.079 256.257 129.162L257.58 135.695C257.596 135.778 257.591 135.864 257.567 135.946C257.542 136.027 257.498 136.101 257.439 136.162L255.247 138.292C255.146 139.369 254.95 140.435 254.661 141.477L256.116 144.795C256.156 144.87 256.176 144.953 256.176 145.038C256.176 145.123 256.156 145.207 256.116 145.282L252.5 150.79C252.453 150.859 252.389 150.915 252.315 150.954C252.241 150.993 252.159 151.013 252.076 151.013L248.47 150.963C247.625 151.635 246.722 152.233 245.773 152.748L244.672 155.599C244.643 155.679 244.592 155.75 244.527 155.805C244.461 155.861 244.383 155.898 244.299 155.913L237.794 157.293H237.693ZM232.007 153.235C232.054 153.226 232.102 153.226 232.148 153.235C233.239 153.554 234.359 153.761 235.492 153.854C235.613 153.868 235.726 153.922 235.815 154.006L237.835 156.136L243.794 154.929L244.864 152.15C244.914 152.037 244.999 151.945 245.107 151.886C246.116 151.362 247.067 150.733 247.945 150.009C248.038 149.93 248.157 149.89 248.278 149.897L251.783 149.948L255.136 144.876L253.722 141.65C253.682 141.538 253.682 141.416 253.722 141.305C254.034 140.208 254.241 139.084 254.338 137.947C254.349 137.824 254.402 137.709 254.49 137.622L256.611 135.594L255.409 129.608L252.651 128.533C252.533 128.49 252.436 128.402 252.379 128.289C251.855 127.277 251.229 126.322 250.51 125.439C250.438 125.346 250.399 125.232 250.399 125.114V121.584L245.349 118.216L242.147 119.636C242.033 119.677 241.908 119.677 241.794 119.636C240.699 119.318 239.576 119.111 238.441 119.017C238.32 119.003 238.206 118.949 238.118 118.865L236.098 116.735L230.139 117.952L229.078 120.772C229.036 120.888 228.953 120.986 228.846 121.046C227.833 121.569 226.878 122.198 225.998 122.923C225.954 122.962 225.903 122.993 225.847 123.012C225.792 123.031 225.733 123.039 225.674 123.034L222.17 122.984L218.806 128.056L220.22 131.282C220.253 131.35 220.269 131.425 220.269 131.5C220.269 131.576 220.253 131.65 220.22 131.718C219.921 132.789 219.725 133.886 219.635 134.995C219.625 135.118 219.571 135.234 219.483 135.32L217.362 137.349L218.574 143.334L221.321 144.409C221.444 144.46 221.544 144.554 221.604 144.673C222.125 145.678 222.748 146.627 223.462 147.503C223.538 147.594 223.577 147.71 223.574 147.828V151.358L228.624 154.726L231.835 153.306C231.888 153.272 231.946 153.248 232.007 153.235ZM236.966 149.948C234.535 149.946 232.15 149.282 230.065 148.027C227.979 146.773 226.271 144.974 225.122 142.822C223.973 140.67 223.426 138.245 223.54 135.806C223.653 133.367 224.422 131.004 225.765 128.969C227.05 127.017 228.817 125.432 230.894 124.372C232.971 123.311 235.287 122.809 237.615 122.917C239.942 123.024 242.202 123.737 244.174 124.984C246.145 126.232 247.761 127.972 248.862 130.035C249.963 132.097 250.513 134.411 250.456 136.751C250.4 139.091 249.741 141.376 248.542 143.383C247.343 145.39 245.646 147.05 243.617 148.201C241.588 149.351 239.296 149.954 236.966 149.948ZM226.614 129.527C225.254 131.587 224.533 134.006 224.543 136.478C224.552 138.949 225.29 141.363 226.665 143.413C228.039 145.463 229.988 147.058 232.265 147.996C234.542 148.933 237.044 149.172 239.456 148.681C241.868 148.19 244.081 146.992 245.815 145.239C247.549 143.485 248.726 141.254 249.198 138.828C249.67 136.402 249.415 133.89 248.466 131.61C247.516 129.33 245.915 127.383 243.864 126.017C242.505 125.103 240.978 124.468 239.372 124.15C237.767 123.831 236.115 123.835 234.511 124.162C232.907 124.488 231.383 125.13 230.028 126.051C228.673 126.972 227.512 128.153 226.614 129.527Z" fill="white"/>
<path d="M430.088 179.256L414.231 177.105L424.715 98.1698L394.132 94.0308L319.948 162.629L316.049 191.977L379.972 200.641L376.78 224.653L407.363 228.792L410.555 204.79L426.412 206.941L430.088 179.256ZM349.874 168.381L389.022 132.54L383.648 172.956L349.874 168.381Z" fill="#407BFF"/>
<path d="M398.071 228.042H397.94C397.809 228.017 397.693 227.941 397.617 227.831C397.542 227.721 397.512 227.585 397.536 227.453L421.17 97.6626C421.197 97.5323 421.273 97.4173 421.382 97.3418C421.491 97.2662 421.625 97.2358 421.756 97.2568C421.887 97.2815 422.003 97.3572 422.078 97.4674C422.154 97.5776 422.183 97.7134 422.16 97.8452L398.576 227.626C398.553 227.743 398.49 227.849 398.398 227.924C398.306 228 398.19 228.042 398.071 228.042Z" fill="#263238"/>
<path d="M418.978 99.8437C418.97 100.064 418.875 100.273 418.714 100.423C418.553 100.573 418.339 100.653 418.12 100.645C417.9 100.637 417.693 100.542 417.543 100.38C417.393 100.218 417.314 100.003 417.322 99.7828C417.33 99.5622 417.425 99.3538 417.586 99.2035C417.747 99.0532 417.961 98.9733 418.18 98.9814C418.4 98.9895 418.607 99.0848 418.757 99.2466C418.907 99.4083 418.986 99.6231 418.978 99.8437Z" fill="#263238"/>
<path d="M415.615 117.394C415.609 117.558 415.554 117.717 415.458 117.85C415.362 117.984 415.229 118.085 415.076 118.143C414.922 118.2 414.755 118.21 414.596 118.172C414.437 118.134 414.292 118.05 414.181 117.929C414.069 117.809 413.996 117.658 413.97 117.495C413.944 117.333 413.966 117.167 414.034 117.017C414.102 116.867 414.213 116.741 414.352 116.655C414.492 116.569 414.653 116.526 414.817 116.532C414.926 116.536 415.033 116.561 415.132 116.606C415.231 116.652 415.32 116.717 415.394 116.797C415.468 116.877 415.526 116.971 415.564 117.073C415.602 117.176 415.619 117.285 415.615 117.394Z" fill="#263238"/>
<path d="M412.252 134.975C412.248 135.084 412.222 135.191 412.177 135.291C412.132 135.39 412.068 135.48 411.988 135.554C411.908 135.629 411.815 135.686 411.713 135.725C411.61 135.763 411.502 135.78 411.393 135.776C411.285 135.773 411.178 135.749 411.079 135.705C410.98 135.66 410.891 135.597 410.817 135.518C410.743 135.438 410.685 135.345 410.647 135.243C410.609 135.141 410.591 135.033 410.595 134.924C410.598 134.814 410.622 134.705 410.667 134.605C410.712 134.504 410.776 134.413 410.856 134.338C410.936 134.262 411.03 134.204 411.132 134.165C411.235 134.126 411.344 134.108 411.454 134.112C411.673 134.123 411.879 134.219 412.028 134.38C412.177 134.541 412.257 134.755 412.252 134.975Z" fill="#263238"/>
<path d="M405.626 153.235C405.604 153.438 405.507 153.626 405.355 153.763C405.203 153.9 405.007 153.975 404.803 153.975C404.599 153.975 404.402 153.9 404.251 153.763C404.099 153.626 404.002 153.438 403.98 153.235C403.967 153.119 403.979 153.001 404.014 152.89C404.05 152.778 404.108 152.676 404.186 152.588C404.264 152.501 404.359 152.432 404.465 152.384C404.571 152.336 404.686 152.311 404.803 152.311C404.919 152.311 405.035 152.336 405.141 152.384C405.247 152.432 405.342 152.501 405.42 152.588C405.498 152.676 405.556 152.778 405.592 152.89C405.627 153.001 405.639 153.119 405.626 153.235Z" fill="#263238"/>
<path d="M405.515 170.045C405.512 170.154 405.488 170.262 405.443 170.363C405.398 170.463 405.334 170.553 405.254 170.627C405.174 170.702 405.08 170.76 404.977 170.797C404.875 170.835 404.766 170.852 404.656 170.846C404.493 170.84 404.335 170.785 404.202 170.689C404.069 170.593 403.968 170.459 403.911 170.305C403.854 170.15 403.844 169.983 403.882 169.823C403.919 169.663 404.004 169.517 404.124 169.406C404.243 169.294 404.394 169.22 404.555 169.194C404.717 169.167 404.883 169.19 405.032 169.258C405.181 169.327 405.306 169.438 405.392 169.578C405.478 169.718 405.521 169.88 405.515 170.045Z" fill="#263238"/>
<path d="M402.152 187.595C402.148 187.76 402.095 187.92 402 188.054C401.905 188.189 401.773 188.292 401.619 188.351C401.466 188.41 401.298 188.422 401.138 188.385C400.978 188.348 400.833 188.264 400.72 188.144C400.608 188.024 400.533 187.873 400.507 187.71C400.48 187.548 400.502 187.38 400.57 187.23C400.637 187.08 400.748 186.954 400.888 186.867C401.027 186.78 401.19 186.737 401.354 186.743C401.572 186.751 401.778 186.845 401.927 187.004C402.076 187.164 402.157 187.376 402.152 187.595Z" fill="#263238"/>
<path d="M398.788 205.145C398.78 205.367 398.686 205.576 398.525 205.728C398.364 205.88 398.15 205.962 397.93 205.957C397.821 205.953 397.714 205.927 397.615 205.882C397.516 205.836 397.427 205.772 397.353 205.692C397.279 205.612 397.221 205.518 397.183 205.415C397.145 205.313 397.128 205.204 397.132 205.094C397.135 204.985 397.16 204.878 397.205 204.778C397.249 204.678 397.313 204.589 397.392 204.514C397.472 204.439 397.565 204.38 397.667 204.342C397.768 204.303 397.877 204.285 397.985 204.288C398.094 204.291 398.201 204.316 398.3 204.361C398.4 204.406 398.489 204.47 398.564 204.55C398.638 204.629 398.696 204.723 398.735 204.825C398.773 204.927 398.792 205.036 398.788 205.145Z" fill="#263238"/>
<path d="M395.415 222.706C395.409 222.87 395.354 223.029 395.258 223.162C395.162 223.295 395.029 223.397 394.876 223.454C394.722 223.512 394.555 223.522 394.396 223.484C394.237 223.446 394.092 223.361 393.981 223.241C393.869 223.12 393.796 222.97 393.77 222.807C393.744 222.645 393.766 222.478 393.834 222.329C393.902 222.179 394.013 222.053 394.152 221.967C394.292 221.88 394.453 221.837 394.617 221.843C394.726 221.846 394.834 221.87 394.933 221.915C395.033 221.96 395.123 222.025 395.197 222.105C395.271 222.186 395.329 222.28 395.366 222.383C395.404 222.486 395.42 222.596 395.415 222.706Z" fill="#263238"/>
<path d="M404.798 153.692C404.684 153.692 404.574 153.652 404.485 153.58C404.397 153.508 404.336 153.408 404.313 153.296C404.298 153.231 404.296 153.163 404.308 153.097C404.319 153.031 404.343 152.968 404.379 152.911C404.414 152.855 404.461 152.806 404.515 152.767C404.57 152.729 404.632 152.702 404.697 152.687L407.202 152.15C407.267 152.135 407.335 152.133 407.402 152.145C407.468 152.157 407.531 152.182 407.588 152.219C407.644 152.256 407.693 152.304 407.73 152.36C407.768 152.416 407.794 152.479 407.808 152.545C407.821 152.61 407.821 152.678 407.809 152.743C407.796 152.809 407.771 152.871 407.734 152.926C407.698 152.982 407.65 153.03 407.595 153.067C407.541 153.104 407.479 153.13 407.414 153.144L404.909 153.681L404.798 153.692Z" fill="#263238"/>
<path d="M413.171 144.348C411.979 147.452 410.968 150.623 410.141 153.844C409.383 157.425 409.343 165.439 409.343 165.439" fill="#263238"/>
<path d="M409.343 165.946C409.209 165.941 409.082 165.885 408.988 165.788C408.894 165.692 408.84 165.564 408.838 165.429C408.838 165.104 408.898 157.313 409.656 153.742C410.478 150.493 411.49 147.295 412.686 144.166C412.706 144.099 412.74 144.037 412.785 143.984C412.83 143.931 412.886 143.888 412.948 143.857C413.011 143.827 413.079 143.809 413.148 143.806C413.217 143.803 413.287 143.815 413.351 143.84C413.416 143.865 413.475 143.904 413.525 143.953C413.574 144.002 413.613 144.061 413.638 144.126C413.664 144.19 413.676 144.26 413.674 144.33C413.672 144.399 413.655 144.468 413.625 144.531C412.435 147.611 411.423 150.758 410.595 153.955C409.858 157.445 409.807 165.358 409.797 165.439C409.798 165.565 409.752 165.687 409.668 165.781C409.584 165.875 409.468 165.934 409.343 165.946Z" fill="#263238"/>
<path d="M224.674 253.505C226.078 230.781 223.503 189.462 266.034 194.94C311.615 200.793 298.576 254.337 298.576 254.337L224.674 253.505Z" fill="#263238"/>
<path d="M254.025 239.85C264.278 239.85 272.589 231.502 272.589 221.204C272.589 210.906 264.278 202.558 254.025 202.558C243.773 202.558 235.461 210.906 235.461 221.204C235.461 231.502 243.773 239.85 254.025 239.85Z" fill="white"/>
<path d="M256.469 202.589C247.672 201.087 238.289 207.59 237.35 214.184L272.205 217.41C270.973 209.893 263.438 203.786 256.469 202.589Z" fill="#263238"/>
<path d="M268.236 220.738C267.983 225.617 265.337 229.442 262.327 229.279C259.318 229.117 257.075 225.049 257.277 220.149C257.479 215.249 260.176 211.445 263.186 211.607C266.196 211.77 268.478 215.868 268.236 220.738Z" fill="#263238"/>
<path d="M254.025 240.865C250.154 240.865 246.369 239.712 243.15 237.551C239.932 235.391 237.423 232.32 235.941 228.728C234.46 225.135 234.072 221.182 234.827 217.369C235.583 213.555 237.447 210.052 240.184 207.302C242.922 204.553 246.41 202.68 250.206 201.922C254.003 201.163 257.939 201.552 261.516 203.04C265.092 204.528 268.149 207.048 270.3 210.282C272.451 213.515 273.599 217.316 273.599 221.204C273.594 226.417 271.53 231.414 267.86 235.1C264.19 238.786 259.215 240.859 254.025 240.865ZM254.025 203.583C250.553 203.583 247.159 204.617 244.272 206.555C241.385 208.493 239.135 211.247 237.807 214.469C236.478 217.692 236.131 221.237 236.809 224.658C237.487 228.078 239.16 231.22 241.616 233.685C244.072 236.151 247.201 237.829 250.607 238.508C254.012 239.187 257.542 238.837 260.75 237.501C263.957 236.165 266.698 233.903 268.625 231.002C270.553 228.102 271.581 224.692 271.579 221.204C271.574 216.531 269.722 212.05 266.431 208.746C263.14 205.443 258.678 203.586 254.025 203.583Z" fill="#407BFF"/>
<path opacity="0.3" d="M293.395 252.937H293.274C293.209 252.922 293.147 252.895 293.093 252.857C293.039 252.818 292.993 252.769 292.958 252.712C292.923 252.655 292.9 252.592 292.89 252.526C292.88 252.46 292.883 252.393 292.9 252.328C292.9 252.196 296.152 238.44 292.809 224.532C292.777 224.397 292.799 224.255 292.871 224.137C292.943 224.019 293.059 223.935 293.193 223.903C293.327 223.87 293.468 223.893 293.585 223.965C293.703 224.037 293.787 224.154 293.819 224.288C297.223 238.491 293.94 252.429 293.91 252.561C293.88 252.674 293.812 252.772 293.719 252.841C293.625 252.909 293.511 252.943 293.395 252.937Z" fill="white"/>
<path opacity="0.3" d="M290.577 216.903C290.48 216.902 290.385 216.874 290.303 216.822C290.221 216.77 290.155 216.696 290.112 216.609C288.857 213.822 287.248 211.21 285.325 208.838C285.241 208.734 285.202 208.601 285.215 208.468C285.228 208.335 285.293 208.213 285.396 208.128C285.447 208.085 285.507 208.052 285.571 208.032C285.635 208.012 285.702 208.006 285.769 208.012C285.836 208.019 285.901 208.039 285.96 208.071C286.019 208.103 286.071 208.146 286.113 208.199C288.083 210.639 289.736 213.322 291.031 216.183C291.06 216.242 291.077 216.307 291.08 216.374C291.083 216.44 291.074 216.506 291.051 216.569C291.028 216.631 290.994 216.688 290.949 216.737C290.904 216.786 290.849 216.825 290.789 216.852C290.722 216.883 290.65 216.901 290.577 216.903Z" fill="white"/>
<path d="M130.017 360.105H129.644C128.304 360.067 127.035 359.497 126.114 358.519C125.194 357.541 124.698 356.236 124.735 354.89C124.773 353.545 125.341 352.27 126.314 351.345C127.288 350.421 128.587 349.923 129.926 349.96H130.017C132.936 349.96 139.956 346.399 154.641 323.148C155.031 322.53 155.549 322.005 156.16 321.607C156.771 321.21 157.46 320.949 158.181 320.844C158.901 320.739 159.636 320.792 160.334 320.999C161.032 321.205 161.678 321.561 162.226 322.042C173.759 332 186.337 340.667 199.738 347.891C200.358 348.174 200.914 348.58 201.374 349.085C201.834 349.59 202.187 350.184 202.412 350.83C202.638 351.475 202.731 352.16 202.686 352.843C202.641 353.526 202.459 354.192 202.151 354.803C201.842 355.413 201.414 355.954 200.892 356.394C200.37 356.834 199.765 357.163 199.113 357.362C198.461 357.56 197.776 357.624 197.099 357.55C196.422 357.476 195.766 357.265 195.172 356.93C182.718 350.282 170.945 342.419 160.024 333.455C147.713 352.07 138.582 360.105 130.017 360.105Z" fill="#263238"/>
<path d="M161.267 321.129H160.832C160.039 321.014 159.323 320.587 158.842 319.942C158.361 319.297 158.154 318.488 158.267 317.69C158.984 312.618 158.095 293.718 151.722 279.008C151.44 278.358 151.392 277.63 151.587 276.948C151.783 276.266 152.209 275.675 152.793 275.275C166.63 265.81 196.102 264.674 197.354 264.633C197.752 264.62 198.149 264.686 198.521 264.826C198.894 264.967 199.235 265.18 199.526 265.453C199.817 265.726 200.051 266.054 200.216 266.418C200.38 266.783 200.472 267.176 200.485 267.575C200.498 267.975 200.433 268.373 200.293 268.748C200.153 269.122 199.941 269.465 199.669 269.757C199.397 270.049 199.07 270.285 198.708 270.45C198.345 270.615 197.954 270.707 197.556 270.72C197.283 270.72 171.518 271.735 158.287 279.039C163.923 293.688 165.206 311.938 164.266 318.542C164.158 319.263 163.795 319.92 163.244 320.395C162.694 320.869 161.992 321.13 161.267 321.129Z" fill="#263238"/>
<path d="M166.357 317.193C164.337 312.415 155.247 312.952 149.924 317.051C147.076 319.232 143.218 325.816 142.854 328.21C142.733 328.779 142.751 329.369 142.907 329.929C143.063 330.489 143.352 331.003 143.75 331.426C144.147 331.849 144.641 332.169 145.189 332.358C145.737 332.547 146.322 332.6 146.894 332.511C150.379 332.207 155.156 327.125 155.156 327.125C151.975 330.259 156.085 332.471 162.226 327.936C165.579 325.41 168.609 322.539 166.357 317.193Z" fill="#407BFF"/>
<path d="M340.077 254.844C340.031 254.854 339.982 254.854 339.936 254.844C339.871 254.826 339.811 254.796 339.759 254.755C339.706 254.713 339.663 254.662 339.631 254.603C339.598 254.544 339.579 254.48 339.572 254.413C339.565 254.346 339.572 254.279 339.592 254.215C340.936 249.508 342.4 246.637 344.329 245.085C344.027 243.994 344.084 242.834 344.491 241.778C344.961 240.545 345.792 239.484 346.874 238.734C346.58 238.415 346.371 238.026 346.267 237.604C346.163 237.182 346.167 236.74 346.279 236.32C346.644 235.049 347.401 233.927 348.44 233.114C348.065 232.693 347.86 232.147 347.864 231.582C347.864 228.539 353.429 223.953 359.742 223.081C359.876 223.062 360.012 223.098 360.12 223.179C360.228 223.261 360.299 223.383 360.318 223.517C360.336 223.652 360.301 223.788 360.22 223.897C360.138 224.005 360.017 224.077 359.883 224.095C353.884 224.917 348.854 229.279 348.874 231.582C348.872 231.926 349.002 232.256 349.238 232.505C350.596 231.58 352.125 230.936 353.734 230.61C355.344 230.284 357.001 230.284 358.611 230.608C361.711 231.207 362.974 231.866 362.832 232.81C362.55 234.585 355.954 234.96 351.531 234.433C350.738 234.361 349.967 234.137 349.258 233.773C348.306 234.454 347.597 235.426 347.238 236.543C347.151 236.839 347.152 237.153 347.24 237.448C347.328 237.744 347.499 238.007 347.733 238.207C349.612 237.192 352.248 236.827 355.732 237.598C360.307 238.612 360.479 239.17 360.59 239.505C360.626 239.623 360.629 239.749 360.598 239.869C360.568 239.989 360.506 240.098 360.419 240.185C359.459 241.199 352.44 240.723 348.915 239.85C348.489 239.753 348.078 239.599 347.693 239.394C346.649 240.03 345.846 240.998 345.41 242.143C345.118 242.884 345.038 243.692 345.178 244.476C345.357 244.368 345.543 244.27 345.733 244.182C347.824 243.167 350.349 243.35 353.47 244.689C355.49 245.572 356.5 246.363 356.601 247.164C356.605 247.37 356.554 247.573 356.453 247.752C356.351 247.93 356.203 248.078 356.025 248.179C354.48 249.193 349.086 249.051 346.279 247.55C345.633 247.198 345.095 246.675 344.723 246.038C343.077 247.56 341.744 250.269 340.532 254.519C340.495 254.611 340.433 254.691 340.352 254.749C340.271 254.806 340.176 254.839 340.077 254.844ZM345.551 245.379C345.833 245.904 346.261 246.334 346.784 246.617C349.066 247.834 353.551 248.108 355.227 247.428C355.571 247.286 355.621 247.175 355.621 247.175C355.621 247.175 355.571 246.606 353.096 245.541C350.268 244.324 348.046 244.151 346.198 245.014C345.975 245.122 345.759 245.244 345.551 245.379ZM348.925 238.714L349.177 238.785C352.466 239.546 355.851 239.803 359.217 239.546C358.023 239.101 356.793 238.762 355.54 238.531C353.365 237.939 351.064 238.003 348.925 238.714ZM350.197 233.013C350.664 233.18 351.149 233.29 351.642 233.337C356.692 233.936 361.126 233.236 361.742 232.597C361.57 232.445 360.893 232.008 358.388 231.531C355.57 230.967 352.643 231.496 350.197 233.013Z" fill="#263238"/>
<path d="M208.595 358.411C209.262 358.198 209.04 357.548 208.292 357.548H194.617C168.579 354.779 150.389 358.492 161.853 359.364C173.316 360.237 161.045 360.054 152.672 363.24C144.299 366.425 214.938 367.226 221.352 363.24C227.25 359.567 199.364 361.383 208.595 358.411Z" fill="#263238"/>
<path d="M306.505 362.458L187.527 358.492L182.588 242.62L323.089 245.775L306.505 362.458Z" fill="#407BFF"/>
<path d="M224.674 360.237C224.547 360.237 224.425 360.189 224.331 360.103C224.237 360.016 224.18 359.897 224.169 359.77L214.635 243.391C214.627 243.257 214.67 243.124 214.757 243.022C214.844 242.92 214.967 242.856 215.1 242.843C215.233 242.837 215.363 242.882 215.464 242.968C215.565 243.055 215.63 243.177 215.645 243.309L225.23 359.689C225.235 359.756 225.228 359.823 225.207 359.886C225.187 359.95 225.154 360.009 225.111 360.06C225.068 360.111 225.015 360.153 224.956 360.183C224.896 360.213 224.832 360.232 224.765 360.237H224.674Z" fill="#263238"/>
<path d="M306.505 362.458L338.481 357.559L348.551 249.822L323.089 245.775L306.505 362.458Z" fill="#407BFF"/>
<path opacity="0.2" d="M306.505 362.458L338.481 357.559L348.551 249.822L323.089 245.775L306.505 362.458Z" fill="#262626"/>
<path d="M197.687 336.163L194.758 267.312C194.686 265.611 194.962 263.913 195.569 262.324C196.176 260.734 197.101 259.286 198.287 258.07C199.473 256.854 200.895 255.895 202.465 255.253C204.035 254.611 205.719 254.299 207.414 254.337L296.354 256.366C298.105 256.405 299.828 256.818 301.41 257.575C302.991 258.332 304.394 259.418 305.527 260.76C306.66 262.102 307.496 263.67 307.982 265.361C308.467 267.051 308.59 268.826 308.343 270.568L298.485 339.897C298.059 342.933 296.531 345.705 294.196 347.68C291.861 349.655 288.881 350.694 285.83 350.599L209.686 348.063C206.56 347.966 203.586 346.686 201.361 344.479C199.136 342.272 197.823 339.302 197.687 336.163Z" fill="#263238"/>
<path d="M207.302 275.468L221.059 275.904L220.947 279.465L212.332 279.191L212.251 281.849L220.24 282.103L220.129 285.511L212.14 285.247L212.039 288.544L220.897 288.828L220.776 292.602L206.767 292.156L207.302 275.468Z" fill="white"/>
<path d="M223.614 292.694L224.139 276.006L232.704 276.28C233.932 276.273 235.154 276.451 236.33 276.807C237.163 277.087 237.876 277.646 238.35 278.39C238.701 278.931 238.937 279.54 239.044 280.177C239.15 280.815 239.125 281.467 238.97 282.094C238.814 282.721 238.532 283.31 238.141 283.823C237.749 284.335 237.256 284.762 236.693 285.075C236.119 285.372 235.502 285.577 234.865 285.684C235.335 285.836 235.78 286.054 236.188 286.333C236.483 286.608 236.747 286.914 236.976 287.246C237.236 287.562 237.466 287.901 237.663 288.26L239.996 293.181L234.199 292.988L231.613 287.804C231.408 287.309 231.106 286.86 230.724 286.485C230.362 286.222 229.929 286.073 229.482 286.059H229.027L228.815 292.825L223.614 292.694ZM229.088 282.934L231.25 283.005C231.708 282.977 232.164 282.913 232.613 282.813C232.951 282.761 233.258 282.584 233.472 282.316C233.69 282.045 233.814 281.71 233.825 281.362C233.844 281.13 233.811 280.897 233.729 280.679C233.647 280.461 233.518 280.265 233.35 280.104C232.787 279.738 232.121 279.564 231.452 279.607L229.189 279.536L229.088 282.934Z" fill="white"/>
<path d="M241.673 293.231L242.198 276.543L250.753 276.817C251.981 276.81 253.203 276.988 254.379 277.345C255.214 277.622 255.927 278.181 256.399 278.927C256.911 279.74 257.152 280.696 257.085 281.656C257.088 282.466 256.873 283.261 256.462 283.958C256.051 284.654 255.46 285.226 254.752 285.613C254.177 285.908 253.561 286.113 252.924 286.221C253.391 286.373 253.833 286.591 254.237 286.871C254.539 287.137 254.807 287.441 255.035 287.773C255.293 288.091 255.523 288.43 255.722 288.788L258.055 293.698L252.258 293.515L249.672 288.331C249.465 287.837 249.163 287.389 248.783 287.013C248.422 286.739 247.983 286.589 247.531 286.587H247.086L246.864 293.363L241.673 293.231ZM247.137 283.472L249.308 283.533C249.768 283.515 250.224 283.454 250.672 283.35C251.008 283.3 251.311 283.122 251.52 282.853C251.746 282.587 251.872 282.249 251.874 281.9C251.896 281.668 251.865 281.435 251.785 281.217C251.704 280.999 251.576 280.803 251.409 280.642C250.846 280.267 250.174 280.092 249.5 280.145L247.248 280.074L247.137 283.472Z" fill="white"/>
<path d="M258.883 285.481C258.805 284.316 258.985 283.149 259.41 282.062C259.834 280.976 260.493 279.997 261.339 279.197C262.185 278.397 263.197 277.795 264.302 277.434C265.407 277.074 266.578 276.963 267.731 277.111C268.894 277.073 270.053 277.269 271.139 277.689C272.225 278.109 273.216 278.744 274.053 279.556C274.8 280.42 275.365 281.428 275.712 282.518C276.059 283.608 276.182 284.757 276.073 285.897C276.082 287.554 275.694 289.189 274.942 290.665C274.261 291.872 273.243 292.852 272.013 293.485C270.564 294.181 268.96 294.488 267.357 294.378C265.759 294.391 264.178 294.044 262.731 293.363C261.499 292.692 260.494 291.668 259.843 290.421C259.079 288.894 258.747 287.185 258.883 285.481ZM264.014 285.663C263.862 286.942 264.151 288.234 264.832 289.326C265.151 289.683 265.537 289.972 265.969 290.175C266.401 290.379 266.87 290.493 267.347 290.511C267.824 290.529 268.299 290.451 268.745 290.28C269.191 290.109 269.598 289.85 269.943 289.518C270.691 288.379 271.046 287.025 270.953 285.663C271.088 284.441 270.792 283.209 270.114 282.184C269.808 281.829 269.43 281.545 269.004 281.351C268.579 281.157 268.117 281.057 267.65 281.058C267.179 281.024 266.706 281.097 266.267 281.273C265.828 281.449 265.434 281.722 265.115 282.072C264.35 283.108 263.962 284.375 264.014 285.663Z" fill="white"/>
<path d="M278.669 294.459L279.194 277.761L287.749 278.035C288.977 278.033 290.198 278.21 291.375 278.562C292.206 278.847 292.918 279.404 293.395 280.145C293.905 280.959 294.145 281.914 294.082 282.874C294.086 283.685 293.872 284.482 293.461 285.181C293.05 285.879 292.458 286.453 291.749 286.84C291.171 287.127 290.555 287.329 289.92 287.439C290.388 287.593 290.83 287.815 291.233 288.098C291.535 288.365 291.803 288.668 292.031 289.001C292.292 289.317 292.521 289.656 292.718 290.015L295.051 294.936L289.254 294.753L286.668 289.559C286.463 289.067 286.16 288.622 285.779 288.25C285.417 287.978 284.979 287.825 284.527 287.814H284.083L283.86 294.591L278.669 294.459ZM284.133 284.689L286.305 284.76C286.764 284.743 287.22 284.682 287.668 284.578C288.003 284.524 288.305 284.347 288.517 284.081C288.755 283.798 288.881 283.437 288.87 283.066C288.892 282.837 288.861 282.605 288.781 282.389C288.7 282.172 288.572 281.978 288.405 281.819C287.842 281.444 287.17 281.269 286.497 281.321L284.244 281.25L284.133 284.689Z" fill="white"/>
<path d="M286.84 322.813C286.65 322.817 286.462 322.78 286.288 322.704C286.114 322.629 285.958 322.518 285.83 322.377L277.184 312.871L267.852 321.433C267.593 321.671 267.251 321.796 266.901 321.781C266.551 321.766 266.221 321.612 265.983 321.352L257.338 311.847L248.005 320.409C247.747 320.647 247.405 320.772 247.054 320.757C246.704 320.741 246.374 320.587 246.137 320.328L237.481 310.822L228.159 319.384C228.023 319.508 227.863 319.602 227.689 319.662C227.516 319.721 227.332 319.744 227.149 319.729C226.798 319.708 226.469 319.552 226.23 319.293L217.584 309.797L208.262 318.349C208.002 318.588 207.658 318.713 207.306 318.698C206.954 318.683 206.622 318.528 206.383 318.268C206.265 318.14 206.174 317.989 206.115 317.824C206.055 317.66 206.029 317.485 206.038 317.311C206.046 317.136 206.089 316.965 206.164 316.807C206.239 316.649 206.344 316.508 206.474 316.392L216.776 306.927C217.036 306.688 217.38 306.563 217.732 306.578C218.084 306.593 218.416 306.748 218.655 307.008L227.3 316.513L236.623 307.951C236.887 307.718 237.23 307.594 237.582 307.606C237.934 307.625 238.264 307.782 238.501 308.042L247.147 317.548L256.479 308.986C256.607 308.867 256.756 308.774 256.92 308.714C257.083 308.654 257.257 308.626 257.43 308.634C257.604 308.641 257.775 308.684 257.932 308.758C258.09 308.832 258.231 308.937 258.348 309.067L266.993 318.573L276.326 310.011C276.584 309.773 276.926 309.647 277.277 309.663C277.627 309.678 277.957 309.832 278.194 310.092L287.85 320.622C288.022 320.816 288.135 321.056 288.174 321.312C288.213 321.569 288.177 321.832 288.07 322.069C287.963 322.305 287.79 322.506 287.571 322.645C287.353 322.784 287.099 322.857 286.84 322.854V322.813Z" fill="white"/>
<path d="M127.007 364.913L120.685 361.89L115.049 334.327L118.109 330.949L127.007 364.913Z" fill="#407BFF"/>
<path d="M127.007 364.913L135.401 359.993L128.209 337.29L118.109 330.949L127.007 364.913Z" fill="#407BFF"/>
<path opacity="0.2" d="M127.007 364.913L135.401 359.993L128.209 337.29L118.109 330.949L127.007 364.913Z" fill="#262626"/>
<path d="M264.62 369.935H263.923C262.584 369.899 261.314 369.329 260.392 368.353C259.471 367.376 258.973 366.071 259.009 364.726C259.046 363.38 259.612 362.105 260.585 361.179C261.558 360.254 262.856 359.754 264.196 359.79C271.973 360.044 288.436 355.246 297.849 346.075C298.417 345.515 299.109 345.098 299.869 344.857C315.817 340.049 321.746 349.757 321.988 350.173L313.302 355.337C313.332 355.401 313.37 355.463 313.413 355.519C313.322 355.388 311.06 352.476 303.869 354.262C292.062 365.076 273.942 369.935 264.62 369.935Z" fill="#263238"/>
<path d="M264.004 376.671L245.612 375.504L244.167 341.449L268.882 342.372L264.004 376.671Z" fill="#407BFF"/>
<path d="M264.004 376.671L268.306 372.37L270.973 351.137L268.882 342.372L264.004 376.671Z" fill="#407BFF"/>
<path opacity="0.2" d="M264.004 376.671L268.306 372.37L270.973 351.137L268.882 342.372L264.004 376.671Z" fill="#262626"/>
<path d="M370.579 363.777C369.919 363.777 369.277 363.559 368.751 363.158C358.247 355.144 344.057 340.911 338.613 327.185C338.531 326.987 338.473 326.779 338.441 326.567C335.785 310.7 333.249 277.314 333.138 275.904C333.109 275.505 333.157 275.103 333.282 274.722C333.407 274.341 333.605 273.989 333.865 273.685C334.391 273.072 335.138 272.693 335.941 272.633C336.745 272.572 337.539 272.835 338.15 273.363C338.761 273.891 339.138 274.641 339.198 275.448C339.198 275.782 341.794 309.493 344.38 325.228C349.813 338.578 364.58 352.283 372.437 358.309C372.943 358.695 373.316 359.23 373.503 359.84C373.689 360.45 373.68 361.103 373.477 361.707C373.274 362.312 372.887 362.837 372.37 363.208C371.854 363.58 371.234 363.779 370.599 363.777H370.579Z" fill="#263238"/>
<path d="M384.588 365.309C382.245 365.309 379.588 364.244 376.69 362.144C376.039 361.67 375.602 360.956 375.475 360.159C375.348 359.362 375.541 358.547 376.013 357.893C376.484 357.239 377.195 356.801 377.989 356.673C378.782 356.546 379.594 356.74 380.245 357.214C382.75 359.029 384.113 359.242 384.588 359.242C385.391 359.242 386.162 359.563 386.73 360.134C387.299 360.705 387.618 361.479 387.618 362.286C387.618 363.093 387.299 363.867 386.73 364.438C386.162 365.009 385.391 365.329 384.588 365.329V365.309Z" fill="#263238"/>
<path d="M377.538 362.053C380.78 352.385 394.072 354.292 398.657 355.732C402.574 356.874 406.331 358.511 409.838 360.602C412.312 362.225 412.353 364.954 409.05 366.506C405.01 368.413 394.748 366.719 394.748 366.719C400.041 369.042 394.748 372.806 385.446 369.113C382.426 367.916 376.397 365.603 377.538 362.053Z" fill="#407BFF"/>
<path d="M345.279 280.043C344.077 288.26 337.3 294.317 331.785 293.505C326.27 292.694 326.048 285.389 327.25 277.132C328.452 268.874 330.634 262.929 336.148 263.741C341.663 264.552 346.48 271.856 345.279 280.043Z" fill="#263238"/>
<path d="M211.979 247.266C212.436 247.266 212.807 246.893 212.807 246.434C212.807 245.975 212.436 245.602 211.979 245.602C211.521 245.602 211.151 245.975 211.151 246.434C211.151 246.893 211.521 247.266 211.979 247.266Z" fill="#263238"/>
<path d="M220.392 252.429C220.392 252.594 220.343 252.755 220.252 252.892C220.161 253.028 220.032 253.135 219.881 253.198C219.729 253.261 219.563 253.277 219.402 253.245C219.242 253.213 219.094 253.134 218.978 253.018C218.862 252.901 218.783 252.753 218.752 252.592C218.72 252.43 218.736 252.263 218.799 252.111C218.861 251.959 218.967 251.829 219.104 251.738C219.24 251.646 219.4 251.598 219.564 251.598C219.783 251.598 219.994 251.685 220.149 251.841C220.305 251.997 220.392 252.209 220.392 252.429Z" fill="#263238"/>
<path d="M221.321 350.731C221.321 350.896 221.273 351.057 221.182 351.193C221.091 351.33 220.961 351.437 220.81 351.5C220.659 351.563 220.492 351.579 220.331 351.547C220.171 351.515 220.023 351.436 219.907 351.319C219.792 351.203 219.713 351.055 219.681 350.893C219.649 350.732 219.665 350.565 219.728 350.413C219.791 350.261 219.897 350.131 220.033 350.04C220.169 349.948 220.329 349.899 220.493 349.899C220.713 349.899 220.923 349.987 221.079 350.143C221.234 350.299 221.321 350.511 221.321 350.731Z" fill="#263238"/>
<path d="M228.906 356.727C228.906 356.891 228.858 357.052 228.767 357.189C228.676 357.326 228.546 357.432 228.395 357.495C228.244 357.558 228.077 357.575 227.917 357.543C227.756 357.51 227.608 357.431 227.493 357.315C227.377 357.199 227.298 357.05 227.266 356.889C227.234 356.728 227.25 356.56 227.313 356.408C227.376 356.256 227.482 356.126 227.618 356.035C227.754 355.944 227.914 355.895 228.078 355.895C228.298 355.895 228.509 355.982 228.664 356.138C228.819 356.294 228.906 356.506 228.906 356.727Z" fill="#263238"/>
<path d="M83.3351 366.699C81.8811 366.631 80.4609 366.235 79.1795 365.542C77.898 364.848 76.7882 363.874 75.9318 362.692C75.8898 362.637 75.8593 362.575 75.8421 362.508C75.8249 362.442 75.8214 362.372 75.8317 362.304C75.8421 362.236 75.8662 362.171 75.9024 362.113C75.9387 362.054 75.9864 362.004 76.0427 361.964C76.099 361.925 76.1626 361.898 76.2297 361.884C76.2969 361.87 76.3661 361.87 76.4332 361.884C76.5003 361.898 76.5639 361.926 76.6201 361.965C76.6763 362.005 76.7239 362.055 76.76 362.113C78.6487 364.853 82.82 366.303 84.638 365.441C84.8201 365.363 84.9824 365.245 85.1127 365.096C84.1941 364.69 83.3892 364.063 82.7691 363.27C82.1491 362.478 81.7329 361.544 81.5575 360.551C81.3252 359.263 81.1434 357.508 82.1938 357.285C83.6482 356.96 85.547 360.48 86.2338 363.148C86.3582 363.59 86.4027 364.05 86.3651 364.508C86.9477 364.682 87.5604 364.73 88.1629 364.65C88.4344 364.629 88.6986 364.551 88.9386 364.422C89.1785 364.293 89.3891 364.115 89.5567 363.899C88.892 363.395 88.3406 362.756 87.9386 362.024C87.5365 361.291 87.2929 360.482 87.2236 359.648C86.8398 356.869 87.1327 356.392 87.4357 356.148C87.5339 356.073 87.651 356.026 87.7741 356.014C87.8972 356.001 88.0213 356.023 88.1326 356.077C89.2133 356.534 90.5162 360.47 90.7687 362.702C90.799 362.934 90.799 363.17 90.7687 363.402C91.2041 363.57 91.6658 363.659 92.1322 363.666C92.9886 363.699 93.8357 363.477 94.5663 363.027C94.4249 362.935 94.2936 362.834 94.1623 362.732C93.1523 361.829 92.6877 360.389 92.8695 358.34C93.0109 356.747 93.3644 355.875 94.0007 355.601C94.206 355.518 94.4308 355.497 94.6477 355.54C94.8647 355.583 95.0645 355.689 95.2228 355.844C95.9046 356.6 96.4141 357.497 96.7159 358.471C97.0176 359.445 97.1044 360.473 96.9701 361.485C96.8824 361.906 96.7069 362.303 96.455 362.651C98.3134 362.976 100.919 362.448 103.172 361.89C103.238 361.874 103.307 361.872 103.374 361.882C103.441 361.893 103.506 361.917 103.564 361.953C103.622 361.989 103.673 362.036 103.713 362.091C103.753 362.146 103.782 362.209 103.798 362.276C103.814 362.342 103.816 362.412 103.806 362.479C103.795 362.547 103.771 362.612 103.735 362.67C103.7 362.729 103.653 362.779 103.598 362.82C103.543 362.86 103.48 362.889 103.414 362.905C100.677 363.584 97.7276 364.142 95.647 363.534C94.6314 364.309 93.3877 364.723 92.112 364.711C91.5459 364.703 90.9854 364.597 90.4556 364.396C90.2206 364.761 89.9054 365.067 89.5342 365.29C89.163 365.514 88.7457 365.649 88.3144 365.684C87.5552 365.782 86.7839 365.717 86.052 365.492C85.8164 365.89 85.4635 366.206 85.042 366.395C84.5003 366.614 83.919 366.718 83.3351 366.699ZM82.4665 358.299C82.3268 358.989 82.3545 359.702 82.5473 360.379C82.6898 361.19 83.0249 361.955 83.5242 362.608C84.0236 363.261 84.6724 363.784 85.4157 364.132C85.4016 363.892 85.3609 363.654 85.2945 363.422C84.5067 360.521 82.9917 358.522 82.4665 358.299ZM88.0922 357.417C88.0988 358.116 88.1562 358.815 88.2639 359.506C88.3753 360.743 88.9192 361.9 89.7991 362.773C89.5506 360.9 88.9726 359.086 88.0922 357.417ZM94.4451 356.534C94.4451 356.534 94.0613 356.727 93.9199 358.421C93.7785 360.115 94.0714 361.282 94.8592 361.961C95.0456 362.113 95.249 362.242 95.4652 362.347C95.7308 362.061 95.9186 361.712 96.0106 361.332C96.1905 359.736 95.761 358.13 94.8087 356.838C94.5966 356.575 94.4754 356.534 94.4451 356.534Z" fill="#263238"/>
<path d="M231.159 374.358L233.896 369.59L231.159 364.832H228.23L229.886 369.59L228.23 374.358H231.159Z" fill="#263238"/>
<path d="M228.422 372.086C228.084 372.107 227.746 372.059 227.427 371.944C227.109 371.83 226.817 371.65 226.571 371.418C226.324 371.186 226.127 370.905 225.993 370.593C225.858 370.281 225.789 369.945 225.789 369.605C225.789 369.266 225.858 368.929 225.993 368.618C226.127 368.306 226.324 368.025 226.571 367.793C226.817 367.56 227.109 367.381 227.427 367.266C227.746 367.151 228.084 367.103 228.422 367.125L223.776 366.192L222.533 369.965L224.614 373.151L228.422 372.086Z" fill="#263238"/>
<path d="M228.826 364.832H223.341L220.604 369.6L223.341 374.368H228.826L231.563 369.6L228.826 364.832ZM226.089 372.086C225.599 372.088 225.119 371.944 224.711 371.672C224.303 371.4 223.984 371.012 223.795 370.558C223.606 370.104 223.556 369.604 223.65 369.122C223.745 368.639 223.979 368.195 224.325 367.846C224.671 367.498 225.112 367.26 225.592 367.163C226.072 367.067 226.57 367.115 227.023 367.303C227.476 367.491 227.863 367.809 228.135 368.218C228.408 368.627 228.553 369.108 228.553 369.6C228.553 370.258 228.294 370.888 227.832 371.354C227.37 371.82 226.743 372.083 226.089 372.086Z" fill="#407BFF"/>
<path d="M422.069 364.508L420.039 360.967L422.069 357.427H424.24L423.018 360.967L424.24 364.508H422.069Z" fill="#407BFF"/>
<path d="M424.099 362.814C424.351 362.832 424.605 362.799 424.843 362.715C425.082 362.631 425.301 362.498 425.486 362.325C425.671 362.152 425.819 361.943 425.92 361.71C426.021 361.478 426.073 361.226 426.073 360.972C426.073 360.718 426.021 360.467 425.92 360.234C425.819 360.001 425.671 359.792 425.486 359.619C425.301 359.446 425.082 359.314 424.843 359.23C424.605 359.146 424.351 359.112 424.099 359.131L427.553 358.441L428.472 361.241L426.937 363.605L424.099 362.814Z" fill="#407BFF"/>
<path d="M423.806 357.427H427.846L429.866 360.967L427.846 364.508H423.806L421.786 360.967L423.806 357.427ZM425.826 362.814C426.19 362.816 426.546 362.709 426.85 362.507C427.154 362.306 427.391 362.018 427.531 361.681C427.672 361.344 427.71 360.972 427.64 360.613C427.57 360.254 427.396 359.924 427.139 359.665C426.883 359.406 426.555 359.229 426.198 359.157C425.842 359.085 425.472 359.121 425.135 359.26C424.799 359.4 424.511 359.637 424.308 359.94C424.106 360.244 423.998 360.602 423.998 360.967C423.997 361.21 424.043 361.451 424.135 361.675C424.227 361.9 424.362 362.104 424.533 362.276C424.704 362.447 424.907 362.583 425.131 362.676C425.355 362.768 425.594 362.815 425.836 362.814H425.826Z" fill="#263238"/>
<path d="M346.43 369.215H350.995C351.567 369.212 352.114 368.982 352.517 368.575C352.92 368.169 353.146 367.618 353.146 367.044C353.146 366.47 352.92 365.919 352.517 365.512C352.114 365.105 351.567 364.876 350.995 364.873H346.43C345.857 364.873 345.307 365.102 344.902 365.509C344.496 365.916 344.269 366.468 344.269 367.044C344.269 367.62 344.496 368.172 344.902 368.579C345.307 368.986 345.857 369.215 346.43 369.215Z" fill="#263238"/>
<path d="M339.087 365.116C339.511 364.342 340.151 363.71 340.928 363.297C341.705 362.884 342.586 362.708 343.461 362.792C344.337 362.876 345.168 363.215 345.854 363.768C346.54 364.321 347.05 365.063 347.32 365.903C347.591 366.743 347.611 367.645 347.378 368.496C347.145 369.348 346.668 370.112 346.008 370.695C345.347 371.278 344.531 371.654 343.66 371.777C342.79 371.9 341.902 371.764 341.107 371.386C340.015 370.82 339.19 369.843 338.811 368.669C338.433 367.495 338.532 366.218 339.087 365.116Z" fill="#407BFF"/>
<path d="M340.319 371.385L341.571 371.977L345.92 362.709L344.669 362.117L340.319 371.385Z" fill="#263238"/>
</g>
<defs>
<clipPath id="clip0_1975_23952">
<rect width="505" height="378" fill="white"/>
</clipPath>
</defs>
</svg>
