<svg width="193" height="193" viewBox="0 0 193 193" fill="none" xmlns="http://www.w3.org/2000/svg">
<path fill-rule="evenodd" clip-rule="evenodd" d="M0 96.5C0 43.2045 43.2046 0 96.5 0C149.796 0 193 43.2045 193 96.5C193 149.795 149.796 193 96.5 193C43.2046 193 0 149.795 0 96.5ZM96.5 28.95C59.1932 28.95 28.95 59.1932 28.95 96.5C28.95 133.807 59.1932 164.05 96.5 164.05C133.807 164.05 164.05 133.807 164.05 96.5C164.05 59.1932 133.807 28.95 96.5 28.95Z" fill="url(#paint0_linear_578_1155)" fill-opacity="0.4"/>
<path d="M130.288 96.4995C130.288 115.153 115.166 130.275 96.5126 130.275C77.8592 130.275 62.7376 115.153 62.7376 96.4995C62.7376 77.8461 77.8592 62.7245 96.5126 62.7245C115.166 62.7245 130.288 77.8461 130.288 96.4995Z" fill="url(#paint1_linear_578_1155)" fill-opacity="0.4"/>
<defs>
<linearGradient id="paint0_linear_578_1155" x1="149.853" y1="1.29103e-05" x2="12.5246" y2="201.816" gradientUnits="userSpaceOnUse">
<stop stop-color="#2F61E6"/>
<stop offset="1" stop-color="#6AE2F8"/>
</linearGradient>
<linearGradient id="paint1_linear_578_1155" x1="149.853" y1="1.29103e-05" x2="12.5246" y2="201.816" gradientUnits="userSpaceOnUse">
<stop stop-color="#2F61E6"/>
<stop offset="1" stop-color="#6AE2F8"/>
</linearGradient>
</defs>
</svg>
