<svg width="24" height="24" viewBox="0 0 24 24" fill="none" xmlns="http://www.w3.org/2000/svg">
<path d="M10.5938 3.5625H23.25L22.7812 4.5L23.25 5.4375V7.3125L22.7812 8.25L23.25 9.1875V11.0625L22.7812 12L23.25 12.9375V14.8125L22.7812 15.75L23.25 16.6875V18.5625L22.7812 19.5L23.25 20.4375H0.75L1.21875 19.5L0.75 18.5625V16.6875L1.21875 15.75L0.75 14.8125V12.9375L1.21875 12L0.75 11.0625L10.5938 3.5625Z" fill="#D6062F"/>
<path d="M0.75 18.5625H23.25V20.4375H0.75V18.5625Z" fill="white"/>
<path d="M0.75 14.8125H23.25V16.6875H0.75V14.8125Z" fill="white"/>
<path d="M0.75 11.0625H23.25V12.9375H0.75V11.0625Z" fill="white"/>
<path d="M10.5938 7.3125H23.25V9.1875H10.5938V7.3125Z" fill="white"/>
<path d="M10.5938 3.5625H23.25V5.4375H10.5938V3.5625Z" fill="white"/>
<path d="M0.75 3.5625H10.5938V11.0625H0.75V3.5625Z" fill="#2956B0"/>
<path d="M2.39878 4.00171L2.54761 4.45977H3.02925L2.63958 4.7429L2.78845 5.20096L2.39878 4.91783L2.00911 5.20096L2.15798 4.7429L1.76831 4.45977H2.24995L2.39878 4.00171Z" fill="white"/>
<path d="M4.58042 4.00171L4.72925 4.45977H5.21089L4.82122 4.7429L4.97009 5.20096L4.58042 4.91783L4.19079 5.20096L4.33962 4.7429L3.94995 4.45977H4.43159L4.58042 4.00171Z" fill="white"/>
<path d="M6.76279 4.00171L6.91162 4.45977H7.39326L7.00364 4.7429L7.15246 5.20096L6.76279 4.91783L6.37317 5.20096L6.522 4.7429L6.13232 4.45977H6.61397L6.76279 4.00171Z" fill="white"/>
<path d="M8.94492 4.00171L9.09375 4.45977H9.57539L9.18577 4.7429L9.33459 5.20096L8.94492 4.91783L8.5553 5.20096L8.70413 4.7429L8.31445 4.45977H8.79609L8.94492 4.00171Z" fill="white"/>
<path d="M2.39878 5.80917L2.54761 6.26724H3.02925L2.63958 6.55031L2.78845 7.00838L2.39878 6.7253L2.00911 7.00838L2.15798 6.55031L1.76831 6.26724H2.24995L2.39878 5.80917Z" fill="white"/>
<path d="M4.58042 5.80917L4.72925 6.26724H5.21089L4.82122 6.55031L4.97009 7.00838L4.58042 6.7253L4.19079 7.00838L4.33962 6.55031L3.94995 6.26724H4.43159L4.58042 5.80917Z" fill="white"/>
<path d="M6.76279 5.80917L6.91162 6.26724H7.39326L7.00364 6.55031L7.15246 7.00838L6.76279 6.7253L6.37317 7.00838L6.522 6.55031L6.13232 6.26724H6.61397L6.76279 5.80917Z" fill="white"/>
<path d="M8.94492 5.80917L9.09375 6.26724H9.57539L9.18577 6.55031L9.33459 7.00838L8.94492 6.7253L8.5553 7.00838L8.70413 6.55031L8.31445 6.26724H8.79609L8.94492 5.80917Z" fill="white"/>
<path d="M2.39878 7.61661L2.54761 8.07467H3.02925L2.63958 8.35775L2.78845 8.81581L2.39878 8.53273L2.00911 8.81581L2.15798 8.35775L1.76831 8.07467H2.24995L2.39878 7.61661Z" fill="white"/>
<path d="M4.58042 7.61661L4.72925 8.07467H5.21089L4.82122 8.35775L4.97009 8.81581L4.58042 8.53273L4.19079 8.81581L4.33962 8.35775L3.94995 8.07467H4.43159L4.58042 7.61661Z" fill="white"/>
<path d="M6.76279 7.61661L6.91162 8.07467H7.39326L7.00364 8.35775L7.15246 8.81581L6.76279 8.53273L6.37317 8.81581L6.522 8.35775L6.13232 8.07467H6.61397L6.76279 7.61661Z" fill="white"/>
<path d="M8.94492 7.61661L9.09375 8.07467H9.57539L9.18577 8.35775L9.33459 8.81581L8.94492 8.53273L8.5553 8.81581L8.70413 8.35775L8.31445 8.07467H8.79609L8.94492 7.61661Z" fill="white"/>
<path d="M2.39878 9.42401L2.54761 9.88207H3.02925L2.63958 10.1652L2.78845 10.6233L2.39878 10.3401L2.00911 10.6233L2.15798 10.1652L1.76831 9.88207H2.24995L2.39878 9.42401Z" fill="white"/>
<path d="M4.58042 9.42401L4.72925 9.88207H5.21089L4.82122 10.1652L4.97009 10.6233L4.58042 10.3401L4.19079 10.6233L4.33962 10.1652L3.94995 9.88207H4.43159L4.58042 9.42401Z" fill="white"/>
<path d="M6.76279 9.42401L6.91162 9.88207H7.39326L7.00364 10.1652L7.15246 10.6233L6.76279 10.3401L6.37317 10.6233L6.522 10.1652L6.13232 9.88207H6.61397L6.76279 9.42401Z" fill="white"/>
<path d="M8.94492 9.42401L9.09375 9.88207H9.57539L9.18577 10.1652L9.33459 10.6233L8.94492 10.3401L8.5553 10.6233L8.70413 10.1652L8.31445 9.88207H8.79609L8.94492 9.42401Z" fill="white"/>
</svg>
