<svg width="32" height="32" viewBox="0 0 32 32" fill="none" xmlns="http://www.w3.org/2000/svg" id='LinkedIn-icon'>
<rect x="0.5" y="0.5" width="31" height="31" rx="3.5" stroke="currentColor"/>
<path d="M22.3999 22.3995V17.7115C22.3999 15.4075 21.9039 13.6475 19.2159 13.6475C17.9199 13.6475 17.0559 14.3515 16.7039 15.0235H16.6719V13.8555H14.1279V22.3995H16.7839V18.1595C16.7839 17.0395 16.9919 15.9675 18.3679 15.9675C19.7279 15.9675 19.7439 17.2315 19.7439 18.2235V22.3835H22.3999V22.3995Z" fill="currentcolor"/>
<path d="M9.80762 13.8556H12.4636V22.3996H9.80762V13.8556Z" fill="currentcolor"/>
<path d="M11.1356 9.59961C10.2876 9.59961 9.59961 10.2876 9.59961 11.1356C9.59961 11.9836 10.2876 12.6876 11.1356 12.6876C11.9836 12.6876 12.6716 11.9836 12.6716 11.1356C12.6716 10.2876 11.9836 9.59961 11.1356 9.59961Z" fill="currentcolor"/>
</svg>
