<svg xmlns="http://www.w3.org/2000/svg" width="12" height="12" viewBox="0 0 12 12" fill="none">
  <path d="M6 0.375C4.90598 0.375 3.85677 0.809597 3.08318 1.58318C2.3096 2.35677 1.875 3.40598 1.875 4.5C1.875 6.67875 5.55 11.2875 5.7075 11.4862C5.74264 11.53 5.78716 11.5654 5.83779 11.5897C5.88841 11.614 5.94385 11.6266 6 11.6266C6.05615 11.6266 6.11158 11.614 6.16221 11.5897C6.21284 11.5654 6.25736 11.53 6.2925 11.4862C6.45 11.2875 10.125 6.67875 10.125 4.5C10.125 3.40598 9.6904 2.35677 8.91682 1.58318C8.14323 0.809597 7.09402 0.375 6 0.375ZM6 5.625C5.70333 5.625 5.41332 5.53703 5.16664 5.3722C4.91997 5.20738 4.72771 4.97311 4.61418 4.69903C4.50065 4.42494 4.47094 4.12334 4.52882 3.83236C4.5867 3.54139 4.72956 3.27412 4.93934 3.06434C5.14912 2.85456 5.41639 2.7117 5.70736 2.65382C5.99834 2.59594 6.29994 2.62565 6.57403 2.73918C6.84811 2.85271 7.08238 3.04497 7.2472 3.29164C7.41203 3.53832 7.5 3.82833 7.5 4.125C7.5 4.52282 7.34196 4.90436 7.06066 5.18566C6.77936 5.46696 6.39782 5.625 6 5.625Z" fill="#FA8C16"/>
</svg>