<svg width="189" height="51" viewBox="0 0 189 51" fill="none" xmlns="http://www.w3.org/2000/svg">
<g filter="url(#filter0_d_501_9383)">
<rect x="2" width="48" height="48" rx="11.5067" fill="#2F61E6"/>
</g>
<path d="M63.8008 31.293V17.829H67.7048V31.293H63.8008ZM65.7528 15.952C65.0354 15.952 64.4514 15.7435 64.001 15.3264C63.5505 14.9093 63.3253 14.3921 63.3253 13.7748C63.3253 13.1575 63.5505 12.6403 64.001 12.2232C64.4514 11.8061 65.0354 11.5975 65.7528 11.5975C66.4702 11.5975 67.0542 11.7977 67.5046 12.1981C67.9551 12.5819 68.1803 13.0824 68.1803 13.6997C68.1803 14.3504 67.9551 14.8926 67.5046 15.3264C67.0708 15.7435 66.4869 15.952 65.7528 15.952ZM80.4876 31.5933C79.1362 31.5933 77.8766 31.3764 76.7087 30.9426C75.5575 30.4921 74.5565 29.8581 73.7056 29.0406C72.8547 28.2231 72.1873 27.2638 71.7035 26.1626C71.2364 25.0615 71.0028 23.8519 71.0028 22.5339C71.0028 21.2158 71.2364 20.0062 71.7035 18.9051C72.1873 17.804 72.8547 16.8446 73.7056 16.0271C74.5732 15.2096 75.5825 14.5839 76.7337 14.1502C77.8849 13.6997 79.1446 13.4745 80.5127 13.4745C82.0309 13.4745 83.399 13.7414 84.6169 14.2753C85.8515 14.7925 86.8859 15.56 87.7201 16.5777L85.1174 18.9802C84.5168 18.2961 83.8495 17.7873 83.1154 17.4536C82.3813 17.1032 81.5804 16.9281 80.7129 16.9281C79.8954 16.9281 79.1446 17.0615 78.4605 17.3285C77.7765 17.5954 77.1842 17.9791 76.6837 18.4797C76.1832 18.9802 75.7911 19.5725 75.5075 20.2565C75.2405 20.9406 75.107 21.6997 75.107 22.5339C75.107 23.3681 75.2405 24.1272 75.5075 24.8112C75.7911 25.4953 76.1832 26.0876 76.6837 26.5881C77.1842 27.0886 77.7765 27.4723 78.4605 27.7393C79.1446 28.0062 79.8954 28.1397 80.7129 28.1397C81.5804 28.1397 82.3813 27.9729 83.1154 27.6392C83.8495 27.2888 84.5168 26.7633 85.1174 26.0625L87.7201 28.465C86.8859 29.4828 85.8515 30.2586 84.6169 30.7924C83.399 31.3263 82.0226 31.5933 80.4876 31.5933ZM99.1007 31.5933C97.7159 31.5933 96.4313 31.368 95.2467 30.9176C94.0788 30.4671 93.0611 29.8331 92.1935 29.0156C91.3427 28.1981 90.6753 27.2388 90.1915 26.1376C89.7243 25.0365 89.4907 23.8352 89.4907 22.5339C89.4907 21.2325 89.7243 20.0313 90.1915 18.9301C90.6753 17.829 91.351 16.8697 92.2186 16.0521C93.0861 15.2346 94.1039 14.6006 95.2717 14.1502C96.4396 13.6997 97.7076 13.4745 99.0757 13.4745C100.46 13.4745 101.728 13.6997 102.88 14.1502C104.048 14.6006 105.057 15.2346 105.908 16.0521C106.775 16.8697 107.451 17.829 107.935 18.9301C108.419 20.0146 108.661 21.2158 108.661 22.5339C108.661 23.8352 108.419 25.0448 107.935 26.1626C107.451 27.2638 106.775 28.2231 105.908 29.0406C105.057 29.8415 104.048 30.4671 102.88 30.9176C101.728 31.368 100.469 31.5933 99.1007 31.5933ZM99.0757 28.1397C99.8598 28.1397 100.577 28.0062 101.228 27.7393C101.895 27.4723 102.479 27.0886 102.98 26.5881C103.48 26.0876 103.864 25.4953 104.131 24.8112C104.415 24.1272 104.556 23.3681 104.556 22.5339C104.556 21.6997 104.415 20.9406 104.131 20.2565C103.864 19.5725 103.48 18.9802 102.98 18.4797C102.496 17.9791 101.92 17.5954 101.253 17.3285C100.586 17.0615 99.8598 16.9281 99.0757 16.9281C98.2915 16.9281 97.5658 17.0615 96.8984 17.3285C96.2478 17.5954 95.6722 17.9791 95.1716 18.4797C94.6711 18.9802 94.279 19.5725 93.9954 20.2565C93.7285 20.9406 93.595 21.6997 93.595 22.5339C93.595 23.3514 93.7285 24.1105 93.9954 24.8112C94.279 25.4953 94.6628 26.0876 95.1466 26.5881C95.6471 27.0886 96.2311 27.4723 96.8984 27.7393C97.5658 28.0062 98.2915 28.1397 99.0757 28.1397ZM112.208 31.293V13.7748H115.562L125.897 26.3879H124.271V13.7748H128.275V31.293H124.946L114.586 18.6799H116.212V31.293H112.208ZM141.379 31.5933C139.994 31.5933 138.718 31.3764 137.55 30.9426C136.399 30.4921 135.389 29.8581 134.522 29.0406C133.671 28.2231 133.003 27.2638 132.52 26.1626C132.052 25.0615 131.819 23.8519 131.819 22.5339C131.819 21.2158 132.052 20.0062 132.52 18.9051C133.003 17.804 133.679 16.8446 134.547 16.0271C135.414 15.2096 136.432 14.5839 137.6 14.1502C138.768 13.6997 140.052 13.4745 141.454 13.4745C143.005 13.4745 144.399 13.7331 145.633 14.2503C146.885 14.7675 147.936 15.5183 148.786 16.5026L146.184 18.9051C145.55 18.2377 144.857 17.7456 144.107 17.4286C143.356 17.0949 142.538 16.9281 141.654 16.9281C140.803 16.9281 140.027 17.0615 139.327 17.3285C138.626 17.5954 138.017 17.9791 137.5 18.4797C136.999 18.9802 136.607 19.5725 136.324 20.2565C136.057 20.9406 135.923 21.6997 135.923 22.5339C135.923 23.3514 136.057 24.1022 136.324 24.7862C136.607 25.4703 136.999 26.0709 137.5 26.5881C138.017 27.0886 138.618 27.4723 139.302 27.7393C140.002 28.0062 140.77 28.1397 141.604 28.1397C142.405 28.1397 143.181 28.0146 143.931 27.7643C144.699 27.4974 145.441 27.0552 146.159 26.4379L148.461 29.366C147.51 30.0834 146.401 30.634 145.133 31.0177C143.881 31.4014 142.63 31.5933 141.379 31.5933ZM144.757 28.8404V22.2586H148.461V29.366L144.757 28.8404ZM156.356 31.293V17.0782H150.751V13.7748H166.016V17.0782H160.411V31.293H156.356ZM172.711 31.293V24.1355L173.637 26.5881L165.929 13.7748H170.233L176.139 23.61H173.662L179.593 13.7748H183.572L175.864 26.5881L176.765 24.1355V31.293H172.711Z" fill="white"/>
<rect x="33.4991" y="35.7415" width="6" height="7.69963" transform="rotate(-45 33.4991 35.7415)" fill="white"/>
<path fill-rule="evenodd" clip-rule="evenodd" d="M14.6566 23.2488C14.6566 17.3987 19.399 12.6563 25.2491 12.6563C31.0991 12.6563 35.8416 17.3987 35.8416 23.2488C35.8416 24.2475 35.7034 25.2139 35.445 26.1299L39.6143 27.247C39.9677 25.9746 40.1566 24.6338 40.1566 23.2488C40.1566 15.0156 33.4822 8.34131 25.2491 8.34131C17.0159 8.34131 10.3416 15.0156 10.3416 23.2488C10.3416 31.482 17.0159 38.1563 25.2491 38.1563C26.6345 38.1563 27.9757 37.9673 29.2485 37.6137L28.1313 33.4445C27.2149 33.703 26.2481 33.8413 25.2491 33.8413C19.399 33.8413 14.6566 29.0989 14.6566 23.2488Z" fill="white"/>
<path fill-rule="evenodd" clip-rule="evenodd" d="M30.2839 24.7471C30.4251 24.2722 30.5009 23.7692 30.5009 23.2485C30.5009 20.349 28.1504 17.9985 25.2509 17.9985C22.3514 17.9985 20.0009 20.349 20.0009 23.2485C20.0009 26.148 22.3514 28.4985 25.2509 28.4985C25.7711 28.4985 26.2736 28.4229 26.748 28.282L25.454 23.4529L30.2839 24.7471Z" fill="white"/>
<defs>
<filter id="filter0_d_501_9383" x="0.561667" y="0" width="50.8767" height="50.8767" filterUnits="userSpaceOnUse" color-interpolation-filters="sRGB">
<feFlood flood-opacity="0" result="BackgroundImageFix"/>
<feColorMatrix in="SourceAlpha" type="matrix" values="0 0 0 0 0 0 0 0 0 0 0 0 0 0 0 0 0 0 127 0" result="hardAlpha"/>
<feOffset dy="1.43833"/>
<feGaussianBlur stdDeviation="0.719167"/>
<feComposite in2="hardAlpha" operator="out"/>
<feColorMatrix type="matrix" values="0 0 0 0 0 0 0 0 0 0 0 0 0 0 0 0 0 0 0.25 0"/>
<feBlend mode="normal" in2="BackgroundImageFix" result="effect1_dropShadow_501_9383"/>
<feBlend mode="normal" in="SourceGraphic" in2="effect1_dropShadow_501_9383" result="shape"/>
</filter>
</defs>
</svg>
