<svg xmlns="http://www.w3.org/2000/svg" width="12" height="12" viewBox="0 0 12 12" fill="none">
  <path d="M2.25 6.375C1.42291 6.375 0.75 5.70227 0.75 4.875C0.75 4.04773 1.42291 3.375 2.25 3.375C3.07709 3.375 3.75 4.04773 3.75 4.875C3.75 5.70227 3.07709 6.375 2.25 6.375ZM2.91376 6.62622C2.48621 6.79138 2.01379 6.79138 1.58624 6.62622C1.47748 6.58484 1.3537 6.59985 1.25629 6.65991C0.704956 7.00891 0.375 7.60107 0.375 8.25V9.75C0.375 9.95618 0.543823 10.125 0.75 10.125H2.625V8.25C2.625 7.66882 2.77881 7.10266 3.05621 6.60754C3.00751 6.59985 2.9588 6.60754 2.91376 6.62622ZM9.75 6.375C10.5771 6.375 11.25 5.70227 11.25 4.875C11.25 4.04773 10.5771 3.375 9.75 3.375C8.92291 3.375 8.25 4.04773 8.25 4.875C8.25 5.70227 8.92291 6.375 9.75 6.375ZM10.7437 6.65991C10.6463 6.59985 10.5225 6.58484 10.4138 6.62622C9.98621 6.79138 9.51379 6.79138 9.08624 6.62622C9.0412 6.60754 8.99249 6.59985 8.94379 6.60754C9.22119 7.10266 9.375 7.66882 9.375 8.25V10.125H11.25C11.4562 10.125 11.625 9.95618 11.625 9.75V8.25C11.625 7.60107 11.295 7.00891 10.7437 6.65991ZM6 5.625C4.96619 5.625 4.125 4.78381 4.125 3.75C4.125 2.71619 4.96619 1.875 6 1.875C7.03381 1.875 7.875 2.71619 7.875 3.75C7.875 4.78381 7.03381 5.625 6 5.625ZM8.625 8.25C8.625 7.41357 8.22382 6.62622 7.54871 6.13513C7.43628 6.05237 7.28632 6.04138 7.16254 6.10107C6.91132 6.22888 6.64508 6.30762 6.375 6.34497V8.25C6.375 8.45618 6.20618 8.625 6 8.625C5.79382 8.625 5.625 8.45618 5.625 8.25V6.34497C5.35492 6.30762 5.08868 6.22888 4.83746 6.10107C4.71368 6.04138 4.56372 6.05237 4.45129 6.13513C3.77618 6.62622 3.375 7.41357 3.375 8.25V10.125H8.625V8.25Z" fill="#FA8C16"/>
</svg>