<svg width="226" height="167" viewBox="0 0 226 167" fill="none" xmlns="http://www.w3.org/2000/svg">
<g filter="url(#filter0_d_467_46052)">
<rect x="11" y="49.5459" width="203.378" height="60.8317" rx="7.54393" fill="white" shape-rendering="crispEdges"/>
<path d="M65.7339 70.2618H63.6685L60.3346 64.4642H60.2874C60.3014 64.7053 60.3136 64.9482 60.3241 65.1928C60.3346 65.4375 60.3451 65.6821 60.3556 65.9267C60.3661 66.1678 60.3766 66.4107 60.387 66.6554V70.2618H58.935V62.5981H60.9846L64.3133 68.338H64.35C64.343 68.1004 64.3343 67.8645 64.3238 67.6304C64.3133 67.3962 64.3028 67.1621 64.2923 66.9279C64.2853 66.6938 64.2783 66.4597 64.2713 66.2255V62.5981H65.7339V70.2618ZM69.2565 72.8409C68.4387 72.8409 67.8132 72.6976 67.3798 72.4111C66.95 72.128 66.7351 71.7296 66.7351 71.2159C66.7351 70.8629 66.8452 70.5676 67.0653 70.33C67.2855 70.0923 67.6087 69.9229 68.0351 69.8215C67.8708 69.7516 67.7276 69.638 67.6053 69.4808C67.4829 69.32 67.4218 69.1505 67.4218 68.9723C67.4218 68.7487 67.4864 68.5634 67.6157 68.4167C67.745 68.2664 67.932 68.1196 68.1766 67.9763C67.8691 67.8435 67.6245 67.6304 67.4428 67.3368C67.2645 67.0433 67.1754 66.6973 67.1754 66.2989C67.1754 65.8725 67.268 65.5109 67.4532 65.2138C67.6419 64.9133 67.9145 64.6844 68.271 64.5271C68.6309 64.3698 69.0678 64.2912 69.5815 64.2912C69.6898 64.2912 69.8156 64.2982 69.9589 64.3122C70.1022 64.3262 70.2332 64.3419 70.3521 64.3594C70.4744 64.3768 70.5565 64.3908 70.5984 64.4013H72.6428V65.2138L71.7255 65.4497C71.8093 65.579 71.8722 65.717 71.9142 65.8638C71.9561 66.0106 71.9771 66.1661 71.9771 66.3303C71.9771 66.9594 71.7569 67.4504 71.3166 67.8033C70.8797 68.1528 70.2717 68.3275 69.4924 68.3275C69.3072 68.3171 69.1324 68.3031 68.9682 68.2856C68.8878 68.3485 68.8266 68.4149 68.7847 68.4848C68.7428 68.5547 68.7218 68.6281 68.7218 68.705C68.7218 68.7819 68.7532 68.8465 68.8162 68.8989C68.8826 68.9478 68.9804 68.9863 69.1097 69.0142C69.2425 69.0387 69.4068 69.0509 69.6025 69.0509H70.5984C71.2414 69.0509 71.7307 69.189 72.0662 69.4651C72.4052 69.7411 72.5747 70.1465 72.5747 70.6812C72.5747 71.3662 72.2881 71.8973 71.715 72.2748C71.1453 72.6522 70.3258 72.8409 69.2565 72.8409ZM69.3246 71.7977C69.7055 71.7977 70.0323 71.761 70.3049 71.6877C70.581 71.6178 70.7924 71.5164 70.9392 71.3836C71.0859 71.2543 71.1593 71.0988 71.1593 70.9171C71.1593 70.7703 71.1156 70.6532 71.0283 70.5659C70.9444 70.482 70.8151 70.4226 70.6404 70.3876C70.4691 70.3527 70.249 70.3352 69.9799 70.3352H69.1516C68.9559 70.3352 68.7795 70.3667 68.6222 70.4296C68.4684 70.4925 68.3461 70.5799 68.2553 70.6917C68.1644 70.807 68.119 70.9398 68.119 71.0901C68.119 71.3102 68.2238 71.4832 68.4335 71.609C68.6467 71.7348 68.9437 71.7977 69.3246 71.7977ZM69.5815 67.3525C69.882 67.3525 70.1022 67.2599 70.242 67.0747C70.3818 66.8895 70.4517 66.6379 70.4517 66.3199C70.4517 65.9669 70.3783 65.7031 70.2315 65.5283C70.0882 65.3501 69.8715 65.261 69.5815 65.261C69.2879 65.261 69.0678 65.3501 68.921 65.5283C68.7742 65.7031 68.7008 65.9669 68.7008 66.3199C68.7008 66.6379 68.7725 66.8895 68.9158 67.0747C69.0625 67.2599 69.2844 67.3525 69.5815 67.3525ZM78.9909 64.4013V70.2618H77.7642L77.5493 69.5122H77.4654C77.3396 69.7114 77.1824 69.8739 76.9937 69.9997C76.8049 70.1255 76.597 70.2182 76.3699 70.2776C76.1427 70.337 75.9068 70.3667 75.6622 70.3667C75.2428 70.3667 74.8776 70.2933 74.5666 70.1465C74.2556 69.9962 74.0127 69.7639 73.838 69.4493C73.6667 69.1348 73.5811 68.7259 73.5811 68.2227V64.4013H75.1799V67.8243C75.1799 68.2437 75.2551 68.5599 75.4053 68.7731C75.5556 68.9863 75.795 69.0929 76.1235 69.0929C76.4485 69.0929 76.7036 69.0195 76.8888 68.8727C77.074 68.7224 77.2033 68.504 77.2767 68.2175C77.3536 67.9274 77.392 67.5744 77.392 67.1586V64.4013H78.9909ZM79.8296 64.4013H81.5804L82.6865 67.6985C82.7214 67.8033 82.7511 67.9099 82.7756 68.0183C82.8 68.1266 82.821 68.2384 82.8385 68.3538C82.8559 68.4691 82.8699 68.5896 82.8804 68.7155H82.9119C82.9328 68.5267 82.9608 68.3503 82.9957 68.186C83.0342 68.0218 83.0814 67.8593 83.1373 67.6985L84.2224 64.4013H85.9365L83.457 71.0114C83.3068 71.4168 83.1111 71.7541 82.8699 72.0231C82.6288 72.2957 82.351 72.5002 82.0364 72.6365C81.7254 72.7728 81.3829 72.8409 81.009 72.8409C80.8273 72.8409 80.67 72.8304 80.5372 72.8094C80.4044 72.792 80.2909 72.7728 80.1965 72.7518V71.4832C80.2699 71.5007 80.3625 71.5164 80.4743 71.5304C80.5862 71.5444 80.7032 71.5514 80.8255 71.5514C81.0492 71.5514 81.2414 71.5042 81.4022 71.4098C81.5629 71.3155 81.6975 71.1879 81.8058 71.0272C81.9141 70.8699 81.9998 70.6969 82.0627 70.5082L82.157 70.2199L79.8296 64.4013ZM89.197 64.2912C89.7387 64.2912 90.2052 64.3961 90.5966 64.6057C90.988 64.8119 91.2903 65.1125 91.5035 65.5074C91.7167 65.9023 91.8232 66.3845 91.8232 66.9541V67.73H88.0438C88.0612 68.1808 88.1958 68.5355 88.4474 68.7941C88.7025 69.0492 89.0555 69.1767 89.5063 69.1767C89.8802 69.1767 90.2227 69.1383 90.5337 69.0614C90.8447 68.9845 91.1645 68.8692 91.493 68.7155V69.9526C91.2029 70.0958 90.8989 70.2007 90.5809 70.2671C90.2664 70.3335 89.8837 70.3667 89.4329 70.3667C88.8458 70.3667 88.3251 70.2583 87.8708 70.0417C87.42 69.825 87.0653 69.4948 86.8067 69.0509C86.5515 68.6071 86.424 68.048 86.424 67.3735C86.424 66.6886 86.5393 66.1189 86.77 65.6646C87.0041 65.2068 87.3291 64.8643 87.745 64.6372C88.1608 64.4065 88.6448 64.2912 89.197 64.2912ZM89.2075 65.4287C88.8965 65.4287 88.6379 65.5283 88.4317 65.7275C88.229 65.9267 88.1119 66.2395 88.0805 66.6658H90.324C90.3205 66.4282 90.2769 66.2168 90.193 66.0316C90.1126 65.8463 89.9903 65.6996 89.826 65.5912C89.6653 65.4829 89.4591 65.4287 89.2075 65.4287ZM89.9361 62.2521C90.048 62.4128 90.172 62.5718 90.3083 62.7291C90.4481 62.8864 90.5914 63.0401 90.7382 63.1904C90.8884 63.3372 91.0334 63.4787 91.1732 63.615V63.7565H90.4289C90.2157 63.6482 90.006 63.5311 89.7998 63.4053C89.5971 63.276 89.4032 63.1275 89.218 62.9598C89.0293 63.1275 88.8301 63.276 88.6204 63.4053C88.4142 63.5311 88.208 63.6482 88.0018 63.7565H87.2627V63.615C87.392 63.4857 87.5301 63.3477 87.6768 63.2009C87.8271 63.0506 87.9739 62.8951 88.1172 62.7343C88.2604 62.5736 88.388 62.4128 88.4998 62.2521H89.9361ZM91.1523 60.7162C91.1278 60.9468 91.0701 61.1565 90.9793 61.3452C90.8919 61.5304 90.7661 61.679 90.6019 61.7908C90.4376 61.8991 90.2297 61.9533 89.9781 61.9533C89.8243 61.9533 89.6775 61.9306 89.5377 61.8851C89.3979 61.8362 89.2652 61.7821 89.1393 61.7226C89.017 61.6632 88.9 61.6108 88.7881 61.5654C88.6798 61.5165 88.5767 61.492 88.4789 61.492C88.3286 61.492 88.2168 61.5287 88.1434 61.6021C88.0735 61.672 88.0158 61.789 87.9704 61.9533H87.3151C87.3501 61.6038 87.4619 61.3103 87.6506 61.0726C87.8428 60.835 88.1189 60.7162 88.4789 60.7162C88.6501 60.7162 88.8074 60.7406 88.9506 60.7896C89.0939 60.835 89.225 60.8874 89.3438 60.9468C89.4661 61.0062 89.5814 61.0604 89.6898 61.1093C89.7981 61.1548 89.9047 61.1775 90.0095 61.1775C90.1563 61.1775 90.2646 61.139 90.3345 61.0622C90.4079 60.9818 90.4621 60.8664 90.497 60.7162H91.1523ZM96.4519 64.2912C97.0775 64.2912 97.5807 64.4625 97.9616 64.8049C98.3425 65.1439 98.533 65.6891 98.533 66.4404V70.2618H96.9342V66.8388C96.9342 66.4195 96.8573 66.1032 96.7035 65.89C96.5533 65.6768 96.3156 65.5703 95.9906 65.5703C95.5014 65.5703 95.1676 65.7363 94.9894 66.0682C94.8112 66.4002 94.7221 66.879 94.7221 67.5046V70.2618H93.1233V64.4013H94.3446L94.5596 65.1509H94.6487C94.7745 64.9482 94.93 64.784 95.1152 64.6582C95.3039 64.5323 95.5119 64.4397 95.739 64.3803C95.9697 64.3209 96.2073 64.2912 96.4519 64.2912ZM109.106 62.5981L106.501 70.2618H104.729L102.129 62.5981H103.77L105.211 67.1586C105.236 67.2355 105.276 67.3805 105.332 67.5937C105.388 67.8033 105.444 68.027 105.5 68.2646C105.559 68.4988 105.599 68.6927 105.62 68.8465C105.641 68.6927 105.678 68.4988 105.73 68.2646C105.786 68.0305 105.84 67.8086 105.893 67.5989C105.949 67.3857 105.989 67.239 106.013 67.1586L107.465 62.5981H109.106ZM112.351 64.2807C113.137 64.2807 113.74 64.452 114.159 64.7944C114.579 65.1369 114.788 65.6576 114.788 66.3566V70.2618H113.672L113.363 69.4651H113.321C113.153 69.6747 112.982 69.846 112.807 69.9788C112.632 70.1116 112.431 70.2094 112.204 70.2723C111.977 70.3352 111.701 70.3667 111.376 70.3667C111.03 70.3667 110.719 70.3003 110.443 70.1675C110.17 70.0347 109.955 69.832 109.798 69.5594C109.641 69.2833 109.562 68.9339 109.562 68.511C109.562 67.889 109.781 67.4312 110.217 67.1376C110.654 66.8406 111.309 66.6763 112.183 66.6449L113.2 66.6134V66.3566C113.2 66.049 113.12 65.8236 112.959 65.6803C112.798 65.5371 112.575 65.4654 112.288 65.4654C112.005 65.4654 111.727 65.5056 111.454 65.586C111.182 65.6664 110.909 65.7677 110.637 65.89L110.107 64.8102C110.418 64.6459 110.766 64.5166 111.15 64.4223C111.538 64.3279 111.938 64.2807 112.351 64.2807ZM113.2 67.5465L112.582 67.5675C112.064 67.5814 111.704 67.674 111.502 67.8453C111.302 68.0165 111.203 68.2419 111.203 68.5215C111.203 68.7661 111.275 68.9409 111.418 69.0457C111.561 69.147 111.748 69.1977 111.979 69.1977C112.321 69.1977 112.609 69.0964 112.844 68.8937C113.081 68.691 113.2 68.4027 113.2 68.0288V67.5465ZM114.448 61.9847C114.423 62.3307 114.32 62.6382 114.138 62.9073C113.96 63.1729 113.719 63.3809 113.415 63.5311C113.114 63.6814 112.765 63.7565 112.367 63.7565C111.752 63.7565 111.264 63.5958 110.904 63.2743C110.548 62.9528 110.355 62.5229 110.327 61.9847H111.219C111.236 62.1839 111.297 62.3307 111.402 62.4251C111.51 62.5159 111.648 62.5753 111.816 62.6033C111.987 62.6278 112.174 62.64 112.377 62.64C112.545 62.64 112.714 62.6243 112.886 62.5928C113.057 62.5614 113.202 62.4985 113.321 62.4041C113.443 62.3097 113.515 62.17 113.536 61.9847H114.448ZM119.768 64.2912C120.394 64.2912 120.897 64.4625 121.278 64.8049C121.659 65.1439 121.849 65.6891 121.849 66.4404V70.2618H120.251V66.8388C120.251 66.4195 120.174 66.1032 120.02 65.89C119.87 65.6768 119.632 65.5703 119.307 65.5703C118.818 65.5703 118.484 65.7363 118.306 66.0682C118.128 66.4002 118.038 66.879 118.038 67.5046V70.2618H116.44V64.4013H117.661L117.876 65.1509H117.965C118.091 64.9482 118.246 64.784 118.432 64.6582C118.62 64.5323 118.828 64.4397 119.055 64.3803C119.286 64.3209 119.524 64.2912 119.768 64.2912ZM126.41 62.5981H128.795C129.815 62.5981 130.588 62.7413 131.112 63.0279C131.636 63.3145 131.898 63.8177 131.898 64.5376C131.898 64.8276 131.851 65.0897 131.757 65.3239C131.666 65.558 131.533 65.7502 131.358 65.9005C131.184 66.0508 130.97 66.1486 130.719 66.1941V66.2465C130.974 66.2989 131.205 66.3898 131.411 66.5191C131.617 66.6449 131.781 66.8301 131.903 67.0747C132.029 67.3158 132.092 67.6374 132.092 68.0392C132.092 68.504 131.979 68.9024 131.751 69.2344C131.524 69.5664 131.199 69.8215 130.776 69.9997C130.357 70.1745 129.857 70.2618 129.277 70.2618H126.41V62.5981ZM128.035 65.6332H128.978C129.45 65.6332 129.777 65.5598 129.959 65.413C130.14 65.2627 130.231 65.0426 130.231 64.7525C130.231 64.459 130.123 64.2493 129.906 64.1235C129.693 63.9942 129.354 63.9295 128.889 63.9295H128.035V65.6332ZM128.035 66.9227V68.9199H129.094C129.583 68.9199 129.924 68.8255 130.116 68.6368C130.308 68.4481 130.404 68.1947 130.404 67.8767C130.404 67.688 130.362 67.522 130.278 67.3787C130.195 67.2355 130.053 67.1236 129.854 67.0433C129.658 66.9629 129.387 66.9227 129.041 66.9227H128.035ZM135.898 64.2807C136.684 64.2807 137.287 64.452 137.706 64.7944C138.126 65.1369 138.335 65.6576 138.335 66.3566V70.2618H137.219L136.91 69.4651H136.868C136.7 69.6747 136.529 69.846 136.354 69.9788C136.179 70.1116 135.978 70.2094 135.751 70.2723C135.524 70.3352 135.248 70.3667 134.923 70.3667C134.577 70.3667 134.266 70.3003 133.99 70.1675C133.717 70.0347 133.502 69.832 133.345 69.5594C133.188 69.2833 133.109 68.9339 133.109 68.511C133.109 67.889 133.328 67.4312 133.764 67.1376C134.201 66.8406 134.856 66.6763 135.73 66.6449L136.747 66.6134V66.3566C136.747 66.049 136.667 65.8236 136.506 65.6803C136.345 65.5371 136.122 65.4654 135.835 65.4654C135.552 65.4654 135.274 65.5056 135.002 65.586C134.729 65.6664 134.456 65.7677 134.184 65.89L133.654 64.8102C133.965 64.6459 134.313 64.5166 134.697 64.4223C135.085 64.3279 135.486 64.2807 135.898 64.2807ZM136.747 67.5465L136.129 67.5675C135.611 67.5814 135.251 67.674 135.049 67.8453C134.849 68.0165 134.75 68.2419 134.75 68.5215C134.75 68.7661 134.822 68.9409 134.965 69.0457C135.108 69.147 135.295 69.1977 135.526 69.1977C135.868 69.1977 136.156 69.0964 136.391 68.8937C136.628 68.691 136.747 68.4027 136.747 68.0288V67.5465Z" fill="#292929"/>
<path d="M62.8324 85.1426V86.0554H59.4795V85.1426H62.8324ZM59.8006 79.3771V86.0554H58.6493V79.3771H59.8006ZM67.8411 80.588H68.5796C68.5796 80.9397 68.5276 81.2424 68.4237 81.4962C68.3227 81.75 68.1576 81.9442 67.9283 82.0787C67.702 82.2132 67.4008 82.2805 67.0247 82.2805V81.7347C67.254 81.7347 67.4268 81.6873 67.543 81.5925C67.6592 81.4977 67.7372 81.3647 67.7769 81.1935C67.8197 81.0222 67.8411 80.8204 67.8411 80.588ZM63.3966 83.629V83.5235C63.3966 83.1658 63.4486 82.834 63.5525 82.5282C63.6565 82.2194 63.8063 81.9518 64.002 81.7255C64.2008 81.4962 64.4424 81.3188 64.7267 81.1935C65.0142 81.065 65.3383 81.0008 65.6991 81.0008C66.063 81.0008 66.3887 81.065 66.6761 81.1935C66.9635 81.3188 67.2051 81.4962 67.4008 81.7255C67.5996 81.9518 67.7509 82.2194 67.8549 82.5282C67.9589 82.834 68.0109 83.1658 68.0109 83.5235V83.629C68.0109 83.9868 67.9589 84.3186 67.8549 84.6243C67.7509 84.9301 67.5996 85.1977 67.4008 85.427C67.2051 85.6533 66.9651 85.8307 66.6807 85.9591C66.3963 86.0845 66.0722 86.1471 65.7083 86.1471C65.3444 86.1471 65.0188 86.0845 64.7313 85.9591C64.447 85.8307 64.2054 85.6533 64.0066 85.427C63.8079 85.1977 63.6565 84.9301 63.5525 84.6243C63.4486 84.3186 63.3966 83.9868 63.3966 83.629ZM64.502 83.5235V83.629C64.502 83.8522 64.5249 84.0632 64.5708 84.262C64.6167 84.4607 64.6885 84.635 64.7864 84.7849C64.8873 84.9347 65.0127 85.0524 65.1625 85.1381C65.3154 85.2237 65.4973 85.2665 65.7083 85.2665C65.9162 85.2665 66.0951 85.2237 66.245 85.1381C66.3948 85.0524 66.5171 84.9347 66.6119 84.7849C66.7097 84.635 66.7831 84.4607 66.8321 84.262C66.881 84.0632 66.9054 83.8522 66.9054 83.629V83.5235C66.9054 83.3034 66.881 83.0954 66.8321 82.8997C66.7862 82.701 66.7143 82.5251 66.6165 82.3723C66.5186 82.2194 66.3933 82.1001 66.2404 82.0145C66.0905 81.9258 65.9101 81.8815 65.6991 81.8815C65.4912 81.8815 65.3123 81.9258 65.1625 82.0145C65.0127 82.1001 64.8873 82.2194 64.7864 82.3723C64.6885 82.5251 64.6167 82.701 64.5708 82.8997C64.5249 83.0954 64.502 83.3034 64.502 83.5235ZM65.3826 79.0102L66.2771 80.3908H65.3551L64.1305 79.0102H65.3826ZM70.2171 81.0926V86.0554H69.1071V81.0926H70.2171ZM69.0337 79.7899C69.0337 79.6217 69.0887 79.4826 69.1988 79.3725C69.312 79.2594 69.4679 79.2028 69.6667 79.2028C69.8624 79.2028 70.0168 79.2594 70.1299 79.3725C70.2431 79.4826 70.2996 79.6217 70.2996 79.7899C70.2996 79.955 70.2431 80.0926 70.1299 80.2027C70.0168 80.3128 69.8624 80.3678 69.6667 80.3678C69.4679 80.3678 69.312 80.3128 69.1988 80.2027C69.0887 80.0926 69.0337 79.955 69.0337 79.7899ZM74.8726 82.1016V86.0554H73.7672V81.0926H74.8084L74.8726 82.1016ZM74.6937 83.3905L74.3176 83.3859C74.3176 83.0434 74.3604 82.727 74.446 82.4365C74.5317 82.146 74.657 81.8937 74.8222 81.6797C74.9873 81.4625 75.1922 81.2959 75.4368 81.1797C75.6845 81.0604 75.9704 81.0008 76.2945 81.0008C76.5208 81.0008 76.7272 81.0345 76.9137 81.1017C77.1033 81.1659 77.2669 81.2684 77.4045 81.409C77.5452 81.5497 77.6522 81.7301 77.7256 81.9503C77.802 82.1704 77.8402 82.4365 77.8402 82.7484V86.0554H76.7348V82.8447C76.7348 82.6031 76.6981 82.4135 76.6247 82.2759C76.5544 82.1383 76.452 82.0405 76.3174 81.9824C76.186 81.9212 76.0285 81.8906 75.845 81.8906C75.6371 81.8906 75.4597 81.9304 75.3129 82.0099C75.1692 82.0894 75.0515 82.198 74.9598 82.3356C74.868 82.4732 74.8008 82.6322 74.7579 82.8126C74.7151 82.993 74.6937 83.1856 74.6937 83.3905ZM77.7714 83.097L77.2531 83.2116C77.2531 82.912 77.2944 82.6291 77.377 82.3631C77.4626 82.094 77.5864 81.8585 77.7485 81.6567C77.9136 81.4518 78.117 81.2913 78.3585 81.1751C78.6001 81.0589 78.8768 81.0008 79.1887 81.0008C79.4425 81.0008 79.6688 81.036 79.8676 81.1063C80.0694 81.1736 80.2406 81.2806 80.3813 81.4274C80.5219 81.5742 80.629 81.7653 80.7024 82.0007C80.7757 82.2331 80.8124 82.5144 80.8124 82.8447V86.0554H79.7025V82.8401C79.7025 82.5894 79.6658 82.3952 79.5924 82.2576C79.522 82.12 79.4211 82.0252 79.2896 81.9732C79.1582 81.9182 79.0007 81.8906 78.8172 81.8906C78.646 81.8906 78.4946 81.9228 78.3631 81.987C78.2347 82.0481 78.1261 82.1353 78.0375 82.2484C77.9488 82.3585 77.8815 82.4854 77.8356 82.6291C77.7928 82.7728 77.7714 82.9288 77.7714 83.097ZM86.1789 80.588H86.9174C86.9174 80.9397 86.8654 81.2424 86.7614 81.4962C86.6605 81.75 86.4954 81.9442 86.2661 82.0787C86.0398 82.2132 85.7386 82.2805 85.3625 82.2805V81.7347C85.5918 81.7347 85.7646 81.6873 85.8808 81.5925C85.997 81.4977 86.075 81.3647 86.1147 81.1935C86.1575 81.0222 86.1789 80.8204 86.1789 80.588ZM81.7344 83.629V83.5235C81.7344 83.1658 81.7864 82.834 81.8903 82.5282C81.9943 82.2194 82.1441 81.9518 82.3398 81.7255C82.5386 81.4962 82.7802 81.3188 83.0645 81.1935C83.352 81.065 83.6761 81.0008 84.0369 81.0008C84.4008 81.0008 84.7265 81.065 85.0139 81.1935C85.3013 81.3188 85.5429 81.4962 85.7386 81.7255C85.9374 81.9518 86.0887 82.2194 86.1927 82.5282C86.2967 82.834 86.3486 83.1658 86.3486 83.5235V83.629C86.3486 83.9868 86.2967 84.3186 86.1927 84.6243C86.0887 84.9301 85.9374 85.1977 85.7386 85.427C85.5429 85.6533 85.3029 85.8307 85.0185 85.9591C84.7341 86.0845 84.41 86.1471 84.0461 86.1471C83.6822 86.1471 83.3566 86.0845 83.0691 85.9591C82.7847 85.8307 82.5432 85.6533 82.3444 85.427C82.1457 85.1977 81.9943 84.9301 81.8903 84.6243C81.7864 84.3186 81.7344 83.9868 81.7344 83.629ZM82.8398 83.5235V83.629C82.8398 83.8522 82.8627 84.0632 82.9086 84.262C82.9545 84.4607 83.0263 84.635 83.1242 84.7849C83.2251 84.9347 83.3504 85.0524 83.5003 85.1381C83.6532 85.2237 83.8351 85.2665 84.0461 85.2665C84.254 85.2665 84.4329 85.2237 84.5827 85.1381C84.7326 85.0524 84.8549 84.9347 84.9497 84.7849C85.0475 84.635 85.1209 84.4607 85.1698 84.262C85.2188 84.0632 85.2432 83.8522 85.2432 83.629V83.5235C85.2432 83.3034 85.2188 83.0954 85.1698 82.8997C85.124 82.701 85.0521 82.5251 84.9543 82.3723C84.8564 82.2194 84.731 82.1001 84.5782 82.0145C84.4283 81.9258 84.2479 81.8815 84.0369 81.8815C83.829 81.8815 83.6501 81.9258 83.5003 82.0145C83.3504 82.1001 83.2251 82.2194 83.1242 82.3723C83.0263 82.5251 82.9545 82.701 82.9086 82.8997C82.8627 83.0954 82.8398 83.3034 82.8398 83.5235ZM83.7204 79.0102L84.6149 80.3908H83.6929L82.4683 79.0102H83.7204ZM88.5549 81.0926V86.0554H87.4449V81.0926H88.5549ZM87.3715 79.7899C87.3715 79.6217 87.4265 79.4826 87.5366 79.3725C87.6497 79.2594 87.8057 79.2028 88.0045 79.2028C88.2002 79.2028 88.3546 79.2594 88.4677 79.3725C88.5809 79.4826 88.6374 79.6217 88.6374 79.7899C88.6374 79.955 88.5809 80.0926 88.4677 80.2027C88.3546 80.3128 88.2002 80.3678 88.0045 80.3678C87.8057 80.3678 87.6497 80.3128 87.5366 80.2027C87.4265 80.0926 87.3715 79.955 87.3715 79.7899ZM93.1966 79.0102V86.0554H92.0958V79.0102H93.1966ZM93.004 83.3905L92.6462 83.3859C92.6493 83.0434 92.6967 82.727 92.7884 82.4365C92.8832 82.146 93.0147 81.8937 93.1829 81.6797C93.3541 81.4625 93.559 81.2959 93.7975 81.1797C94.036 81.0604 94.3005 81.0008 94.591 81.0008C94.8356 81.0008 95.0558 81.0345 95.2515 81.1017C95.4503 81.169 95.6215 81.2776 95.7652 81.4274C95.9089 81.5742 96.0175 81.7668 96.0909 82.0053C96.1673 82.2408 96.2055 82.5282 96.2055 82.8676V86.0554H95.0955V82.8584C95.0955 82.6199 95.0604 82.4304 94.9901 82.2897C94.9228 82.149 94.8234 82.0481 94.6919 81.987C94.5604 81.9228 94.3999 81.8906 94.2103 81.8906C94.0116 81.8906 93.8357 81.9304 93.6828 82.0099C93.533 82.0894 93.4076 82.198 93.3067 82.3356C93.2058 82.4732 93.1294 82.6322 93.0774 82.8126C93.0285 82.993 93.004 83.1856 93.004 83.3905ZM101.554 80.588H102.292C102.292 80.9397 102.24 81.2424 102.136 81.4962C102.035 81.75 101.87 81.9442 101.641 82.0787C101.415 82.2132 101.113 82.2805 100.737 82.2805V81.7347C100.967 81.7347 101.139 81.6873 101.256 81.5925C101.372 81.4977 101.45 81.3647 101.489 81.1935C101.532 81.0222 101.554 80.8204 101.554 80.588ZM97.1091 83.629V83.5235C97.1091 83.1658 97.1611 82.834 97.2651 82.5282C97.369 82.2194 97.5189 81.9518 97.7146 81.7255C97.9133 81.4962 98.1549 81.3188 98.4393 81.1935C98.7267 81.065 99.0508 81.0008 99.4117 81.0008C99.7756 81.0008 100.101 81.065 100.389 81.1935C100.676 81.3188 100.918 81.4962 101.113 81.7255C101.312 81.9518 101.463 82.2194 101.567 82.5282C101.671 82.834 101.723 83.1658 101.723 83.5235V83.629C101.723 83.9868 101.671 84.3186 101.567 84.6243C101.463 84.9301 101.312 85.1977 101.113 85.427C100.918 85.6533 100.678 85.8307 100.393 85.9591C100.109 86.0845 99.7847 86.1471 99.4208 86.1471C99.057 86.1471 98.7313 86.0845 98.4439 85.9591C98.1595 85.8307 97.9179 85.6533 97.7192 85.427C97.5204 85.1977 97.369 84.9301 97.2651 84.6243C97.1611 84.3186 97.1091 83.9868 97.1091 83.629ZM98.2145 83.5235V83.629C98.2145 83.8522 98.2375 84.0632 98.2833 84.262C98.3292 84.4607 98.4011 84.635 98.4989 84.7849C98.5998 84.9347 98.7252 85.0524 98.875 85.1381C99.0279 85.2237 99.2099 85.2665 99.4208 85.2665C99.6288 85.2665 99.8077 85.2237 99.9575 85.1381C100.107 85.0524 100.23 84.9347 100.324 84.7849C100.422 84.635 100.496 84.4607 100.545 84.262C100.594 84.0632 100.618 83.8522 100.618 83.629V83.5235C100.618 83.3034 100.594 83.0954 100.545 82.8997C100.499 82.701 100.427 82.5251 100.329 82.3723C100.231 82.2194 100.106 82.1001 99.9529 82.0145C99.8031 81.9258 99.6227 81.8815 99.4117 81.8815C99.2037 81.8815 99.0249 81.9258 98.875 82.0145C98.7252 82.1001 98.5998 82.2194 98.4989 82.3723C98.4011 82.5251 98.3292 82.701 98.2833 82.8997C98.2375 83.0954 98.2145 83.3034 98.2145 83.5235ZM98.7695 87.2021C98.7695 87.0431 98.8246 86.9101 98.9347 86.803C99.0478 86.696 99.2022 86.6425 99.3979 86.6425C99.5936 86.6425 99.748 86.696 99.8612 86.803C99.9743 86.9101 100.031 87.0431 100.031 87.2021C100.031 87.358 99.9743 87.4895 99.8612 87.5965C99.748 87.7036 99.5936 87.7571 99.3979 87.7571C99.2022 87.7571 99.0478 87.7036 98.9347 87.5965C98.8246 87.4895 98.7695 87.358 98.7695 87.2021ZM103.856 82.0466V87.9635H102.751V81.0926H103.769L103.856 82.0466ZM107.09 83.5281V83.6244C107.09 83.9853 107.047 84.3201 106.961 84.6289C106.879 84.9347 106.755 85.2023 106.59 85.4316C106.428 85.6579 106.228 85.8337 105.989 85.9591C105.751 86.0845 105.475 86.1471 105.163 86.1471C104.855 86.1471 104.584 86.0906 104.352 85.9774C104.122 85.8612 103.928 85.6976 103.769 85.4866C103.61 85.2757 103.482 85.028 103.384 84.7436C103.289 84.4562 103.222 84.1412 103.182 83.7987V83.4272C103.222 83.0633 103.289 82.7331 103.384 82.4365C103.482 82.1399 103.61 81.8845 103.769 81.6705C103.928 81.4564 104.122 81.2913 104.352 81.1751C104.581 81.0589 104.848 81.0008 105.154 81.0008C105.466 81.0008 105.743 81.062 105.984 81.1843C106.226 81.3035 106.429 81.4748 106.595 81.698C106.76 81.9182 106.883 82.1842 106.966 82.4961C107.049 82.8049 107.09 83.1489 107.09 83.5281ZM105.984 83.6244V83.5281C105.984 83.2988 105.963 83.0863 105.92 82.8906C105.877 82.6918 105.81 82.5175 105.718 82.3677C105.627 82.2178 105.509 82.1016 105.365 82.0191C105.225 81.9335 105.055 81.8906 104.856 81.8906C104.66 81.8906 104.492 81.9243 104.352 81.9916C104.211 82.0558 104.093 82.146 103.998 82.2622C103.904 82.3784 103.83 82.5144 103.778 82.6704C103.726 82.8233 103.69 82.9899 103.668 83.1703V84.0602C103.705 84.2803 103.768 84.4822 103.856 84.6656C103.945 84.8491 104.07 84.9959 104.232 85.1059C104.397 85.213 104.608 85.2665 104.865 85.2665C105.064 85.2665 105.234 85.2237 105.374 85.1381C105.515 85.0524 105.63 84.9347 105.718 84.7849C105.81 84.632 105.877 84.4562 105.92 84.2574C105.963 84.0586 105.984 83.8477 105.984 83.6244ZM112.644 81.0926V81.8998H109.847V81.0926H112.644ZM110.654 79.8771H111.759V84.684C111.759 84.8369 111.781 84.9546 111.823 85.0371C111.869 85.1167 111.932 85.1702 112.011 85.1977C112.091 85.2252 112.184 85.239 112.291 85.239C112.368 85.239 112.441 85.2344 112.511 85.2252C112.582 85.216 112.638 85.2069 112.681 85.1977L112.686 86.0416C112.594 86.0692 112.487 86.0936 112.365 86.115C112.245 86.1364 112.108 86.1471 111.952 86.1471C111.698 86.1471 111.473 86.1028 111.278 86.0141C111.082 85.9224 110.929 85.7741 110.819 85.5692C110.709 85.3643 110.654 85.0922 110.654 84.7528V79.8771ZM116.295 85.0601V82.6933C116.295 82.516 116.263 82.3631 116.199 82.2347C116.135 82.1062 116.037 82.0068 115.906 81.9365C115.777 81.8662 115.615 81.831 115.419 81.831C115.239 81.831 115.083 81.8616 114.952 81.9228C114.82 81.9839 114.718 82.0665 114.644 82.1704C114.571 82.2744 114.534 82.3921 114.534 82.5236H113.433C113.433 82.3279 113.481 82.1383 113.576 81.9549C113.67 81.7714 113.808 81.6078 113.988 81.4641C114.169 81.3204 114.384 81.2072 114.635 81.1247C114.886 81.0421 115.167 81.0008 115.479 81.0008C115.852 81.0008 116.182 81.0635 116.47 81.1889C116.76 81.3142 116.988 81.5038 117.153 81.7576C117.321 82.0084 117.405 82.3233 117.405 82.7025V84.9087C117.405 85.135 117.421 85.3383 117.451 85.5188C117.485 85.6961 117.532 85.8505 117.594 85.982V86.0554H116.461C116.409 85.9361 116.367 85.7848 116.337 85.6013C116.309 85.4148 116.295 85.2344 116.295 85.0601ZM116.456 83.0373L116.465 83.7208H115.672C115.467 83.7208 115.286 83.7406 115.13 83.7804C114.974 83.8171 114.845 83.8721 114.741 83.9455C114.637 84.0189 114.559 84.1076 114.507 84.2115C114.455 84.3155 114.429 84.4332 114.429 84.5647C114.429 84.6962 114.459 84.817 114.52 84.9271C114.582 85.0341 114.67 85.1182 114.786 85.1793C114.906 85.2405 115.049 85.2711 115.218 85.2711C115.444 85.2711 115.641 85.2252 115.809 85.1335C115.981 85.0387 116.115 84.924 116.213 84.7895C116.311 84.6519 116.363 84.5219 116.369 84.3996L116.727 84.8904C116.69 85.0157 116.627 85.1503 116.539 85.294C116.45 85.4377 116.334 85.5753 116.19 85.7068C116.049 85.8352 115.88 85.9407 115.681 86.0233C115.485 86.1059 115.259 86.1471 115.002 86.1471C114.678 86.1471 114.389 86.0829 114.135 85.9545C113.881 85.823 113.683 85.6472 113.539 85.427C113.395 85.2038 113.323 84.9515 113.323 84.6702C113.323 84.4072 113.372 84.1748 113.47 83.973C113.571 83.7682 113.718 83.5969 113.91 83.4593C114.106 83.3217 114.345 83.2177 114.626 83.1474C114.907 83.074 115.228 83.0373 115.589 83.0373H116.456ZM114.965 80.3908L115.86 79.0102H117.107L115.86 80.3908H114.965ZM120.589 85.2665C120.769 85.2665 120.931 85.2313 121.075 85.161C121.222 85.0876 121.339 84.9867 121.428 84.8583C121.52 84.7298 121.57 84.5815 121.579 84.4134H122.621C122.614 84.7344 122.52 85.0264 122.336 85.2894C122.153 85.5524 121.91 85.7619 121.607 85.9178C121.304 86.0707 120.969 86.1471 120.602 86.1471C120.223 86.1471 119.893 86.0829 119.612 85.9545C119.33 85.823 119.096 85.6426 118.91 85.4133C118.723 85.1839 118.583 84.9194 118.488 84.6198C118.396 84.3201 118.35 83.999 118.35 83.6565V83.496C118.35 83.1535 118.396 82.8325 118.488 82.5328C118.583 82.2301 118.723 81.964 118.91 81.7347C119.096 81.5054 119.33 81.3265 119.612 81.198C119.893 81.0666 120.222 81.0008 120.598 81.0008C120.995 81.0008 121.344 81.0803 121.644 81.2393C121.943 81.3953 122.179 81.6139 122.35 81.8952C122.524 82.1735 122.614 82.4976 122.621 82.8676H121.579C121.57 82.6842 121.524 82.519 121.442 82.3723C121.362 82.2224 121.249 82.1032 121.102 82.0145C120.959 81.9258 120.786 81.8815 120.584 81.8815C120.361 81.8815 120.176 81.9273 120.029 82.0191C119.882 82.1078 119.768 82.2301 119.685 82.386C119.603 82.5389 119.543 82.7117 119.506 82.9043C119.473 83.0939 119.456 83.2911 119.456 83.496V83.6565C119.456 83.8614 119.473 84.0602 119.506 84.2528C119.54 84.4455 119.598 84.6182 119.68 84.7711C119.766 84.921 119.882 85.0417 120.029 85.1335C120.176 85.2221 120.362 85.2665 120.589 85.2665ZM128.836 85.028V79.0102H129.946V86.0554H128.941L128.836 85.028ZM125.607 83.629V83.5327C125.607 83.1566 125.651 82.8141 125.74 82.5053C125.828 82.1934 125.957 81.9258 126.125 81.7026C126.293 81.4763 126.498 81.3035 126.739 81.1843C126.981 81.062 127.253 81.0008 127.556 81.0008C127.856 81.0008 128.119 81.0589 128.345 81.1751C128.571 81.2913 128.764 81.458 128.923 81.6751C129.082 81.8891 129.209 82.146 129.303 82.4456C129.398 82.7422 129.466 83.0725 129.505 83.4364V83.7437C129.466 84.0984 129.398 84.4225 129.303 84.7161C129.209 85.0096 129.082 85.2634 128.923 85.4775C128.764 85.6915 128.57 85.8566 128.34 85.9728C128.114 86.089 127.849 86.1471 127.547 86.1471C127.247 86.1471 126.976 86.0845 126.735 85.9591C126.496 85.8337 126.293 85.6579 126.125 85.4316C125.957 85.2053 125.828 84.9393 125.74 84.6335C125.651 84.3247 125.607 83.9898 125.607 83.629ZM126.712 83.5327V83.629C126.712 83.8553 126.732 84.0663 126.772 84.262C126.814 84.4577 126.88 84.6305 126.969 84.7803C127.057 84.9271 127.172 85.0433 127.313 85.1289C127.457 85.2114 127.628 85.2527 127.827 85.2527C128.077 85.2527 128.284 85.1977 128.446 85.0876C128.608 84.9775 128.735 84.8292 128.826 84.6427C128.921 84.4531 128.985 84.2421 129.019 84.0097V83.1795C129.001 82.9991 128.963 82.8309 128.904 82.675C128.849 82.519 128.774 82.383 128.68 82.2668C128.585 82.1475 128.467 82.0558 128.326 81.9916C128.189 81.9243 128.025 81.8906 127.836 81.8906C127.634 81.8906 127.463 81.9335 127.322 82.0191C127.181 82.1047 127.065 82.2224 126.973 82.3723C126.885 82.5221 126.819 82.6964 126.776 82.8951C126.733 83.0939 126.712 83.3064 126.712 83.5327ZM135.844 80.6752H136.569C136.569 81.0299 136.518 81.328 136.417 81.5696C136.32 81.8111 136.15 81.9931 135.908 82.1154C135.67 82.2377 135.338 82.2989 134.913 82.2989L134.918 81.7255C135.205 81.7255 135.413 81.6888 135.541 81.6154C135.673 81.539 135.755 81.4243 135.789 81.2714C135.826 81.1155 135.844 80.9167 135.844 80.6752ZM134.087 84.8858V81.0926H135.197V86.0554H134.152L134.087 84.8858ZM134.243 83.8538L134.615 83.8446C134.615 84.1779 134.578 84.4852 134.505 84.7665C134.431 85.0448 134.318 85.2879 134.165 85.4958C134.013 85.7007 133.817 85.8612 133.578 85.9774C133.34 86.0906 133.054 86.1471 132.721 86.1471C132.479 86.1471 132.257 86.112 132.056 86.0416C131.854 85.9713 131.679 85.8628 131.533 85.716C131.389 85.5692 131.277 85.3781 131.198 85.1426C131.118 84.9072 131.079 84.6259 131.079 84.2987V81.0926H132.184V84.3079C132.184 84.4883 132.205 84.6396 132.248 84.7619C132.291 84.8812 132.349 84.9775 132.422 85.0509C132.496 85.1243 132.581 85.1763 132.679 85.2069C132.777 85.2374 132.881 85.2527 132.991 85.2527C133.306 85.2527 133.554 85.1916 133.734 85.0693C133.918 84.9439 134.048 84.7757 134.124 84.5647C134.204 84.3537 134.243 84.1167 134.243 83.8538ZM132.496 87.1562C132.496 86.9972 132.551 86.8642 132.661 86.7572C132.774 86.6502 132.929 86.5966 133.124 86.5966C133.32 86.5966 133.474 86.6502 133.587 86.7572C133.701 86.8642 133.757 86.9972 133.757 87.1562C133.757 87.3122 133.701 87.4437 133.587 87.5507C133.474 87.6577 133.32 87.7112 133.124 87.7112C132.929 87.7112 132.774 87.6577 132.661 87.5507C132.551 87.4437 132.496 87.3122 132.496 87.1562ZM141.99 85.0601V82.6933C141.99 82.516 141.958 82.3631 141.894 82.2347C141.83 82.1062 141.732 82.0068 141.601 81.9365C141.472 81.8662 141.31 81.831 141.114 81.831C140.934 81.831 140.778 81.8616 140.646 81.9228C140.515 81.9839 140.413 82.0665 140.339 82.1704C140.266 82.2744 140.229 82.3921 140.229 82.5236H139.128C139.128 82.3279 139.176 82.1383 139.27 81.9549C139.365 81.7714 139.503 81.6078 139.683 81.4641C139.864 81.3204 140.079 81.2072 140.33 81.1247C140.581 81.0421 140.862 81.0008 141.174 81.0008C141.547 81.0008 141.877 81.0635 142.165 81.1889C142.455 81.3142 142.683 81.5038 142.848 81.7576C143.016 82.0084 143.1 82.3233 143.1 82.7025V84.9087C143.1 85.135 143.116 85.3383 143.146 85.5188C143.18 85.6961 143.227 85.8505 143.288 85.982V86.0554H142.156C142.104 85.9361 142.062 85.7848 142.032 85.6013C142.004 85.4148 141.99 85.2344 141.99 85.0601ZM142.151 83.0373L142.16 83.7208H141.367C141.162 83.7208 140.981 83.7406 140.825 83.7804C140.669 83.8171 140.539 83.8721 140.435 83.9455C140.332 84.0189 140.254 84.1076 140.202 84.2115C140.15 84.3155 140.124 84.4332 140.124 84.5647C140.124 84.6962 140.154 84.817 140.215 84.9271C140.276 85.0341 140.365 85.1182 140.481 85.1793C140.601 85.2405 140.744 85.2711 140.912 85.2711C141.139 85.2711 141.336 85.2252 141.504 85.1335C141.675 85.0387 141.81 84.924 141.908 84.7895C142.006 84.6519 142.058 84.5219 142.064 84.3996L142.422 84.8904C142.385 85.0157 142.322 85.1503 142.233 85.294C142.145 85.4377 142.029 85.5753 141.885 85.7068C141.744 85.8352 141.575 85.9407 141.376 86.0233C141.18 86.1059 140.954 86.1471 140.697 86.1471C140.373 86.1471 140.084 86.0829 139.83 85.9545C139.576 85.823 139.377 85.6472 139.234 85.427C139.09 85.2038 139.018 84.9515 139.018 84.6702C139.018 84.4072 139.067 84.1748 139.165 83.973C139.266 83.7682 139.413 83.5969 139.605 83.4593C139.801 83.3217 140.039 83.2177 140.321 83.1474C140.602 83.074 140.923 83.0373 141.284 83.0373H142.151ZM140.66 80.3908L141.555 79.0102H142.802L141.555 80.3908H140.66ZM145.352 82.1521V86.0554H144.247V81.0926H145.288L145.352 82.1521ZM145.155 83.3905L144.797 83.3859C144.801 83.0343 144.849 82.7117 144.944 82.4181C145.042 82.1246 145.177 81.8723 145.348 81.6613C145.522 81.4503 145.73 81.2883 145.972 81.1751C146.213 81.0589 146.482 81.0008 146.779 81.0008C147.017 81.0008 147.233 81.0345 147.426 81.1017C147.621 81.1659 147.788 81.2714 147.926 81.4182C148.066 81.565 148.173 81.7561 148.247 81.9916C148.32 82.2239 148.357 82.5099 148.357 82.8493V86.0554H147.247V82.8447C147.247 82.6062 147.212 82.4181 147.141 82.2805C147.074 82.1399 146.975 82.0405 146.843 81.9824C146.715 81.9212 146.554 81.8906 146.362 81.8906C146.172 81.8906 146.002 81.9304 145.852 82.0099C145.703 82.0894 145.576 82.198 145.472 82.3356C145.371 82.4732 145.293 82.6322 145.238 82.8126C145.183 82.993 145.155 83.1856 145.155 83.3905Z" fill="#292929"/>
<path d="M59.319 91.4549L60.9243 94.0143L62.5297 91.4549H63.5617L61.4518 94.762L63.6122 98.1332H62.571L60.9243 95.5234L59.2777 98.1332H58.2365L60.3969 94.762L58.287 91.4549H59.319ZM65.4285 93.1704V98.1332H64.5754V93.1704H65.4285ZM64.5112 91.854C64.5112 91.7164 64.5525 91.6002 64.635 91.5054C64.7206 91.4106 64.846 91.3632 65.0111 91.3632C65.1732 91.3632 65.297 91.4106 65.3826 91.5054C65.4713 91.6002 65.5157 91.7164 65.5157 91.854C65.5157 91.9854 65.4713 92.0986 65.3826 92.1934C65.297 92.2851 65.1732 92.331 65.0111 92.331C64.846 92.331 64.7206 92.2851 64.635 92.1934C64.5525 92.0986 64.5112 91.9854 64.5112 91.854ZM67.6393 94.2299V98.1332H66.7908V93.1704H67.5935L67.6393 94.2299ZM67.4375 95.4637L67.0843 95.45C67.0874 95.1105 67.1378 94.7971 67.2357 94.5097C67.3335 94.2192 67.4711 93.9669 67.6485 93.7529C67.8259 93.5388 68.0368 93.3737 68.2815 93.2575C68.5292 93.1382 68.8028 93.0786 69.1025 93.0786C69.3471 93.0786 69.5673 93.1123 69.763 93.1795C69.9587 93.2437 70.1253 93.3477 70.2629 93.4914C70.4036 93.6351 70.5106 93.8217 70.584 94.051C70.6574 94.2773 70.6941 94.554 70.6941 94.8812V98.1332H69.841V94.872C69.841 94.6121 69.8027 94.4042 69.7263 94.2482C69.6498 94.0892 69.5382 93.9746 69.3915 93.9042C69.2447 93.8308 69.0643 93.7942 68.8502 93.7942C68.6392 93.7942 68.4466 93.8385 68.2723 93.9272C68.1011 94.0158 67.9528 94.1382 67.8274 94.2941C67.7051 94.4501 67.6087 94.6289 67.5384 94.8308C67.4711 95.0295 67.4375 95.2405 67.4375 95.4637ZM76.2991 97.5278C76.5009 97.5278 76.6874 97.4865 76.8587 97.4039C77.0299 97.3214 77.1706 97.2082 77.2807 97.0645C77.3907 96.9177 77.4534 96.7511 77.4687 96.5645H78.276C78.2607 96.8581 78.1613 97.1318 77.9778 97.3856C77.7974 97.6363 77.5604 97.8397 77.2669 97.9956C76.9733 98.1485 76.6507 98.2249 76.2991 98.2249C75.926 98.2249 75.6004 98.1592 75.3221 98.0277C75.0469 97.8962 74.8176 97.7158 74.6341 97.4865C74.4537 97.2571 74.3176 96.9942 74.2259 96.6976C74.1372 96.3979 74.0929 96.0814 74.0929 95.7481V95.5555C74.0929 95.2222 74.1372 94.9072 74.2259 94.6106C74.3176 94.3109 74.4537 94.0464 74.6341 93.8171C74.8176 93.5877 75.0469 93.4073 75.3221 93.2759C75.6004 93.1444 75.926 93.0786 76.2991 93.0786C76.6874 93.0786 77.0269 93.1581 77.3173 93.3171C77.6078 93.4731 77.8356 93.6871 78.0008 93.9593C78.169 94.2284 78.2607 94.5341 78.276 94.8766H77.4687C77.4534 94.6717 77.3953 94.4868 77.2944 94.3216C77.1966 94.1565 77.062 94.025 76.8908 93.9272C76.7226 93.8263 76.5254 93.7758 76.2991 93.7758C76.0392 93.7758 75.8205 93.8278 75.6432 93.9318C75.4689 94.0327 75.3298 94.1703 75.2258 94.3446C75.1249 94.5158 75.0515 94.7069 75.0056 94.9179C74.9628 95.1258 74.9414 95.3384 74.9414 95.5555V95.7481C74.9414 95.9652 74.9628 96.1793 75.0056 96.3902C75.0484 96.6012 75.1203 96.7924 75.2212 96.9636C75.3252 97.1348 75.4643 97.2724 75.6386 97.3764C75.816 97.4773 76.0361 97.5278 76.2991 97.5278ZM80.0786 91.088V98.1332H79.23V91.088H80.0786ZM79.8767 95.4637L79.5236 95.45C79.5266 95.1105 79.5771 94.7971 79.6749 94.5097C79.7728 94.2192 79.9104 93.9669 80.0877 93.7529C80.2651 93.5388 80.4761 93.3737 80.7207 93.2575C80.9684 93.1382 81.2421 93.0786 81.5417 93.0786C81.7864 93.0786 82.0065 93.1123 82.2022 93.1795C82.3979 93.2437 82.5646 93.3477 82.7022 93.4914C82.8428 93.6351 82.9499 93.8217 83.0233 94.051C83.0966 94.2773 83.1333 94.554 83.1333 94.8812V98.1332H82.2802V94.872C82.2802 94.6121 82.242 94.4042 82.1655 94.2482C82.0891 94.0892 81.9775 93.9746 81.8307 93.9042C81.6839 93.8308 81.5035 93.7942 81.2895 93.7942C81.0785 93.7942 80.8858 93.8385 80.7115 93.9272C80.5403 94.0158 80.392 94.1382 80.2666 94.2941C80.1443 94.4501 80.048 94.6289 79.9777 94.8308C79.9104 95.0295 79.8767 95.2405 79.8767 95.4637ZM87.3302 97.2847V94.7298C87.3302 94.5341 87.2904 94.3644 87.2109 94.2207C87.1345 94.0739 87.0183 93.9608 86.8624 93.8813C86.7064 93.8018 86.5138 93.762 86.2844 93.762C86.0704 93.762 85.8823 93.7987 85.7203 93.8721C85.5612 93.9455 85.4359 94.0418 85.3441 94.1611C85.2555 94.2803 85.2111 94.4088 85.2111 94.5464H84.3626C84.3626 94.369 84.4084 94.1932 84.5002 94.0189C84.5919 93.8446 84.7234 93.6871 84.8946 93.5465C85.0689 93.4028 85.2769 93.2896 85.5184 93.2071C85.7631 93.1214 86.0352 93.0786 86.3349 93.0786C86.6957 93.0786 87.0137 93.1398 87.2889 93.2621C87.5672 93.3844 87.7843 93.5694 87.9402 93.8171C88.0992 94.0617 88.1787 94.369 88.1787 94.739V97.0507C88.1787 97.2159 88.1925 97.3917 88.22 97.5782C88.2506 97.7647 88.2949 97.9253 88.353 98.0598V98.1332H87.4678C87.425 98.0354 87.3914 97.9054 87.3669 97.7433C87.3424 97.5782 87.3302 97.4253 87.3302 97.2847ZM87.477 95.1243L87.4861 95.7206H86.6284C86.3869 95.7206 86.1713 95.7405 85.9817 95.7802C85.7921 95.8169 85.6331 95.8735 85.5047 95.9499C85.3762 96.0264 85.2784 96.1227 85.2111 96.2389C85.1439 96.352 85.1102 96.485 85.1102 96.6379C85.1102 96.7939 85.1454 96.9361 85.2157 97.0645C85.286 97.1929 85.3915 97.2954 85.5322 97.3718C85.6759 97.4452 85.8517 97.4819 86.0597 97.4819C86.3196 97.4819 86.5489 97.4269 86.7477 97.3168C86.9464 97.2067 87.1039 97.0721 87.2201 96.9131C87.3394 96.7541 87.4036 96.5997 87.4128 96.4499L87.7751 96.8581C87.7537 96.9865 87.6956 97.1287 87.6008 97.2847C87.506 97.4406 87.3791 97.5904 87.2201 97.7342C87.0642 97.8748 86.8776 97.9925 86.6605 98.0873C86.4465 98.1791 86.2049 98.2249 85.9358 98.2249C85.5995 98.2249 85.3044 98.1592 85.0506 98.0277C84.7998 97.8962 84.6041 97.7204 84.4635 97.5002C84.3259 97.277 84.2571 97.0278 84.2571 96.7526C84.2571 96.4866 84.3091 96.2526 84.413 96.0508C84.517 95.846 84.6668 95.6762 84.8625 95.5417C85.0582 95.4041 85.2937 95.3001 85.5689 95.2298C85.8441 95.1595 86.1514 95.1243 86.4908 95.1243H87.477ZM86.023 91.088L86.9082 92.4365H86.1789L84.9955 91.088H86.023ZM89.2887 95.7068V95.6013C89.2887 95.2436 89.3407 94.9118 89.4447 94.606C89.5487 94.2972 89.6985 94.0296 89.8942 93.8033C90.0899 93.574 90.3269 93.3966 90.6051 93.2713C90.8834 93.1428 91.1953 93.0786 91.5408 93.0786C91.8894 93.0786 92.2028 93.1428 92.4811 93.2713C92.7624 93.3966 93.0009 93.574 93.1966 93.8033C93.3954 94.0296 93.5468 94.2972 93.6507 94.606C93.7547 94.9118 93.8067 95.2436 93.8067 95.6013V95.7068C93.8067 96.0646 93.7547 96.3964 93.6507 96.7021C93.5468 97.0079 93.3954 97.2755 93.1966 97.5048C93.0009 97.7311 92.764 97.9085 92.4857 98.0369C92.2105 98.1623 91.8986 98.2249 91.55 98.2249C91.2014 98.2249 90.888 98.1623 90.6097 98.0369C90.3315 97.9085 90.0929 97.7311 89.8942 97.5048C89.6985 97.2755 89.5487 97.0079 89.4447 96.7021C89.3407 96.3964 89.2887 96.0646 89.2887 95.7068ZM90.1373 95.6013V95.7068C90.1373 95.9545 90.1663 96.1884 90.2244 96.4086C90.2825 96.6257 90.3697 96.8183 90.4859 96.9865C90.6051 97.1547 90.7534 97.2877 90.9308 97.3856C91.1081 97.4804 91.3145 97.5278 91.55 97.5278C91.7824 97.5278 91.9857 97.4804 92.16 97.3856C92.3374 97.2877 92.4842 97.1547 92.6004 96.9865C92.7166 96.8183 92.8037 96.6257 92.8618 96.4086C92.923 96.1884 92.9535 95.9545 92.9535 95.7068V95.6013C92.9535 95.3567 92.923 95.1258 92.8618 94.9087C92.8037 94.6886 92.715 94.4944 92.5958 94.3262C92.4796 94.155 92.3328 94.0204 92.1555 93.9226C91.9812 93.8247 91.7763 93.7758 91.5408 93.7758C91.3084 93.7758 91.1036 93.8247 90.9262 93.9226C90.7519 94.0204 90.6051 94.155 90.4859 94.3262C90.3697 94.4944 90.2825 94.6886 90.2244 94.9087C90.1663 95.1258 90.1373 95.3567 90.1373 95.6013ZM95.6414 97.1241V97.8076C95.6414 98.0858 95.571 98.3794 95.4304 98.6882C95.2897 99.0001 95.0925 99.26 94.8387 99.468L94.3571 99.1331C94.4549 98.9986 94.5375 98.861 94.6048 98.7203C94.672 98.5827 94.7225 98.439 94.7561 98.2892C94.7928 98.1424 94.8112 97.9864 94.8112 97.8213V97.1241H95.6414ZM101.04 97.5278C101.242 97.5278 101.428 97.4865 101.6 97.4039C101.771 97.3214 101.911 97.2082 102.022 97.0645C102.132 96.9177 102.194 96.7511 102.21 96.5645H103.017C103.002 96.8581 102.902 97.1318 102.719 97.3856C102.538 97.6363 102.301 97.8397 102.008 97.9956C101.714 98.1485 101.392 98.2249 101.04 98.2249C100.667 98.2249 100.341 98.1592 100.063 98.0277C99.7878 97.8962 99.5584 97.7158 99.375 97.4865C99.1946 97.2571 99.0585 96.9942 98.9668 96.6976C98.8781 96.3979 98.8337 96.0814 98.8337 95.7481V95.5555C98.8337 95.2222 98.8781 94.9072 98.9668 94.6106C99.0585 94.3109 99.1946 94.0464 99.375 93.8171C99.5584 93.5877 99.7878 93.4073 100.063 93.2759C100.341 93.1444 100.667 93.0786 101.04 93.0786C101.428 93.0786 101.768 93.1581 102.058 93.3171C102.349 93.4731 102.577 93.6871 102.742 93.9593C102.91 94.2284 103.002 94.5341 103.017 94.8766H102.21C102.194 94.6717 102.136 94.4868 102.035 94.3216C101.937 94.1565 101.803 94.025 101.632 93.9272C101.463 93.8263 101.266 93.7758 101.04 93.7758C100.78 93.7758 100.561 93.8278 100.384 93.9318C100.21 94.0327 100.071 94.1703 99.9667 94.3446C99.8658 94.5158 99.7924 94.7069 99.7465 94.9179C99.7037 95.1258 99.6823 95.3384 99.6823 95.5555V95.7481C99.6823 95.9652 99.7037 96.1793 99.7465 96.3902C99.7893 96.6012 99.8612 96.7924 99.9621 96.9636C100.066 97.1348 100.205 97.2724 100.379 97.3764C100.557 97.4773 100.777 97.5278 101.04 97.5278ZM104.819 91.088V98.1332H103.971V91.088H104.819ZM104.618 95.4637L104.264 95.45C104.268 95.1105 104.318 94.7971 104.416 94.5097C104.514 94.2192 104.651 93.9669 104.829 93.7529C105.006 93.5388 105.217 93.3737 105.462 93.2575C105.709 93.1382 105.983 93.0786 106.283 93.0786C106.527 93.0786 106.747 93.1123 106.943 93.1795C107.139 93.2437 107.305 93.3477 107.443 93.4914C107.584 93.6351 107.691 93.8217 107.764 94.051C107.838 94.2773 107.874 94.554 107.874 94.8812V98.1332H107.021V94.872C107.021 94.6121 106.983 94.4042 106.906 94.2482C106.83 94.0892 106.718 93.9746 106.572 93.9042C106.425 93.8308 106.244 93.7942 106.03 93.7942C105.819 93.7942 105.627 93.8385 105.452 93.9272C105.281 94.0158 105.133 94.1382 105.007 94.2941C104.885 94.4501 104.789 94.6289 104.719 94.8308C104.651 95.0295 104.618 95.2405 104.618 95.4637ZM112.181 96.9865V93.1704H113.034V98.1332H112.222L112.181 96.9865ZM112.342 95.9407L112.695 95.9316C112.695 96.2618 112.66 96.5676 112.589 96.8489C112.522 97.1272 112.412 97.3688 112.259 97.5736C112.106 97.7785 111.906 97.939 111.658 98.0552C111.411 98.1684 111.109 98.2249 110.755 98.2249C110.513 98.2249 110.291 98.1898 110.09 98.1194C109.891 98.0491 109.72 97.9406 109.576 97.7938C109.432 97.647 109.321 97.4559 109.241 97.2204C109.165 96.985 109.126 96.7021 109.126 96.3719V93.1704H109.975V96.3811C109.975 96.6043 109.999 96.7893 110.048 96.9361C110.1 97.0798 110.169 97.1945 110.255 97.2801C110.343 97.3626 110.441 97.4207 110.548 97.4544C110.658 97.488 110.771 97.5048 110.888 97.5048C111.249 97.5048 111.534 97.436 111.745 97.2984C111.956 97.1578 112.108 96.9697 112.2 96.7343C112.294 96.4957 112.342 96.2312 112.342 95.9407ZM110.631 92.4365L111.521 91.088H112.544L111.314 92.4365H110.631ZM115.176 94.2299V98.1332H114.328V93.1704H115.13L115.176 94.2299ZM114.974 95.4637L114.621 95.45C114.624 95.1105 114.675 94.7971 114.773 94.5097C114.871 94.2192 115.008 93.9669 115.185 93.7529C115.363 93.5388 115.574 93.3737 115.818 93.2575C116.066 93.1382 116.34 93.0786 116.639 93.0786C116.884 93.0786 117.104 93.1123 117.3 93.1795C117.496 93.2437 117.662 93.3477 117.8 93.4914C117.941 93.6351 118.048 93.8217 118.121 94.051C118.194 94.2773 118.231 94.554 118.231 94.8812V98.1332H117.378V94.872C117.378 94.6121 117.34 94.4042 117.263 94.2482C117.187 94.0892 117.075 93.9746 116.928 93.9042C116.782 93.8308 116.601 93.7942 116.387 93.7942C116.176 93.7942 115.984 93.8385 115.809 93.9272C115.638 94.0158 115.49 94.1382 115.364 94.2941C115.242 94.4501 115.146 94.6289 115.075 94.8308C115.008 95.0295 114.974 95.2405 114.974 95.4637ZM122.735 93.1704H123.506V98.0277C123.506 98.465 123.417 98.838 123.24 99.1469C123.062 99.4557 122.815 99.6896 122.497 99.8486C122.182 100.011 121.818 100.092 121.405 100.092C121.234 100.092 121.032 100.064 120.8 100.009C120.57 99.9572 120.344 99.867 120.121 99.7386C119.901 99.6132 119.716 99.4435 119.566 99.2294L120.011 98.7249C120.219 98.9756 120.436 99.1499 120.662 99.2478C120.891 99.3456 121.118 99.3946 121.341 99.3946C121.61 99.3946 121.842 99.3441 122.038 99.2432C122.234 99.1423 122.385 98.9925 122.492 98.7937C122.602 98.598 122.657 98.3564 122.657 98.069V94.262L122.735 93.1704ZM119.318 95.7068V95.6105C119.318 95.2313 119.362 94.8873 119.451 94.5785C119.543 94.2666 119.673 93.999 119.841 93.7758C120.012 93.5526 120.219 93.3813 120.46 93.2621C120.702 93.1398 120.974 93.0786 121.277 93.0786C121.589 93.0786 121.861 93.1337 122.093 93.2437C122.329 93.3508 122.527 93.5082 122.689 93.7162C122.855 93.9211 122.984 94.1687 123.079 94.4592C123.174 94.7497 123.24 95.0784 123.276 95.4454V95.8674C123.243 96.2312 123.177 96.5584 123.079 96.8489C122.984 97.1394 122.855 97.3871 122.689 97.592C122.527 97.7968 122.329 97.9543 122.093 98.0644C121.858 98.1714 121.582 98.2249 121.267 98.2249C120.971 98.2249 120.702 98.1623 120.46 98.0369C120.222 97.9115 120.017 97.7357 119.846 97.5094C119.674 97.2831 119.543 97.0171 119.451 96.7113C119.362 96.4025 119.318 96.0676 119.318 95.7068ZM120.167 95.6105V95.7068C120.167 95.9545 120.191 96.1869 120.24 96.404C120.292 96.6211 120.37 96.8122 120.474 96.9774C120.581 97.1425 120.717 97.2724 120.882 97.3672C121.047 97.459 121.245 97.5048 121.474 97.5048C121.755 97.5048 121.988 97.4452 122.171 97.3259C122.355 97.2067 122.5 97.0492 122.607 96.8535C122.717 96.6578 122.803 96.4453 122.864 96.216V95.1105C122.83 94.9424 122.778 94.7803 122.708 94.6244C122.64 94.4653 122.552 94.3247 122.442 94.2024C122.335 94.077 122.202 93.9776 122.043 93.9042C121.884 93.8308 121.697 93.7942 121.483 93.7942C121.251 93.7942 121.05 93.8431 120.882 93.9409C120.717 94.0357 120.581 94.1672 120.474 94.3354C120.37 94.5005 120.292 94.6932 120.24 94.9133C120.191 95.1304 120.167 95.3628 120.167 95.6105ZM129.203 93.1704V93.8217H126.519V93.1704H129.203ZM127.427 91.964H128.276V96.904C128.276 97.0721 128.302 97.199 128.354 97.2847C128.406 97.3703 128.473 97.4269 128.556 97.4544C128.638 97.4819 128.727 97.4957 128.822 97.4957C128.892 97.4957 128.966 97.4895 129.042 97.4773C129.122 97.462 129.181 97.4498 129.221 97.4406L129.225 98.1332C129.158 98.1546 129.07 98.1745 128.959 98.1928C128.852 98.2142 128.722 98.2249 128.57 98.2249C128.362 98.2249 128.171 98.1837 127.996 98.1011C127.822 98.0185 127.683 97.8809 127.579 97.6883C127.478 97.4926 127.427 97.2296 127.427 96.8994V91.964ZM129.881 95.7068V95.6013C129.881 95.2436 129.933 94.9118 130.037 94.606C130.141 94.2972 130.291 94.0296 130.487 93.8033C130.683 93.574 130.92 93.3966 131.198 93.2713C131.476 93.1428 131.788 93.0786 132.133 93.0786C132.482 93.0786 132.795 93.1428 133.074 93.2713C133.355 93.3966 133.594 93.574 133.789 93.8033C133.988 94.0296 134.139 94.2972 134.243 94.606C134.347 94.9118 134.399 95.2436 134.399 95.6013V95.7068C134.399 96.0646 134.347 96.3964 134.243 96.7021C134.139 97.0079 133.988 97.2755 133.789 97.5048C133.594 97.7311 133.357 97.9085 133.078 98.0369C132.803 98.1623 132.491 98.2249 132.143 98.2249C131.794 98.2249 131.481 98.1623 131.202 98.0369C130.924 97.9085 130.686 97.7311 130.487 97.5048C130.291 97.2755 130.141 97.0079 130.037 96.7021C129.933 96.3964 129.881 96.0646 129.881 95.7068ZM130.73 95.6013V95.7068C130.73 95.9545 130.759 96.1884 130.817 96.4086C130.875 96.6257 130.962 96.8183 131.079 96.9865C131.198 97.1547 131.346 97.2877 131.523 97.3856C131.701 97.4804 131.907 97.5278 132.143 97.5278C132.375 97.5278 132.578 97.4804 132.753 97.3856C132.93 97.2877 133.077 97.1547 133.193 96.9865C133.309 96.8183 133.396 96.6257 133.454 96.4086C133.516 96.1884 133.546 95.9545 133.546 95.7068V95.6013C133.546 95.3567 133.516 95.1258 133.454 94.9087C133.396 94.6886 133.308 94.4944 133.188 94.3262C133.072 94.155 132.925 94.0204 132.748 93.9226C132.574 93.8247 132.369 93.7758 132.133 93.7758C131.901 93.7758 131.696 93.8247 131.519 93.9226C131.345 94.0204 131.198 94.155 131.079 94.3262C130.962 94.4944 130.875 94.6886 130.817 94.9087C130.759 95.1258 130.73 95.3567 130.73 95.6013ZM132.354 91.088L133.491 92.3402V92.386H132.785L132.097 91.6109L131.413 92.386H130.716V92.3356L131.84 91.088H132.354ZM136.385 93.1704V98.1332H135.532V93.1704H136.385ZM135.468 91.854C135.468 91.7164 135.509 91.6002 135.592 91.5054C135.677 91.4106 135.803 91.3632 135.968 91.3632C136.13 91.3632 136.254 91.4106 136.34 91.5054C136.428 91.6002 136.473 91.7164 136.473 91.854C136.473 91.9854 136.428 92.0986 136.34 92.1934C136.254 92.2851 136.13 92.331 135.968 92.331C135.803 92.331 135.677 92.2851 135.592 92.1934C135.509 92.0986 135.468 91.9854 135.468 91.854ZM143.206 97.17V91.088H144.059V98.1332H143.279L143.206 97.17ZM139.867 95.7068V95.6105C139.867 95.2313 139.913 94.8873 140.004 94.5785C140.099 94.2666 140.232 93.999 140.403 93.7758C140.578 93.5526 140.784 93.3813 141.023 93.2621C141.264 93.1398 141.533 93.0786 141.83 93.0786C142.142 93.0786 142.414 93.1337 142.646 93.2437C142.882 93.3508 143.08 93.5082 143.243 93.7162C143.408 93.9211 143.538 94.1687 143.632 94.4592C143.727 94.7497 143.793 95.0784 143.83 95.4454V95.8674C143.796 96.2312 143.73 96.5584 143.632 96.8489C143.538 97.1394 143.408 97.3871 143.243 97.592C143.08 97.7968 142.882 97.9543 142.646 98.0644C142.411 98.1714 142.136 98.2249 141.821 98.2249C141.53 98.2249 141.264 98.1623 141.023 98.0369C140.784 97.9115 140.578 97.7357 140.403 97.5094C140.232 97.2831 140.099 97.0171 140.004 96.7113C139.913 96.4025 139.867 96.0676 139.867 95.7068ZM140.72 95.6105V95.7068C140.72 95.9545 140.744 96.1869 140.793 96.404C140.845 96.6211 140.925 96.8122 141.032 96.9774C141.139 97.1425 141.275 97.2724 141.44 97.3672C141.605 97.459 141.802 97.5048 142.032 97.5048C142.313 97.5048 142.544 97.4452 142.724 97.3259C142.908 97.2067 143.055 97.0492 143.165 96.8535C143.275 96.6578 143.36 96.4453 143.421 96.216V95.1105C143.385 94.9424 143.331 94.7803 143.261 94.6244C143.194 94.4653 143.105 94.3247 142.995 94.2024C142.888 94.077 142.755 93.9776 142.596 93.9042C142.44 93.8308 142.255 93.7942 142.041 93.7942C141.808 93.7942 141.608 93.8431 141.44 93.9409C141.275 94.0357 141.139 94.1672 141.032 94.3354C140.925 94.5005 140.845 94.6932 140.793 94.9133C140.744 95.1304 140.72 95.3628 140.72 95.6105ZM144.921 91.7806V92.4778H142V91.7806H144.921ZM147.751 98.2249C147.406 98.2249 147.092 98.1668 146.811 98.0506C146.533 97.9314 146.293 97.7647 146.091 97.5507C145.892 97.3366 145.739 97.0828 145.632 96.7893C145.525 96.4957 145.472 96.1747 145.472 95.8261V95.6334C145.472 95.2298 145.531 94.8705 145.651 94.5556C145.77 94.2375 145.932 93.9684 146.137 93.7483C146.342 93.5281 146.574 93.3615 146.834 93.2483C147.094 93.1352 147.363 93.0786 147.641 93.0786C147.996 93.0786 148.302 93.1398 148.559 93.2621C148.819 93.3844 149.031 93.5556 149.196 93.7758C149.361 93.9929 149.484 94.2498 149.563 94.5464C149.643 94.8399 149.682 95.161 149.682 95.5096V95.8903H145.976V95.1977H148.834V95.1335C148.822 94.9133 148.776 94.6993 148.696 94.4913C148.62 94.2834 148.497 94.1122 148.329 93.9776C148.161 93.8431 147.932 93.7758 147.641 93.7758C147.449 93.7758 147.271 93.8171 147.109 93.8996C146.947 93.9792 146.808 94.0984 146.692 94.2574C146.576 94.4164 146.485 94.6106 146.421 94.8399C146.357 95.0693 146.325 95.3338 146.325 95.6334V95.8261C146.325 96.0615 146.357 96.2832 146.421 96.4912C146.488 96.696 146.585 96.8764 146.71 97.0324C146.839 97.1883 146.993 97.3107 147.173 97.3993C147.357 97.488 147.565 97.5323 147.797 97.5323C148.097 97.5323 148.351 97.4712 148.559 97.3489C148.767 97.2266 148.948 97.063 149.104 96.8581L149.618 97.2663C149.511 97.4284 149.375 97.5828 149.21 97.7296C149.045 97.8764 148.841 97.9956 148.6 98.0873C148.361 98.1791 148.079 98.2249 147.751 98.2249ZM145.953 92.4365L147.288 91.2348H147.985L149.32 92.4365H148.416L147.637 91.7118L146.857 92.4365H145.953ZM148.981 91.6246L149.627 90.4412H150.545L149.623 91.6246H148.981ZM151.522 94.2299V98.1332H150.673V93.1704H151.476L151.522 94.2299ZM151.32 95.4637L150.967 95.45C150.97 95.1105 151.02 94.7971 151.118 94.5097C151.216 94.2192 151.353 93.9669 151.531 93.7529C151.708 93.5388 151.919 93.3737 152.164 93.2575C152.411 93.1382 152.685 93.0786 152.985 93.0786C153.229 93.0786 153.45 93.1123 153.645 93.1795C153.841 93.2437 154.008 93.3477 154.145 93.4914C154.286 93.6351 154.393 93.8217 154.466 94.051C154.54 94.2773 154.576 94.554 154.576 94.8812V98.1332H153.723V94.872C153.723 94.6121 153.685 94.4042 153.609 94.2482C153.532 94.0892 153.421 93.9746 153.274 93.9042C153.127 93.8308 152.947 93.7942 152.733 93.7942C152.522 93.7942 152.329 93.8385 152.155 93.9272C151.983 94.0158 151.835 94.1382 151.71 94.2941C151.587 94.4501 151.491 94.6289 151.421 94.8308C151.353 95.0295 151.32 95.2405 151.32 95.4637ZM160.273 93.1704V93.8217H157.59V93.1704H160.273ZM158.498 91.964H159.347V96.904C159.347 97.0721 159.373 97.199 159.425 97.2847C159.477 97.3703 159.544 97.4269 159.626 97.4544C159.709 97.4819 159.798 97.4957 159.892 97.4957C159.963 97.4957 160.036 97.4895 160.113 97.4773C160.192 97.462 160.252 97.4498 160.291 97.4406L160.296 98.1332C160.229 98.1546 160.14 98.1745 160.03 98.1928C159.923 98.2142 159.793 98.2249 159.64 98.2249C159.432 98.2249 159.241 98.1837 159.067 98.1011C158.893 98.0185 158.753 97.8809 158.649 97.6883C158.549 97.4926 158.498 97.2296 158.498 96.8994V91.964ZM165.915 92.7713H166.566C166.566 93.1046 166.522 93.3844 166.433 93.6107C166.347 93.837 166.196 94.0067 165.979 94.1198C165.762 94.233 165.456 94.2895 165.062 94.2895V93.7666C165.337 93.7666 165.534 93.733 165.653 93.6657C165.773 93.5954 165.846 93.4868 165.874 93.3401C165.901 93.1933 165.915 93.0037 165.915 92.7713ZM164.305 96.9865V93.1704H165.158V98.1332H164.346L164.305 96.9865ZM164.465 95.9407L164.819 95.9316C164.819 96.2618 164.783 96.5676 164.713 96.8489C164.646 97.1272 164.536 97.3688 164.383 97.5736C164.23 97.7785 164.03 97.939 163.782 98.0552C163.534 98.1684 163.233 98.2249 162.878 98.2249C162.637 98.2249 162.415 98.1898 162.213 98.1194C162.015 98.0491 161.843 97.9406 161.7 97.7938C161.556 97.647 161.444 97.4559 161.365 97.2204C161.288 96.985 161.25 96.7021 161.25 96.3719V93.1704H162.099V96.3811C162.099 96.6043 162.123 96.7893 162.172 96.9361C162.224 97.0798 162.293 97.1945 162.378 97.2801C162.467 97.3626 162.565 97.4207 162.672 97.4544C162.782 97.488 162.895 97.5048 163.011 97.5048C163.372 97.5048 163.658 97.436 163.869 97.2984C164.08 97.1578 164.231 96.9697 164.323 96.7343C164.418 96.4957 164.465 96.2312 164.465 95.9407ZM162.878 91.1843L163.764 92.5328H163.034L161.851 91.1843H162.878ZM167.098 97.6837C167.098 97.54 167.143 97.4192 167.231 97.3214C167.323 97.2204 167.454 97.17 167.626 97.17C167.797 97.17 167.927 97.2204 168.016 97.3214C168.107 97.4192 168.153 97.54 168.153 97.6837C168.153 97.8244 168.107 97.9436 168.016 98.0415C167.927 98.1393 167.797 98.1883 167.626 98.1883C167.454 98.1883 167.323 98.1393 167.231 98.0415C167.143 97.9436 167.098 97.8244 167.098 97.6837ZM169.575 97.6837C169.575 97.54 169.619 97.4192 169.708 97.3214C169.8 97.2204 169.931 97.17 170.103 97.17C170.274 97.17 170.404 97.2204 170.492 97.3214C170.584 97.4192 170.63 97.54 170.63 97.6837C170.63 97.8244 170.584 97.9436 170.492 98.0415C170.404 98.1393 170.274 98.1883 170.103 98.1883C169.931 98.1883 169.8 98.1393 169.708 98.0415C169.619 97.9436 169.575 97.8244 169.575 97.6837ZM172.052 97.6837C172.052 97.54 172.096 97.4192 172.185 97.3214C172.277 97.2204 172.408 97.17 172.579 97.17C172.751 97.17 172.881 97.2204 172.969 97.3214C173.061 97.4192 173.107 97.54 173.107 97.6837C173.107 97.8244 173.061 97.9436 172.969 98.0415C172.881 98.1393 172.751 98.1883 172.579 98.1883C172.408 98.1883 172.277 98.1393 172.185 98.0415C172.096 97.9436 172.052 97.8244 172.052 97.6837Z" fill="#5D5C5D"/>
<path d="M169.714 68.0295L168.81 67.8133L169.137 64.9119H172.352V65.8279H170.068L169.927 67.0978C170.003 67.0532 170.118 67.006 170.273 66.9562C170.427 66.9038 170.6 66.8776 170.792 66.8776C171.069 66.8776 171.316 66.9208 171.531 67.0073C171.746 67.0938 171.928 67.2196 172.077 67.3848C172.229 67.5499 172.345 67.7517 172.423 67.9902C172.502 68.2287 172.541 68.4987 172.541 68.8001C172.541 69.0543 172.502 69.2968 172.423 69.5274C172.345 69.7555 172.225 69.9599 172.065 70.1407C171.906 70.319 171.705 70.4592 171.464 70.5614C171.223 70.6636 170.937 70.7147 170.607 70.7147C170.361 70.7147 170.122 70.678 169.891 70.6047C169.663 70.5313 169.458 70.4225 169.274 70.2783C169.093 70.1342 168.948 69.9599 168.838 69.7555C168.73 69.5484 168.674 69.3125 168.669 69.0478H169.793C169.809 69.2103 169.851 69.3505 169.919 69.4685C169.99 69.5838 170.083 69.6729 170.198 69.7358C170.313 69.7987 170.448 69.8302 170.603 69.8302C170.747 69.8302 170.87 69.8026 170.973 69.7476C171.075 69.6926 171.157 69.6165 171.22 69.5196C171.283 69.42 171.329 69.3046 171.358 69.1736C171.389 69.0399 171.405 68.8958 171.405 68.7411C171.405 68.5865 171.387 68.4463 171.35 68.3205C171.313 68.1947 171.257 68.0859 171.181 67.9941C171.105 67.9024 171.008 67.8316 170.89 67.7818C170.775 67.732 170.64 67.7071 170.485 67.7071C170.275 67.7071 170.113 67.7399 169.998 67.8054C169.885 67.871 169.79 67.9457 169.714 68.0295ZM177.408 66.3822V67.1843H174.932V66.3822H177.408ZM175.545 65.3325H176.677V69.3544C176.677 69.4776 176.693 69.572 176.724 69.6375C176.758 69.703 176.808 69.7489 176.874 69.7751C176.939 69.7987 177.022 69.8105 177.121 69.8105C177.192 69.8105 177.255 69.8079 177.31 69.8026C177.368 69.7948 177.416 69.7869 177.456 69.779L177.459 70.6125C177.362 70.644 177.258 70.6689 177.145 70.6872C177.032 70.7056 176.908 70.7147 176.771 70.7147C176.522 70.7147 176.305 70.6741 176.119 70.5929C175.935 70.509 175.794 70.3753 175.694 70.1918C175.595 70.0084 175.545 69.7672 175.545 69.4685V65.3325ZM179.158 64.5973V70.6361H178.026V64.5973H179.158ZM178.997 68.3598H178.686C178.689 68.0636 178.728 67.791 178.804 67.542C178.88 67.2904 178.989 67.0729 179.13 66.8894C179.272 66.7033 179.441 66.5592 179.638 66.4569C179.837 66.3547 180.057 66.3036 180.298 66.3036C180.508 66.3036 180.698 66.3337 180.868 66.394C181.041 66.4517 181.189 66.546 181.312 66.6771C181.438 66.8055 181.535 66.9746 181.603 67.1843C181.671 67.3939 181.705 67.6482 181.705 67.947V70.6361H180.565V67.9391C180.565 67.7504 180.538 67.6023 180.483 67.4948C180.43 67.3848 180.353 67.3074 180.251 67.2629C180.151 67.2157 180.028 67.1921 179.881 67.1921C179.719 67.1921 179.58 67.2223 179.465 67.2825C179.352 67.3428 179.261 67.4267 179.193 67.5342C179.125 67.639 179.075 67.7622 179.044 67.9037C179.012 68.0453 178.997 68.1973 178.997 68.3598ZM185.26 66.3822H186.286V70.4946C186.286 70.8825 186.199 71.2114 186.026 71.4814C185.856 71.754 185.617 71.9597 185.311 72.0986C185.004 72.2402 184.648 72.3109 184.241 72.3109C184.063 72.3109 183.874 72.2873 183.675 72.2402C183.479 72.193 183.29 72.1196 183.109 72.02C182.931 71.9204 182.781 71.7946 182.661 71.6426L183.16 70.9742C183.291 71.1262 183.443 71.2442 183.616 71.3281C183.789 71.4145 183.981 71.4578 184.19 71.4578C184.395 71.4578 184.568 71.4198 184.709 71.3438C184.851 71.2704 184.959 71.1616 185.035 71.0175C185.111 70.8759 185.149 70.7043 185.149 70.5024V67.3651L185.26 66.3822ZM182.397 68.5603V68.4777C182.397 68.1527 182.437 67.8579 182.515 67.5931C182.597 67.3258 182.711 67.0965 182.857 66.9051C183.007 66.7138 183.188 66.5657 183.4 66.4609C183.612 66.356 183.852 66.3036 184.119 66.3036C184.402 66.3036 184.64 66.356 184.831 66.4609C185.022 66.5657 185.18 66.7151 185.303 66.9091C185.426 67.1004 185.522 67.3271 185.59 67.5892C185.661 67.8487 185.716 68.1331 185.755 68.4423V68.6232C185.716 68.9194 185.657 69.1946 185.578 69.4488C185.499 69.703 185.396 69.9258 185.267 70.1172C185.139 70.3059 184.979 70.4526 184.788 70.5575C184.599 70.6623 184.374 70.7147 184.112 70.7147C183.849 70.7147 183.612 70.661 183.4 70.5535C183.19 70.4461 183.011 70.2954 182.861 70.1014C182.712 69.9075 182.597 69.6794 182.515 69.4173C182.437 69.1552 182.397 68.8696 182.397 68.5603ZM183.53 68.4777V68.5603C183.53 68.7359 183.547 68.8997 183.581 69.0517C183.615 69.2037 183.667 69.3387 183.738 69.4567C183.811 69.572 183.902 69.6624 184.009 69.7279C184.119 69.7908 184.249 69.8223 184.399 69.8223C184.606 69.8223 184.775 69.779 184.906 69.6926C185.037 69.6034 185.135 69.4816 185.201 69.3269C185.266 69.1723 185.304 68.9941 185.315 68.7922V68.2772C185.309 68.1121 185.287 67.964 185.248 67.833C185.208 67.6993 185.153 67.5853 185.083 67.4909C185.012 67.3966 184.92 67.3232 184.807 67.2708C184.695 67.2183 184.561 67.1921 184.406 67.1921C184.257 67.1921 184.127 67.2262 184.017 67.2943C183.91 67.3599 183.819 67.4503 183.746 67.5656C183.675 67.6809 183.621 67.8172 183.585 67.9745C183.548 68.1291 183.53 68.2969 183.53 68.4777ZM191.884 64.9001V70.6361H190.752V66.2053L189.392 66.6378V65.7453L191.762 64.9001H191.884Z" fill="#292929"/>
<path d="M191.89 85.7782L193.617 89.2785L197.481 89.8432L194.685 92.5662L195.345 96.4132L191.89 94.5959L188.434 96.4132L189.094 92.5662L186.298 89.8432L190.162 89.2785L191.89 85.7782Z" fill="#FBBC05"/>
<circle cx="34.1503" cy="73.3649" r="12.413" fill="#FFA940"/>
<path d="M28.244 67.6154H30.4628C31.4121 67.6154 32.1306 67.7486 32.6183 68.0152C33.106 68.2818 33.3498 68.75 33.3498 69.4197C33.3498 69.6895 33.3059 69.9334 33.2181 70.1512C33.1336 70.369 33.01 70.5478 32.8475 70.6876C32.6849 70.8274 32.4866 70.9184 32.2525 70.9607V71.0095C32.4899 71.0582 32.7044 71.1428 32.8963 71.2631C33.0881 71.3801 33.2409 71.5524 33.3547 71.78C33.4717 72.0043 33.5302 72.3034 33.5302 72.6773C33.5302 73.1097 33.4246 73.4803 33.2132 73.7891C33.0019 74.098 32.6996 74.3353 32.3062 74.5011C31.9161 74.6637 31.4512 74.745 30.9115 74.745H28.244V67.6154ZM29.7557 70.4389H30.6335C31.0724 70.4389 31.3764 70.3706 31.5454 70.2341C31.7145 70.0943 31.799 69.8895 31.799 69.6196C31.799 69.3466 31.6982 69.1515 31.4967 69.0344C31.2984 68.9142 30.983 68.854 30.5506 68.854H29.7557V70.4389ZM29.7557 71.6386V73.4965H30.7408C31.1959 73.4965 31.5129 73.4088 31.6917 73.2332C31.8705 73.0577 31.96 72.8219 31.96 72.5261C31.96 72.3505 31.9209 72.1961 31.8429 72.0628C31.7649 71.9295 31.6332 71.8255 31.4479 71.7507C31.2658 71.6759 31.0139 71.6386 30.692 71.6386H29.7557ZM39.3188 74.745L38.8018 73.0479H36.2026L35.6857 74.745H34.0569L36.5732 67.5861H38.4215L40.9475 74.745H39.3188ZM38.441 71.78L37.924 70.1219C37.8915 70.0114 37.8476 69.87 37.7924 69.6977C37.7404 69.5221 37.6867 69.3449 37.6314 69.1661C37.5794 68.9841 37.5372 68.8264 37.5047 68.6931C37.4721 68.8264 37.4266 68.9922 37.3681 69.1905C37.3128 69.3856 37.2592 69.5709 37.2072 69.7464C37.1552 69.922 37.1178 70.0472 37.095 70.1219L36.583 71.78H38.441Z" fill="white"/>
</g>
<g filter="url(#filter1_d_467_46052)">
<rect x="185.324" y="117.641" width="29.0539" height="29.0539" rx="4.84232" fill="#FAFAFA"/>
<g clip-path="url(#clip0_467_46052)">
<path d="M205.648 128.612L202.069 132.168L205.648 135.725C205.713 135.59 205.752 135.44 205.752 135.28V129.056C205.752 128.896 205.713 128.747 205.648 128.612Z" fill="#2F61E6"/>
<path d="M204.715 128.019H194.987C194.827 128.019 194.678 128.058 194.542 128.123L199.117 132.675C199.522 133.079 200.18 133.079 200.584 132.675L205.16 128.123C205.024 128.058 204.875 128.019 204.715 128.019Z" fill="#2F61E6"/>
<path d="M194.054 128.612C193.99 128.747 193.95 128.896 193.95 129.056V135.28C193.95 135.44 193.99 135.59 194.054 135.725L197.634 132.168L194.054 128.612Z" fill="#2F61E6"/>
<path d="M201.58 132.657L201.073 133.164C200.399 133.838 199.302 133.838 198.628 133.164L198.122 132.657L194.542 136.214C194.678 136.279 194.827 136.318 194.987 136.318H204.715C204.875 136.318 205.024 136.279 205.16 136.214L201.58 132.657Z" fill="#2F61E6"/>
</g>
</g>
<g filter="url(#filter2_d_467_46052)">
<rect x="55.3309" y="2.33311" width="29.0539" height="29.0539" rx="14.527" fill="#D3ADF7"/>
<g clip-path="url(#clip1_467_46052)">
<path d="M74.9942 10.7226C74.828 10.5565 74.5585 10.5565 74.3923 10.7226C74.2261 10.8889 74.2261 11.1583 74.3923 11.3245C75.6035 12.5356 76.2705 14.1459 76.2705 15.8587C76.2705 16.0938 76.461 16.2843 76.6961 16.2843C76.9311 16.2843 77.1217 16.0938 77.1217 15.8587C77.1217 13.9185 76.3661 12.0945 74.9942 10.7226Z" fill="white"/>
<path d="M65.3231 10.7227C65.1569 10.5565 64.8874 10.5564 64.7212 10.7227C63.3493 12.0946 62.5938 13.9186 62.5938 15.8587C62.5938 16.0937 62.7844 16.2843 63.0194 16.2843C63.2544 16.2843 63.445 16.0937 63.445 15.8587C63.445 14.146 64.112 12.5357 65.3231 11.3246C65.4893 11.1583 65.4893 10.8889 65.3231 10.7227Z" fill="white"/>
<path d="M73.1024 12.012C72.9362 12.1782 72.9362 12.4477 73.1024 12.6139C73.9692 13.4806 74.4465 14.633 74.4465 15.8588C74.4465 16.0939 74.6371 16.2844 74.8721 16.2844C75.1072 16.2844 75.2977 16.0939 75.2977 15.8588C75.2977 14.4056 74.7318 13.0395 73.7043 12.012C73.538 11.8458 73.2686 11.8458 73.1024 12.012Z" fill="white"/>
<path d="M66.6132 12.0122C66.447 11.846 66.1775 11.846 66.0113 12.0122C64.9839 13.0398 64.418 14.4058 64.418 15.8588C64.418 16.0939 64.6086 16.2844 64.8436 16.2844C65.0787 16.2844 65.2692 16.0939 65.2692 15.8588C65.2692 14.6332 65.7465 13.4809 66.6132 12.6141C66.7794 12.4479 66.7794 12.1784 66.6132 12.0122Z" fill="white"/>
<path d="M73.4751 18.9494V16.7706C73.4751 15.9759 73.2221 15.2217 72.7434 14.5897C72.3433 14.0615 71.7976 13.6489 71.1846 13.4061C71.0993 12.7504 70.5371 12.2423 69.8585 12.2423C69.1799 12.2423 68.6176 12.7503 68.5323 13.4061C67.9193 13.6489 67.3737 14.0615 66.9736 14.5897C66.4949 15.2217 66.2418 15.9759 66.2418 16.7706V18.9494L65.3751 20.683C65.3091 20.815 65.3162 20.9716 65.3937 21.0971C65.4713 21.2226 65.6082 21.299 65.7557 21.299H67.6503C67.8499 22.3362 68.7639 23.1224 69.8585 23.1224C70.953 23.1224 71.867 22.3362 72.0665 21.299H73.9612C74.1087 21.299 74.2457 21.2226 74.3233 21.0971C74.4008 20.9716 74.4078 20.815 74.3419 20.683L73.4751 18.9494ZM69.8585 22.2712C69.236 22.2712 68.7073 21.8623 68.5269 21.299H71.1901C71.0096 21.8623 70.4809 22.2712 69.8585 22.2712ZM71.6819 20.4478H68.035H66.4444L67.0481 19.2402C67.0777 19.1811 67.0931 19.116 67.0931 19.0499V16.7706C67.0931 15.5565 67.9052 14.4667 69.0682 14.1204C69.2486 14.0667 69.3723 13.9008 69.3723 13.7126V13.5796C69.3723 13.3116 69.5904 13.0935 69.8585 13.0935C70.1265 13.0935 70.3446 13.3116 70.3446 13.5796V13.7126C70.3446 13.9008 70.4683 14.0667 70.6488 14.1204C71.8117 14.4667 72.6239 15.5564 72.6239 16.7706V19.0499C72.6239 19.116 72.6393 19.1811 72.6688 19.2402L73.2726 20.4478H71.6819Z" fill="white"/>
</g>
</g>
<defs>
<filter id="filter0_d_467_46052" x="0.104772" y="47.73" width="225.168" height="82.6222" filterUnits="userSpaceOnUse" color-interpolation-filters="sRGB">
<feFlood flood-opacity="0" result="BackgroundImageFix"/>
<feColorMatrix in="SourceAlpha" type="matrix" values="0 0 0 0 0 0 0 0 0 0 0 0 0 0 0 0 0 0 127 0" result="hardAlpha"/>
<feMorphology radius="7.26349" operator="erode" in="SourceAlpha" result="effect1_dropShadow_467_46052"/>
<feOffset dy="9.07936"/>
<feGaussianBlur stdDeviation="9.07936"/>
<feComposite in2="hardAlpha" operator="out"/>
<feColorMatrix type="matrix" values="0 0 0 0 0.172549 0 0 0 0 0.239216 0 0 0 0 0.415686 0 0 0 0.25 0"/>
<feBlend mode="normal" in2="BackgroundImageFix" result="effect1_dropShadow_467_46052"/>
<feBlend mode="normal" in="SourceGraphic" in2="effect1_dropShadow_467_46052" result="shape"/>
</filter>
<filter id="filter1_d_467_46052" x="174.429" y="115.825" width="50.8444" height="50.8444" filterUnits="userSpaceOnUse" color-interpolation-filters="sRGB">
<feFlood flood-opacity="0" result="BackgroundImageFix"/>
<feColorMatrix in="SourceAlpha" type="matrix" values="0 0 0 0 0 0 0 0 0 0 0 0 0 0 0 0 0 0 127 0" result="hardAlpha"/>
<feMorphology radius="7.26349" operator="erode" in="SourceAlpha" result="effect1_dropShadow_467_46052"/>
<feOffset dy="9.07936"/>
<feGaussianBlur stdDeviation="9.07936"/>
<feComposite in2="hardAlpha" operator="out"/>
<feColorMatrix type="matrix" values="0 0 0 0 0.172549 0 0 0 0 0.239216 0 0 0 0 0.415686 0 0 0 0.25 0"/>
<feBlend mode="normal" in2="BackgroundImageFix" result="effect1_dropShadow_467_46052"/>
<feBlend mode="normal" in="SourceGraphic" in2="effect1_dropShadow_467_46052" result="shape"/>
</filter>
<filter id="filter2_d_467_46052" x="44.4357" y="0.517244" width="50.8444" height="50.8444" filterUnits="userSpaceOnUse" color-interpolation-filters="sRGB">
<feFlood flood-opacity="0" result="BackgroundImageFix"/>
<feColorMatrix in="SourceAlpha" type="matrix" values="0 0 0 0 0 0 0 0 0 0 0 0 0 0 0 0 0 0 127 0" result="hardAlpha"/>
<feMorphology radius="7.26349" operator="erode" in="SourceAlpha" result="effect1_dropShadow_467_46052"/>
<feOffset dy="9.07936"/>
<feGaussianBlur stdDeviation="9.07936"/>
<feComposite in2="hardAlpha" operator="out"/>
<feColorMatrix type="matrix" values="0 0 0 0 0.172549 0 0 0 0 0.239216 0 0 0 0 0.415686 0 0 0 0.25 0"/>
<feBlend mode="normal" in2="BackgroundImageFix" result="effect1_dropShadow_467_46052"/>
<feBlend mode="normal" in="SourceGraphic" in2="effect1_dropShadow_467_46052" result="shape"/>
</filter>
<clipPath id="clip0_467_46052">
<rect width="11.8032" height="11.8032" fill="white" transform="translate(193.948 126.267)"/>
</clipPath>
<clipPath id="clip1_467_46052">
<rect width="14.527" height="14.527" fill="white" transform="translate(62.5937 9.59686)"/>
</clipPath>
</defs>
</svg>
