<svg width="153" height="109" viewBox="0 0 153 109" fill="none" xmlns="http://www.w3.org/2000/svg">
<g filter="url(#filter0_d_632_11065)">
<rect x="8.52051" y="36.4019" width="135.479" height="35.704" rx="5.31292" fill="white" shape-rendering="crispEdges"/>
<path d="M45.6141 51.1453H44.4296V46.5447H42.9126V45.5589H47.1311V46.5447H45.6141V51.1453ZM49.0645 45.1997V46.411C49.0645 46.6224 49.0569 46.8236 49.0416 47.0147C49.0289 47.2058 49.0187 47.3408 49.0111 47.4197H49.0722C49.1639 47.272 49.2722 47.1523 49.397 47.0606C49.5243 46.9688 49.6645 46.9013 49.8173 46.858C49.9701 46.8147 50.1344 46.7931 50.3102 46.7931C50.6184 46.7931 50.8872 46.8478 51.1165 46.9574C51.3457 47.0644 51.524 47.2338 51.6514 47.4656C51.7788 47.6948 51.8425 47.9929 51.8425 48.3597V51.1453H50.677V48.6501C50.677 48.3444 50.621 48.1139 50.5089 47.9585C50.3968 47.8031 50.2236 47.7254 49.9892 47.7254C49.7549 47.7254 49.5702 47.7802 49.4352 47.8897C49.3002 47.9967 49.2047 48.1559 49.1486 48.3674C49.0926 48.5762 49.0645 48.8322 49.0645 49.1354V51.1453H47.8991V45.1997H49.0645ZM58.6822 46.2314L58.7395 46.3154C58.6962 46.5294 58.6388 46.7307 58.5675 46.9192C58.4962 47.1051 58.3956 47.2733 58.2657 47.4236C58.1383 47.5738 57.9689 47.6999 57.7575 47.8018C57.5486 47.9037 57.2836 47.9776 56.9627 48.0235V51.1453H56.0686L55.9119 50.5989H55.8431C55.7514 50.7441 55.6368 50.8625 55.4992 50.9542C55.3617 51.0459 55.2101 51.1134 55.0445 51.1567C54.8815 51.2 54.7121 51.2217 54.5363 51.2217C54.2306 51.2217 53.9644 51.1682 53.7377 51.0612C53.511 50.9517 53.3339 50.7823 53.2066 50.553C53.0818 50.3237 53.0193 50.0257 53.0193 49.6589V46.8733H54.1848V49.3685C54.1848 49.6742 54.2395 49.9047 54.3491 50.0601C54.4586 50.2155 54.6331 50.2932 54.8726 50.2932C55.2292 50.2932 55.4725 50.1722 55.6024 49.9302C55.7323 49.6856 55.7973 49.3366 55.7973 48.8832V46.8733H56.9627V47.3204C57.0926 47.2771 57.1996 47.2045 57.2836 47.1026C57.3677 47.0007 57.4301 46.8759 57.4709 46.7281C57.5116 46.5778 57.532 46.4122 57.532 46.2314H58.6822ZM62.7554 51.2217C62.3325 51.2217 61.9721 51.1453 61.674 50.9924C61.376 50.837 61.1493 50.5976 60.9939 50.2741C60.8385 49.9505 60.7608 49.5366 60.7608 49.0322C60.7608 48.51 60.8487 48.0846 61.0245 47.756C61.2028 47.4248 61.4486 47.1816 61.7619 47.0262C62.0778 46.8708 62.4434 46.7931 62.8586 46.7931C63.1541 46.7931 63.4088 46.8224 63.6228 46.881C63.8393 46.937 64.0278 47.0045 64.1883 47.0835L63.8444 47.9852C63.661 47.9114 63.4903 47.8515 63.3324 47.8057C63.1744 47.7573 63.0165 47.7331 62.8586 47.7331C62.6548 47.7331 62.4854 47.7815 62.3504 47.8783C62.2154 47.9725 62.1147 48.1152 62.0485 48.3062C61.9823 48.4973 61.9492 48.7367 61.9492 49.0246C61.9492 49.3073 61.9848 49.5417 62.0561 49.7277C62.1275 49.9136 62.2306 50.0524 62.3657 50.1441C62.5007 50.2333 62.665 50.2779 62.8586 50.2779C63.1006 50.2779 63.3158 50.246 63.5043 50.1824C63.6928 50.1161 63.8762 50.0244 64.0546 49.9072V50.9045C63.8762 51.0166 63.689 51.0969 63.4929 51.1453C63.2993 51.1962 63.0534 51.2217 62.7554 51.2217ZM66.7981 46.7854C67.3712 46.7854 67.8107 46.9103 68.1163 47.1599C68.422 47.4095 68.5749 47.7891 68.5749 48.2986V51.1453H67.761L67.5355 50.5645H67.505C67.3827 50.7173 67.2579 50.8421 67.1305 50.9389C67.0031 51.0357 66.8567 51.1071 66.6911 51.1529C66.5255 51.1988 66.3243 51.2217 66.0874 51.2217C65.8352 51.2217 65.6085 51.1733 65.4072 51.0765C65.2085 50.9797 65.0519 50.8319 64.9372 50.6332C64.8226 50.432 64.7653 50.1773 64.7653 49.869C64.7653 49.4156 64.9245 49.0819 65.2429 48.8679C65.5613 48.6514 66.039 48.5317 66.6758 48.5087L67.4171 48.4858V48.2986C67.4171 48.0744 67.3585 47.9101 67.2413 47.8057C67.1241 47.7012 66.9611 47.649 66.7522 47.649C66.5459 47.649 66.3434 47.6783 66.1447 47.7369C65.946 47.7955 65.7473 47.8693 65.5486 47.9585L65.1627 47.1714C65.3894 47.0516 65.6428 46.9574 65.9231 46.8886C66.2058 46.8198 66.4975 46.7854 66.7981 46.7854ZM67.4171 49.166L66.9662 49.1812C66.5892 49.1914 66.3268 49.2589 66.1791 49.3838C66.0339 49.5086 65.9613 49.6729 65.9613 49.8767C65.9613 50.055 66.0135 50.1824 66.1179 50.2588C66.2224 50.3327 66.3587 50.3696 66.5268 50.3696C66.7764 50.3696 66.9866 50.2957 67.1573 50.148C67.3305 50.0002 67.4171 49.7901 67.4171 49.5175V49.166ZM67.7801 45.4633C67.7801 45.6595 67.7279 45.8213 67.6234 45.9486C67.519 46.076 67.3649 46.1652 67.1611 46.2161L67.1229 46.4874H66.458L66.3701 45.9257C66.5612 45.8951 66.6911 45.848 66.7599 45.7843C66.8287 45.7181 66.863 45.6378 66.863 45.5436C66.863 45.4621 66.8363 45.3997 66.7828 45.3564C66.7293 45.3131 66.6593 45.2914 66.5726 45.2914C66.4707 45.2914 66.3765 45.3003 66.2899 45.3181C66.2058 45.3334 66.123 45.3538 66.0415 45.3793V44.7373C66.1154 44.7119 66.2147 44.6915 66.3396 44.6762C66.4644 44.6584 66.5892 44.6495 66.714 44.6495C67.0681 44.6495 67.3343 44.7208 67.5126 44.8634C67.6909 45.0061 67.7801 45.2061 67.7801 45.4633ZM74.7956 46.7931C75.2796 46.7931 75.6451 46.9179 75.8922 47.1675C76.1418 47.4146 76.2667 47.812 76.2667 48.3597V51.1453H75.0974V48.6501C75.0974 48.3444 75.0452 48.1139 74.9408 47.9585C74.8363 47.8031 74.6746 47.7254 74.4555 47.7254C74.1473 47.7254 73.9282 47.8362 73.7983 48.0578C73.6683 48.2769 73.6034 48.5915 73.6034 49.0016V51.1453H72.438V48.6501C72.438 48.4463 72.415 48.2756 72.3692 48.1381C72.3233 48.0005 72.2533 47.8974 72.159 47.8286C72.0648 47.7598 71.9438 47.7254 71.796 47.7254C71.5795 47.7254 71.4088 47.7802 71.284 47.8897C71.1617 47.9967 71.0738 48.1559 71.0204 48.3674C70.9694 48.5762 70.9439 48.8322 70.9439 49.1354V51.1453H69.7785V46.8733H70.6688L70.8255 47.4197H70.8904C70.977 47.272 71.0853 47.1523 71.2152 47.0606C71.3477 46.9688 71.4929 46.9013 71.6508 46.858C71.8088 46.8147 71.9692 46.7931 72.1323 46.7931C72.4456 46.7931 72.7105 46.844 72.9271 46.9459C73.1461 47.0478 73.3143 47.2058 73.4314 47.4197H73.5346C73.662 47.2007 73.8416 47.0414 74.0734 46.9421C74.3077 46.8428 74.5485 46.7931 74.7956 46.7931ZM83.3815 49.0016C83.3815 49.4755 83.2974 49.8779 83.1293 50.2091C82.9612 50.5403 82.7204 50.7925 82.4071 50.9657C82.0963 51.1363 81.727 51.2217 81.299 51.2217C80.8991 51.2217 80.5437 51.1363 80.2329 50.9657C79.9247 50.7925 79.6814 50.5403 79.5031 50.2091C79.3273 49.8779 79.2395 49.4755 79.2395 49.0016C79.2395 48.2935 79.4254 47.7483 79.7973 47.3662C80.1692 46.9841 80.6774 46.7931 81.3219 46.7931C81.6072 46.7931 81.8773 46.8377 82.132 46.9268C82.3893 47.016 82.6071 47.1472 82.7854 47.3204C82.923 47.2771 83.0338 47.2045 83.1178 47.1026C83.2019 47.0007 83.2618 46.8759 83.2974 46.7281C83.3356 46.5778 83.3547 46.4122 83.3547 46.2314H84.5049L84.5622 46.3154C84.5112 46.5676 84.4386 46.802 84.3444 47.0185C84.2527 47.2325 84.1151 47.4185 83.9317 47.5764C83.7508 47.7318 83.5012 47.8515 83.1828 47.9356C83.2465 48.0884 83.2949 48.254 83.328 48.4323C83.3636 48.6081 83.3815 48.7979 83.3815 49.0016ZM80.4278 49.0016C80.4278 49.2819 80.4584 49.5175 80.5195 49.7085C80.5806 49.8996 80.6762 50.0435 80.8061 50.1403C80.936 50.2371 81.1054 50.2855 81.3143 50.2855C81.5206 50.2855 81.6875 50.2371 81.8148 50.1403C81.9448 50.0435 82.039 49.8996 82.0976 49.7085C82.1587 49.5175 82.1893 49.2819 82.1893 49.0016C82.1893 48.7189 82.1587 48.4845 82.0976 48.2986C82.039 48.1101 81.9448 47.9687 81.8148 47.8744C81.6849 47.7802 81.5155 47.7331 81.3066 47.7331C80.9984 47.7331 80.7742 47.8388 80.6341 48.0502C80.4966 48.2616 80.4278 48.5788 80.4278 49.0016ZM87.2446 46.7931C87.7005 46.7931 88.0674 46.9179 88.345 47.1675C88.6227 47.4146 88.7615 47.812 88.7615 48.3597V51.1453H87.5961V48.6501C87.5961 48.3444 87.5401 48.1139 87.428 47.9585C87.3184 47.8031 87.1452 47.7254 86.9083 47.7254C86.5517 47.7254 86.3084 47.8464 86.1785 48.0884C86.0486 48.3304 85.9836 48.6794 85.9836 49.1354V51.1453H84.8182V46.8733H85.7085L85.8652 47.4197H85.9301C86.0218 47.272 86.1352 47.1523 86.2702 47.0606C86.4078 46.9688 86.5593 46.9013 86.7249 46.858C86.893 46.8147 87.0663 46.7931 87.2446 46.7931Z" fill="#292929"/>
<path d="M45.1198 57.5869V62.455H44.4845V57.5869H45.1198ZM46.6845 57.5869V58.1152H42.9232V57.5869H46.6845ZM47.9316 57.3195V62.455H47.3131V57.3195H47.9316ZM47.7845 60.5091L47.527 60.4991C47.5293 60.2516 47.5661 60.0232 47.6374 59.8136C47.7087 59.6019 47.809 59.418 47.9383 59.262C48.0676 59.106 48.2214 58.9856 48.3997 58.9009C48.5802 58.814 48.7797 58.7705 48.9982 58.7705C49.1765 58.7705 49.337 58.795 49.4796 58.8441C49.6223 58.8909 49.7437 58.9666 49.844 59.0714C49.9466 59.1762 50.0246 59.3121 50.0781 59.4793C50.1316 59.6442 50.1583 59.846 50.1583 60.0845V62.455H49.5364V60.0778C49.5364 59.8883 49.5086 59.7368 49.4529 59.6231C49.3971 59.5072 49.3158 59.4236 49.2088 59.3723C49.1018 59.3188 48.9703 59.2921 48.8143 59.2921C48.6605 59.2921 48.52 59.3244 48.393 59.389C48.2682 59.4537 48.1601 59.5428 48.0687 59.6565C47.9795 59.7702 47.9093 59.9006 47.858 60.0477C47.809 60.1926 47.7845 60.3464 47.7845 60.5091ZM53.2176 61.8364V59.9741C53.2176 59.8315 53.1886 59.7078 53.1306 59.603C53.0749 59.496 52.9902 59.4136 52.8765 59.3556C52.7629 59.2976 52.6224 59.2687 52.4553 59.2687C52.2992 59.2687 52.1622 59.2954 52.044 59.3489C51.9281 59.4024 51.8367 59.4726 51.7699 59.5595C51.7052 59.6465 51.6729 59.7401 51.6729 59.8404H51.0544C51.0544 59.7111 51.0878 59.583 51.1547 59.4559C51.2215 59.3289 51.3174 59.2141 51.4422 59.1115C51.5693 59.0068 51.7208 58.9243 51.8969 58.8641C52.0752 58.8017 52.2736 58.7705 52.492 58.7705C52.7551 58.7705 52.9869 58.8151 53.1875 58.9042C53.3903 58.9934 53.5486 59.1282 53.6622 59.3088C53.7781 59.4871 53.8361 59.7111 53.8361 59.9808V61.6659C53.8361 61.7863 53.8461 61.9144 53.8662 62.0504C53.8885 62.1864 53.9208 62.3034 53.9631 62.4015V62.455H53.3179C53.2867 62.3836 53.2621 62.2889 53.2443 62.1708C53.2265 62.0504 53.2176 61.939 53.2176 61.8364ZM53.3245 60.2617L53.3312 60.6963H52.706C52.5299 60.6963 52.3728 60.7108 52.2346 60.7398C52.0964 60.7665 51.9805 60.8078 51.8869 60.8635C51.7933 60.9192 51.7219 60.9894 51.6729 61.0741C51.6239 61.1566 51.5993 61.2536 51.5993 61.365C51.5993 61.4787 51.625 61.5823 51.6762 61.6759C51.7275 61.7696 51.8044 61.8442 51.9069 61.8999C52.0117 61.9534 52.1399 61.9802 52.2914 61.9802C52.4809 61.9802 52.6481 61.9401 52.7929 61.8598C52.9378 61.7796 53.0526 61.6815 53.1373 61.5656C53.2242 61.4497 53.2711 61.3371 53.2777 61.2279L53.5419 61.5255C53.5263 61.6191 53.4839 61.7227 53.4148 61.8364C53.3457 61.9501 53.2532 62.0593 53.1373 62.1641C53.0236 62.2666 52.8877 62.3524 52.7294 62.4215C52.5734 62.4884 52.3973 62.5218 52.2012 62.5218C51.956 62.5218 51.7409 62.4739 51.5559 62.3781C51.3731 62.2822 51.2305 62.154 51.1279 61.9936C51.0276 61.8308 50.9775 61.6492 50.9775 61.4486C50.9775 61.2547 51.0154 61.0842 51.0911 60.937C51.1669 60.7877 51.2761 60.664 51.4188 60.5659C51.5614 60.4656 51.7331 60.3898 51.9337 60.3386C52.1343 60.2873 52.3583 60.2617 52.6057 60.2617H53.3245ZM52.7461 57.3195L53.5753 58.2322V58.2656H53.0604L52.5589 57.7006L52.0607 58.2656H51.5525V58.2289L52.3717 57.3195H52.7461ZM55.4276 59.6097V62.455H54.809V58.8374H55.3941L55.4276 59.6097ZM55.2805 60.5091L55.023 60.4991C55.0252 60.2516 55.062 60.0232 55.1333 59.8136C55.2047 59.6019 55.305 59.418 55.4343 59.262C55.5635 59.106 55.7173 58.9856 55.8956 58.9009C56.0762 58.814 56.2757 58.7705 56.4941 58.7705C56.6724 58.7705 56.8329 58.795 56.9756 58.8441C57.1182 58.8909 57.2397 58.9666 57.34 59.0714C57.4425 59.1762 57.5205 59.3121 57.574 59.4793C57.6275 59.6442 57.6543 59.846 57.6543 60.0845V62.455H57.0324V60.0778C57.0324 59.8883 57.0045 59.7368 56.9488 59.6231C56.8931 59.5072 56.8117 59.4236 56.7048 59.3723C56.5978 59.3188 56.4663 59.2921 56.3102 59.2921C56.1564 59.2921 56.016 59.3244 55.889 59.389C55.7641 59.4537 55.656 59.5428 55.5646 59.6565C55.4755 59.7702 55.4053 59.9006 55.354 60.0477C55.305 60.1926 55.2805 60.3464 55.2805 60.5091ZM62.636 58.8374H63.1977V62.3781C63.1977 62.6968 63.133 62.9687 63.0038 63.1939C62.8745 63.419 62.6939 63.5895 62.4621 63.7054C62.2325 63.8235 61.9673 63.8826 61.6664 63.8826C61.5416 63.8826 61.3945 63.8625 61.2251 63.8224C61.0579 63.7845 60.893 63.7188 60.7302 63.6252C60.5698 63.5338 60.4349 63.4101 60.3257 63.254L60.65 62.8863C60.8016 63.069 60.9598 63.1961 61.1248 63.2674C61.2919 63.3387 61.4569 63.3744 61.6196 63.3744C61.8157 63.3744 61.9851 63.3376 62.1278 63.2641C62.2704 63.1905 62.3808 63.0813 62.4588 62.9364C62.539 62.7938 62.5792 62.6177 62.5792 62.4081V59.6331L62.636 58.8374ZM60.1451 60.6863V60.6161C60.1451 60.3397 60.1775 60.0889 60.2421 59.8638C60.309 59.6364 60.4037 59.4414 60.5263 59.2787C60.6511 59.116 60.8016 58.9912 60.9777 58.9042C61.1537 58.8151 61.3521 58.7705 61.5728 58.7705C61.8001 58.7705 61.9985 58.8106 62.1679 58.8909C62.3395 58.9689 62.4844 59.0837 62.6026 59.2352C62.7229 59.3846 62.8176 59.5651 62.8867 59.7769C62.9558 59.9886 63.0038 60.2282 63.0305 60.4957V60.8033C63.006 61.0685 62.9581 61.307 62.8867 61.5188C62.8176 61.7305 62.7229 61.9111 62.6026 62.0604C62.4844 62.2098 62.3395 62.3246 62.1679 62.4048C61.9963 62.4828 61.7957 62.5218 61.5661 62.5218C61.3499 62.5218 61.1537 62.4761 60.9777 62.3847C60.8038 62.2934 60.6545 62.1652 60.5296 62.0003C60.4048 61.8353 60.309 61.6414 60.2421 61.4185C60.1775 61.1934 60.1451 60.9493 60.1451 60.6863ZM60.7637 60.6161V60.6863C60.7637 60.8668 60.7815 61.0362 60.8172 61.1945C60.8551 61.3527 60.9119 61.492 60.9877 61.6124C61.0657 61.7328 61.1649 61.8275 61.2852 61.8966C61.4056 61.9635 61.5494 61.9969 61.7165 61.9969C61.9216 61.9969 62.091 61.9534 62.2247 61.8665C62.3585 61.7796 62.4644 61.6648 62.5424 61.5221C62.6226 61.3795 62.685 61.2246 62.7296 61.0574V60.2516C62.7051 60.129 62.6672 60.0109 62.6159 59.8972C62.5669 59.7813 62.5023 59.6788 62.422 59.5896C62.344 59.4983 62.247 59.4258 62.1311 59.3723C62.0152 59.3188 61.8793 59.2921 61.7232 59.2921C61.5538 59.2921 61.4078 59.3277 61.2852 59.3991C61.1649 59.4682 61.0657 59.564 60.9877 59.6866C60.9119 59.807 60.8551 59.9474 60.8172 60.1079C60.7815 60.2661 60.7637 60.4355 60.7637 60.6161ZM67.5241 58.5465H67.9988C67.9988 58.7894 67.9665 58.9934 67.9019 59.1583C67.8395 59.3233 67.7291 59.447 67.5709 59.5295C67.4126 59.6119 67.1897 59.6532 66.9022 59.6532V59.272C67.1028 59.272 67.2466 59.2475 67.3335 59.1985C67.4204 59.1472 67.4739 59.0681 67.494 58.9611C67.514 58.8541 67.5241 58.7159 67.5241 58.5465ZM66.3505 61.6191V58.8374H66.9724V62.455H66.3806L66.3505 61.6191ZM66.4676 60.8568L66.725 60.8501C66.725 61.0908 66.6994 61.3137 66.6481 61.5188C66.5991 61.7216 66.5188 61.8977 66.4074 62.0471C66.2959 62.1964 66.1499 62.3134 65.9694 62.3981C65.7888 62.4806 65.5693 62.5218 65.3107 62.5218C65.1346 62.5218 64.973 62.4962 64.8259 62.4449C64.6811 62.3937 64.5562 62.3145 64.4515 62.2075C64.3467 62.1006 64.2654 61.9612 64.2074 61.7896C64.1517 61.618 64.1238 61.4118 64.1238 61.1711V58.8374H64.7423V61.1778C64.7423 61.3405 64.7602 61.4753 64.7958 61.5823C64.8337 61.6871 64.8839 61.7707 64.9463 61.8331C65.0109 61.8933 65.0823 61.9356 65.1603 61.9601C65.2405 61.9846 65.323 61.9969 65.4077 61.9969C65.6707 61.9969 65.8791 61.9468 66.0329 61.8465C66.1867 61.7439 66.297 61.6068 66.3639 61.4352C66.433 61.2614 66.4676 61.0685 66.4676 60.8568ZM65.839 58.3191H65.3943L65.391 57.8109C65.5046 57.8043 65.5971 57.7931 65.6685 57.7775C65.7398 57.7597 65.7922 57.734 65.8256 57.7006C65.8591 57.6649 65.8758 57.6181 65.8758 57.5602C65.8758 57.5134 65.8613 57.4744 65.8323 57.4432C65.8033 57.4097 65.7632 57.383 65.7119 57.3629C65.6607 57.3406 65.6016 57.325 65.5347 57.3161C65.4679 57.3072 65.3965 57.3027 65.3208 57.3027L65.3442 56.9483C65.5091 56.9483 65.654 56.9628 65.7788 56.9918C65.9059 57.0208 66.0117 57.0631 66.0964 57.1188C66.1834 57.1746 66.248 57.2414 66.2904 57.3195C66.3349 57.3952 66.3572 57.4799 66.3572 57.5736C66.3572 57.743 66.3037 57.8667 66.1967 57.9447C66.0897 58.0205 65.9716 58.0673 65.8423 58.0851L65.839 58.3191ZM69.0487 58.8374V62.455H68.4268V58.8374H69.0487ZM68.38 57.8778C68.38 57.7775 68.4101 57.6928 68.4703 57.6237C68.5327 57.5546 68.6241 57.5201 68.7444 57.5201C68.8626 57.5201 68.9528 57.5546 69.0152 57.6237C69.0799 57.6928 69.1122 57.7775 69.1122 57.8778C69.1122 57.9737 69.0799 58.0561 69.0152 58.1252C68.9528 58.1921 68.8626 58.2255 68.7444 58.2255C68.6241 58.2255 68.5327 58.1921 68.4703 58.1252C68.4101 58.0561 68.38 57.9737 68.38 57.8778ZM74.017 63.8458V59.5328L74.0705 58.8374H74.6389V63.8458H74.017ZM71.5863 60.6863V60.6161C71.5863 60.3397 71.6187 60.0889 71.6833 59.8638C71.7479 59.6364 71.8427 59.4414 71.9675 59.2787C72.0923 59.116 72.2428 58.9912 72.4189 58.9042C72.5972 58.8151 72.8 58.7705 73.0274 58.7705C73.2547 58.7705 73.4542 58.8106 73.6258 58.8909C73.7997 58.9689 73.9468 59.0837 74.0672 59.2352C74.1898 59.3846 74.2867 59.5651 74.358 59.7769C74.4294 59.9886 74.4784 60.2282 74.5051 60.4957V60.8033C74.4806 61.0685 74.4327 61.307 74.3614 61.5188C74.2901 61.7305 74.1931 61.9111 74.0705 62.0604C73.9501 62.2098 73.8019 62.3246 73.6258 62.4048C73.452 62.4828 73.2502 62.5218 73.0207 62.5218C72.7978 62.5218 72.5972 62.4761 72.4189 62.3847C72.2428 62.2934 72.0923 62.1652 71.9675 62.0003C71.8449 61.8353 71.7502 61.6414 71.6833 61.4185C71.6187 61.1934 71.5863 60.9493 71.5863 60.6863ZM72.2082 60.6161V60.6863C72.2082 60.8668 72.2272 61.0373 72.2651 61.1978C72.3029 61.3561 72.3609 61.4965 72.4389 61.6191C72.5192 61.7417 72.6195 61.8387 72.7398 61.91C72.8624 61.9791 73.0073 62.0136 73.1745 62.0136C73.3795 62.0136 73.55 61.969 73.686 61.8799C73.8242 61.7907 73.9345 61.6737 74.017 61.5288C74.0995 61.3817 74.163 61.2246 74.2076 61.0574V60.2516C74.1831 60.129 74.1441 60.0098 74.0906 59.8939C74.0393 59.778 73.9724 59.6743 73.89 59.583C73.8075 59.4893 73.7072 59.4158 73.5891 59.3623C73.4731 59.3066 73.3372 59.2787 73.1812 59.2787C73.0118 59.2787 72.8658 59.3144 72.7432 59.3857C72.6206 59.457 72.5192 59.5551 72.4389 59.6799C72.3609 59.8025 72.3029 59.944 72.2651 60.1045C72.2272 60.265 72.2082 60.4355 72.2082 60.6161ZM77.8452 61.6191V58.8374H78.4671V62.455H77.8753L77.8452 61.6191ZM77.9623 60.8568L78.2197 60.8501C78.2197 61.0908 78.1941 61.3137 78.1428 61.5188C78.0938 61.7216 78.0135 61.8977 77.9021 62.0471C77.7906 62.1964 77.6446 62.3134 77.4641 62.3981C77.2835 62.4806 77.064 62.5218 76.8054 62.5218C76.6293 62.5218 76.4677 62.4962 76.3206 62.4449C76.1757 62.3937 76.0509 62.3145 75.9462 62.2075C75.8414 62.1006 75.76 61.9612 75.7021 61.7896C75.6464 61.618 75.6185 61.4118 75.6185 61.1711V58.8374H76.237V61.1778C76.237 61.3405 76.2549 61.4753 76.2905 61.5823C76.3284 61.6871 76.3786 61.7707 76.441 61.8331C76.5056 61.8933 76.577 61.9356 76.655 61.9601C76.7352 61.9846 76.8177 61.9969 76.9024 61.9969C77.1654 61.9969 77.3738 61.9468 77.5276 61.8465C77.6814 61.7439 77.7917 61.6068 77.8586 61.4352C77.9277 61.2614 77.9623 61.0685 77.9623 60.8568ZM80.4264 62.0805L81.4327 58.8374H82.0947L80.6437 63.0133C80.6102 63.1025 80.5657 63.1983 80.5099 63.3008C80.4564 63.4056 80.3873 63.5048 80.3026 63.5984C80.2179 63.692 80.1154 63.7678 79.9951 63.8258C79.8769 63.8859 79.7354 63.916 79.5704 63.916C79.5214 63.916 79.459 63.9093 79.3832 63.896C79.3074 63.8826 79.2539 63.8715 79.2227 63.8625L79.2194 63.361C79.2372 63.3633 79.2651 63.3655 79.303 63.3677C79.3431 63.3722 79.3709 63.3744 79.3865 63.3744C79.527 63.3744 79.6462 63.3555 79.7443 63.3176C79.8424 63.2819 79.9248 63.2206 79.9917 63.1337C80.0608 63.049 80.1199 62.932 80.1689 62.7826L80.4264 62.0805ZM79.6875 58.8374L80.627 61.6458L80.7874 62.2978L80.3428 62.5252L79.0121 58.8374H79.6875ZM80.296 58.3024L80.9446 57.3195H81.6902L80.7941 58.3024H80.296ZM87.384 60.907H88.026C87.9925 61.2145 87.9045 61.4898 87.7618 61.7328C87.6192 61.9757 87.4175 62.1685 87.1567 62.3112C86.8959 62.4516 86.5705 62.5218 86.1804 62.5218C85.8951 62.5218 85.6354 62.4683 85.4014 62.3613C85.1696 62.2544 84.9701 62.1028 84.8029 61.9066C84.6357 61.7083 84.5065 61.4709 84.4151 61.1945C84.3259 60.9159 84.2813 60.606 84.2813 60.265V59.7802C84.2813 59.4392 84.3259 59.1305 84.4151 58.8541C84.5065 58.5755 84.6368 58.337 84.8062 58.1386C84.9779 57.9402 85.1841 57.7875 85.4248 57.6805C85.6655 57.5736 85.9363 57.5201 86.2372 57.5201C86.605 57.5201 86.9159 57.5892 87.17 57.7274C87.4241 57.8655 87.6214 58.0572 87.7618 58.3024C87.9045 58.5454 87.9925 58.8273 88.026 59.1483H87.384C87.3528 58.921 87.2949 58.7259 87.2102 58.5632C87.1255 58.3983 87.0051 58.2712 86.8491 58.1821C86.6931 58.0929 86.4891 58.0483 86.2372 58.0483C86.021 58.0483 85.8304 58.0896 85.6655 58.172C85.5028 58.2545 85.3657 58.3715 85.2543 58.5231C85.145 58.6747 85.0626 58.8563 85.0068 59.0681C84.9511 59.2798 84.9233 59.515 84.9233 59.7735V60.265C84.9233 60.5035 84.9478 60.7275 84.9968 60.937C85.0481 61.1466 85.125 61.3305 85.2275 61.4887C85.33 61.647 85.4604 61.7718 85.6187 61.8632C85.777 61.9523 85.9642 61.9969 86.1804 61.9969C86.4546 61.9969 86.673 61.9534 86.8357 61.8665C86.9984 61.7796 87.121 61.6548 87.2035 61.492C87.2882 61.3293 87.3484 61.1343 87.384 60.907ZM88.6478 60.6863V60.6094C88.6478 60.3486 88.6857 60.1068 88.7615 59.8839C88.8373 59.6587 88.9465 59.4637 89.0892 59.2988C89.2318 59.1316 89.4046 59.0023 89.6074 58.9109C89.8102 58.8173 90.0376 58.7705 90.2895 58.7705C90.5436 58.7705 90.772 58.8173 90.9749 58.9109C91.1799 59.0023 91.3538 59.1316 91.4964 59.2988C91.6413 59.4637 91.7517 59.6587 91.8274 59.8839C91.9032 60.1068 91.9411 60.3486 91.9411 60.6094V60.6863C91.9411 60.9471 91.9032 61.1889 91.8274 61.4118C91.7517 61.6347 91.6413 61.8297 91.4964 61.9969C91.3538 62.1618 91.181 62.2911 90.9782 62.3847C90.7776 62.4761 90.5502 62.5218 90.2961 62.5218C90.042 62.5218 89.8136 62.4761 89.6107 62.3847C89.4079 62.2911 89.2341 62.1618 89.0892 61.9969C88.9465 61.8297 88.8373 61.6347 88.7615 61.4118C88.6857 61.1889 88.6478 60.9471 88.6478 60.6863ZM89.2664 60.6094V60.6863C89.2664 60.8668 89.2875 61.0373 89.3299 61.1978C89.3722 61.3561 89.4358 61.4965 89.5205 61.6191C89.6074 61.7417 89.7155 61.8387 89.8448 61.91C89.9741 61.9791 90.1245 62.0136 90.2961 62.0136C90.4655 62.0136 90.6138 61.9791 90.7408 61.91C90.8701 61.8387 90.9771 61.7417 91.0618 61.6191C91.1465 61.4965 91.21 61.3561 91.2524 61.1978C91.2969 61.0373 91.3192 60.8668 91.3192 60.6863V60.6094C91.3192 60.4311 91.2969 60.2628 91.2524 60.1045C91.21 59.944 91.1454 59.8025 91.0584 59.6799C90.9737 59.5551 90.8668 59.457 90.7375 59.3857C90.6104 59.3144 90.4611 59.2787 90.2895 59.2787C90.1201 59.2787 89.9707 59.3144 89.8414 59.3857C89.7144 59.457 89.6074 59.5551 89.5205 59.6799C89.4358 59.8025 89.3722 59.944 89.3299 60.1045C89.2875 60.2628 89.2664 60.4311 89.2664 60.6094ZM90.4499 57.3195L91.2791 58.2322V58.2656H90.7642L90.2627 57.7006L89.7645 58.2656H89.2563V58.2289L90.0755 57.3195H90.4499ZM93.3353 59.6097V62.455H92.7168V58.8374H93.3019L93.3353 59.6097ZM93.1882 60.5091L92.9308 60.4991C92.933 60.2516 92.9698 60.0232 93.0411 59.8136C93.1124 59.6019 93.2127 59.418 93.342 59.262C93.4713 59.106 93.6251 58.9856 93.8034 58.9009C93.9839 58.814 94.1834 58.7705 94.4019 58.7705C94.5802 58.7705 94.7407 58.795 94.8833 58.8441C95.026 58.8909 95.1475 58.9666 95.2478 59.0714C95.3503 59.1762 95.4283 59.3121 95.4818 59.4793C95.5353 59.6442 95.562 59.846 95.562 60.0845V62.455H94.9402V60.0778C94.9402 59.8883 94.9123 59.7368 94.8566 59.6231C94.8009 59.5072 94.7195 59.4236 94.6125 59.3723C94.5055 59.3188 94.374 59.2921 94.218 59.2921C94.0642 59.2921 93.9238 59.3244 93.7967 59.389C93.6719 59.4537 93.5638 59.5428 93.4724 59.6565C93.3832 59.7702 93.313 59.9006 93.2618 60.0477C93.2127 60.1926 93.1882 60.3464 93.1882 60.5091ZM98.8453 58.8374H99.407V62.3781C99.407 62.6968 99.3423 62.9687 99.2131 63.1939C99.0838 63.419 98.9032 63.5895 98.6714 63.7054C98.4418 63.8235 98.1766 63.8826 97.8757 63.8826C97.7509 63.8826 97.6038 63.8625 97.4344 63.8224C97.2672 63.7845 97.1022 63.7188 96.9395 63.6252C96.779 63.5338 96.6442 63.4101 96.535 63.254L96.8593 62.8863C97.0109 63.069 97.1691 63.1961 97.3341 63.2674C97.5012 63.3387 97.6662 63.3744 97.8289 63.3744C98.025 63.3744 98.1944 63.3376 98.3371 63.2641C98.4797 63.1905 98.5901 63.0813 98.6681 62.9364C98.7483 62.7938 98.7884 62.6177 98.7884 62.4081V59.6331L98.8453 58.8374ZM96.3544 60.6863V60.6161C96.3544 60.3397 96.3868 60.0889 96.4514 59.8638C96.5183 59.6364 96.613 59.4414 96.7356 59.2787C96.8604 59.116 97.0109 58.9912 97.1869 58.9042C97.363 58.8151 97.5614 58.7705 97.7821 58.7705C98.0094 58.7705 98.2078 58.8106 98.3772 58.8909C98.5488 58.9689 98.6937 59.0837 98.8119 59.2352C98.9322 59.3846 99.0269 59.5651 99.096 59.7769C99.1651 59.9886 99.2131 60.2282 99.2398 60.4957V60.8033C99.2153 61.0685 99.1674 61.307 99.096 61.5188C99.0269 61.7305 98.9322 61.9111 98.8119 62.0604C98.6937 62.2098 98.5488 62.3246 98.3772 62.4048C98.2056 62.4828 98.005 62.5218 97.7754 62.5218C97.5592 62.5218 97.363 62.4761 97.1869 62.3847C97.0131 62.2934 96.8637 62.1652 96.7389 62.0003C96.6141 61.8353 96.5183 61.6414 96.4514 61.4185C96.3868 61.1934 96.3544 60.9493 96.3544 60.6863ZM96.973 60.6161V60.6863C96.973 60.8668 96.9908 61.0362 97.0265 61.1945C97.0644 61.3527 97.1212 61.492 97.197 61.6124C97.275 61.7328 97.3742 61.8275 97.4945 61.8966C97.6149 61.9635 97.7587 61.9969 97.9258 61.9969C98.1309 61.9969 98.3003 61.9534 98.434 61.8665C98.5678 61.7796 98.6737 61.6648 98.7517 61.5221C98.8319 61.3795 98.8943 61.2246 98.9389 61.0574V60.2516C98.9144 60.129 98.8765 60.0109 98.8252 59.8972C98.7762 59.7813 98.7115 59.6788 98.6313 59.5896C98.5533 59.4983 98.4563 59.4258 98.3404 59.3723C98.2245 59.3188 98.0886 59.2921 97.9325 59.2921C97.7631 59.2921 97.6171 59.3277 97.4945 59.3991C97.3742 59.4682 97.275 59.564 97.197 59.6866C97.1212 59.807 97.0644 59.9474 97.0265 60.1079C96.9908 60.2661 96.973 60.4355 96.973 60.6161ZM103.56 58.8374V59.3121H101.604V58.8374H103.56ZM102.266 57.958H102.884V61.5589C102.884 61.6815 102.903 61.774 102.941 61.8364C102.979 61.8988 103.028 61.9401 103.088 61.9601C103.148 61.9802 103.213 61.9902 103.282 61.9902C103.333 61.9902 103.387 61.9858 103.442 61.9768C103.5 61.9657 103.544 61.9568 103.573 61.9501L103.576 62.455C103.527 62.4706 103.463 62.485 103.382 62.4984C103.304 62.514 103.21 62.5218 103.098 62.5218C102.947 62.5218 102.807 62.4917 102.68 62.4316C102.553 62.3714 102.452 62.2711 102.376 62.1306C102.302 61.988 102.266 61.7963 102.266 61.5556V57.958ZM105.301 62.0805L106.308 58.8374H106.97L105.519 63.0133C105.485 63.1025 105.441 63.1983 105.385 63.3008C105.332 63.4056 105.262 63.5048 105.178 63.5984C105.093 63.692 104.991 63.7678 104.87 63.8258C104.752 63.8859 104.61 63.916 104.446 63.916C104.396 63.916 104.334 63.9093 104.258 63.896C104.183 63.8826 104.129 63.8715 104.098 63.8625L104.094 63.361C104.112 63.3633 104.14 63.3655 104.178 63.3677C104.218 63.3722 104.246 63.3744 104.262 63.3744C104.402 63.3744 104.521 63.3555 104.619 63.3176C104.717 63.2819 104.8 63.2206 104.867 63.1337C104.936 63.049 104.995 62.932 105.044 62.7826L105.301 62.0805ZM104.563 58.8374L105.502 61.6458L105.663 62.2978L105.218 62.5252L103.887 58.8374H104.563ZM107.177 62.1273C107.177 62.0225 107.209 61.9345 107.274 61.8632C107.341 61.7896 107.437 61.7528 107.562 61.7528C107.686 61.7528 107.781 61.7896 107.846 61.8632C107.913 61.9345 107.946 62.0225 107.946 62.1273C107.946 62.2298 107.913 62.3168 107.846 62.3881C107.781 62.4594 107.686 62.4951 107.562 62.4951C107.437 62.4951 107.341 62.4594 107.274 62.3881C107.209 62.3168 107.177 62.2298 107.177 62.1273ZM108.983 62.1273C108.983 62.0225 109.015 61.9345 109.08 61.8632C109.146 61.7896 109.242 61.7528 109.367 61.7528C109.492 61.7528 109.587 61.7896 109.651 61.8632C109.718 61.9345 109.752 62.0225 109.752 62.1273C109.752 62.2298 109.718 62.3168 109.651 62.3881C109.587 62.4594 109.492 62.4951 109.367 62.4951C109.242 62.4951 109.146 62.4594 109.08 62.3881C109.015 62.3168 108.983 62.2298 108.983 62.1273ZM110.788 62.1273C110.788 62.0225 110.82 61.9345 110.885 61.8632C110.952 61.7896 111.048 61.7528 111.172 61.7528C111.297 61.7528 111.392 61.7896 111.457 61.8632C111.524 61.9345 111.557 62.0225 111.557 62.1273C111.557 62.2298 111.524 62.3168 111.457 62.3881C111.392 62.4594 111.297 62.4951 111.172 62.4951C111.048 62.4951 110.952 62.4594 110.885 62.3881C110.82 62.3168 110.788 62.2298 110.788 62.1273Z" fill="#5D5C5D"/>
<path d="M115.722 52.0456H115.776C116.005 52.0456 116.202 52.0179 116.367 51.9625C116.533 51.9052 116.669 51.823 116.776 51.716C116.883 51.6091 116.963 51.4782 117.014 51.3234C117.066 51.1668 117.092 50.9891 117.092 50.7904V49.9994C117.092 49.8485 117.076 49.7157 117.046 49.6011C117.017 49.4865 116.975 49.3919 116.92 49.3174C116.866 49.241 116.803 49.1836 116.73 49.1454C116.66 49.1072 116.581 49.0881 116.495 49.0881C116.404 49.0881 116.323 49.111 116.252 49.1569C116.181 49.2008 116.121 49.261 116.071 49.3374C116.024 49.4139 115.986 49.5017 115.96 49.6011C115.935 49.6985 115.922 49.8007 115.922 49.9077C115.922 50.0147 115.935 50.1169 115.96 50.2144C115.984 50.3099 116.022 50.3949 116.071 50.4694C116.121 50.542 116.183 50.6003 116.258 50.6442C116.332 50.6863 116.42 50.7073 116.521 50.7073C116.619 50.7073 116.706 50.6891 116.782 50.6528C116.86 50.6146 116.926 50.5649 116.98 50.5038C117.035 50.4427 117.077 50.3749 117.106 50.3003C117.136 50.2258 117.152 50.1504 117.152 50.0739L117.424 50.223C117.424 50.3567 117.395 50.4885 117.338 50.6184C117.281 50.7484 117.2 50.8668 117.097 50.9738C116.996 51.0789 116.879 51.1629 116.745 51.226C116.611 51.289 116.468 51.3206 116.315 51.3206C116.12 51.3206 115.947 51.2852 115.796 51.2145C115.645 51.1419 115.517 51.0426 115.412 50.9165C115.309 50.7885 115.231 50.6395 115.177 50.4694C115.124 50.2994 115.097 50.115 115.097 49.9163C115.097 49.7138 115.129 49.5237 115.194 49.346C115.261 49.1684 115.356 49.0117 115.478 48.876C115.602 48.7404 115.75 48.6344 115.922 48.5579C116.096 48.4796 116.289 48.4404 116.501 48.4404C116.713 48.4404 116.906 48.4815 117.08 48.5637C117.254 48.6458 117.403 48.7624 117.527 48.9133C117.651 49.0623 117.747 49.241 117.814 49.4492C117.883 49.6574 117.917 49.8886 117.917 50.1427V50.4293C117.917 50.7006 117.887 50.9528 117.828 51.1859C117.771 51.419 117.684 51.6301 117.567 51.8192C117.453 52.0064 117.309 52.1669 117.137 52.3007C116.967 52.4344 116.77 52.5366 116.544 52.6073C116.319 52.678 116.067 52.7133 115.788 52.7133H115.722V52.0456ZM121.522 49.5724V50.1571H119.717V49.5724H121.522ZM120.164 48.8073H120.989V51.739C120.989 51.8288 121.001 51.8975 121.023 51.9453C121.048 51.9931 121.085 52.0265 121.132 52.0456C121.18 52.0628 121.24 52.0714 121.313 52.0714C121.364 52.0714 121.41 52.0695 121.45 52.0657C121.492 52.0599 121.528 52.0542 121.556 52.0485L121.559 52.656C121.489 52.6789 121.412 52.6971 121.33 52.7105C121.248 52.7238 121.157 52.7305 121.058 52.7305C120.876 52.7305 120.718 52.7009 120.582 52.6417C120.448 52.5806 120.345 52.4831 120.273 52.3494C120.2 52.2156 120.164 52.0399 120.164 51.8221V48.8073ZM122.797 48.2714V52.6732H121.972V48.2714H122.797ZM122.68 51.0139H122.453C122.455 50.798 122.484 50.5993 122.539 50.4178C122.595 50.2344 122.674 50.0759 122.777 49.9421C122.88 49.8065 123.004 49.7014 123.147 49.6269C123.292 49.5524 123.453 49.5151 123.628 49.5151C123.781 49.5151 123.92 49.5371 124.044 49.581C124.17 49.6231 124.278 49.6918 124.368 49.7874C124.46 49.881 124.53 50.0042 124.58 50.1571C124.63 50.3099 124.654 50.4952 124.654 50.713V52.6732H123.823V50.7073C123.823 50.5697 123.803 50.4618 123.763 50.3834C123.725 50.3032 123.669 50.2468 123.594 50.2144C123.521 50.18 123.432 50.1628 123.325 50.1628C123.206 50.1628 123.105 50.1848 123.021 50.2287C122.939 50.2726 122.873 50.3338 122.823 50.4121C122.773 50.4885 122.737 50.5783 122.714 50.6815C122.691 50.7847 122.68 50.8955 122.68 51.0139ZM127.245 49.5724H127.993V52.57C127.993 52.8528 127.93 53.0926 127.804 53.2894C127.68 53.4881 127.506 53.638 127.282 53.7393C127.059 53.8425 126.799 53.894 126.503 53.894C126.373 53.894 126.235 53.8769 126.09 53.8425C125.947 53.8081 125.809 53.7546 125.677 53.682C125.548 53.6094 125.439 53.5177 125.351 53.4069L125.715 52.9197C125.81 53.0305 125.921 53.1165 126.047 53.1776C126.173 53.2406 126.313 53.2722 126.466 53.2722C126.615 53.2722 126.741 53.2445 126.844 53.1891C126.947 53.1356 127.026 53.0563 127.082 52.9512C127.137 52.848 127.165 52.7229 127.165 52.5758V50.2889L127.245 49.5724ZM125.159 51.1601V51.0999C125.159 50.863 125.187 50.6481 125.245 50.4551C125.304 50.2602 125.387 50.093 125.494 49.9536C125.603 49.8141 125.735 49.7062 125.89 49.6297C126.044 49.5533 126.219 49.5151 126.414 49.5151C126.62 49.5151 126.793 49.5533 126.933 49.6297C127.072 49.7062 127.187 49.8151 127.277 49.9564C127.366 50.0959 127.436 50.2612 127.486 50.4522C127.537 50.6414 127.578 50.8487 127.606 51.0741V51.2059C127.578 51.4218 127.535 51.6224 127.477 51.8077C127.42 51.9931 127.344 52.1555 127.251 52.2949C127.157 52.4325 127.041 52.5395 126.901 52.6159C126.764 52.6923 126.599 52.7305 126.408 52.7305C126.217 52.7305 126.044 52.6914 125.89 52.613C125.737 52.5347 125.606 52.4248 125.497 52.2835C125.388 52.1421 125.304 51.9759 125.245 51.7848C125.187 51.5938 125.159 51.3855 125.159 51.1601ZM125.984 51.0999V51.1601C125.984 51.2881 125.997 51.4075 126.021 51.5183C126.046 51.6291 126.084 51.7275 126.136 51.8135C126.19 51.8975 126.255 51.9635 126.334 52.0112C126.414 52.0571 126.509 52.08 126.617 52.08C126.768 52.08 126.892 52.0485 126.987 51.9854C127.083 51.9205 127.154 51.8316 127.202 51.7189C127.25 51.6062 127.278 51.4763 127.285 51.3292V50.9537C127.281 50.8334 127.265 50.7254 127.236 50.6299C127.208 50.5325 127.168 50.4494 127.116 50.3806C127.065 50.3118 126.998 50.2583 126.916 50.2201C126.833 50.1819 126.736 50.1628 126.623 50.1628C126.514 50.1628 126.42 50.1876 126.339 50.2373C126.261 50.2851 126.195 50.351 126.142 50.435C126.09 50.5191 126.051 50.6184 126.024 50.7331C125.998 50.8458 125.984 50.9681 125.984 51.0999ZM132.074 48.492V52.6732H131.249V49.4435L130.257 49.7587V49.1082L131.985 48.492H132.074Z" fill="#292929"/>
<circle cx="25.3927" cy="53.7654" r="9.04827" fill="#9254DE"/>
<path d="M22.0412 56.061V50.3716H23.2476V56.061H22.0412ZM27.0963 51.2939C26.8654 51.2939 26.6605 51.3393 26.4814 51.4301C26.305 51.5183 26.1559 51.6468 26.0339 51.8154C25.9146 51.984 25.8238 52.1877 25.7615 52.4264C25.6993 52.665 25.6681 52.9336 25.6681 53.2319C25.6681 53.634 25.7174 53.9778 25.816 54.2632C25.9172 54.5459 26.0728 54.7626 26.283 54.913C26.4931 55.0609 26.7642 55.1349 27.0963 55.1349C27.3272 55.1349 27.5581 55.1089 27.789 55.057C28.0225 55.0051 28.2754 54.9312 28.5478 54.8352V55.847C28.2962 55.9508 28.0484 56.0247 27.8046 56.0688C27.5607 56.1155 27.287 56.1389 26.9835 56.1389C26.3971 56.1389 25.9146 56.0182 25.5358 55.777C25.1596 55.5331 24.8807 55.1932 24.6991 54.7574C24.5175 54.3189 24.4267 53.8079 24.4267 53.2241C24.4267 52.7935 24.4851 52.3991 24.6018 52.0411C24.7186 51.6831 24.8898 51.3731 25.1155 51.111C25.3412 50.849 25.6201 50.6466 25.9522 50.504C26.2843 50.3613 26.6656 50.2899 27.0963 50.2899C27.3791 50.2899 27.6619 50.3262 27.9447 50.3989C28.23 50.4689 28.5024 50.5662 28.7619 50.6907L28.3727 51.6714C28.16 51.5702 27.946 51.482 27.7306 51.4068C27.5153 51.3316 27.3039 51.2939 27.0963 51.2939Z" fill="white"/>
</g>
<g filter="url(#filter1_d_632_11065)">
<rect x="102" y="2" width="22.4016" height="22.4016" rx="11.2008" fill="#FFC069"/>
<g clip-path="url(#clip0_632_11065)">
<path d="M116.351 9.84106H115.091C114.511 9.84106 114.041 10.3124 114.041 10.8912V12.1513C114.041 12.73 114.511 13.2013 115.091 13.2013H116.351C116.423 13.2013 116.493 13.1938 116.561 13.1799V14.0414C116.561 14.968 115.807 15.7215 114.881 15.7215H114.461C114.228 15.7215 114.041 15.9097 114.041 16.1415C114.041 16.3734 114.228 16.5616 114.461 16.5616H114.881C116.271 16.5616 117.401 15.4313 117.401 14.0414V10.8912C117.401 10.3124 116.93 9.84106 116.351 9.84106Z" fill="white"/>
<path d="M111.31 9.84106H110.05C109.471 9.84106 109 10.3124 109 10.8912V12.1513C109 12.73 109.471 13.2013 110.05 13.2013H111.31C111.382 13.2013 111.452 13.1938 111.52 13.1799V14.0414C111.52 14.968 110.766 15.7215 109.84 15.7215H109.42C109.187 15.7215 109 15.9097 109 16.1415C109 16.3734 109.187 16.5616 109.42 16.5616H109.84C111.23 16.5616 112.36 15.4313 112.36 14.0414V10.8912C112.36 10.3124 111.889 9.84106 111.31 9.84106Z" fill="white"/>
</g>
</g>
<g filter="url(#filter2_d_632_11065)">
<rect x="8.52051" y="77.5172" width="16.1767" height="16.1767" rx="2.02208" fill="#FAFAFA"/>
<g clip-path="url(#clip1_632_11065)">
<path d="M16.6092 86.3639C17.028 86.3639 17.3675 86.0244 17.3675 85.6056C17.3675 85.1868 17.028 84.8473 16.6092 84.8473C16.1904 84.8473 15.851 85.1868 15.851 85.6056C15.851 86.0244 16.1904 86.3639 16.6092 86.3639Z" fill="#2F61E6"/>
<path d="M14.3337 86.3639C14.7525 86.3639 15.092 86.0244 15.092 85.6056C15.092 85.1868 14.7525 84.8473 14.3337 84.8473C13.9149 84.8473 13.5754 85.1868 13.5754 85.6056C13.5754 86.0244 13.9149 86.3639 14.3337 86.3639Z" fill="#2F61E6"/>
<path d="M18.8841 86.3639C19.3029 86.3639 19.6424 86.0244 19.6424 85.6056C19.6424 85.1868 19.3029 84.8473 18.8841 84.8473C18.4653 84.8473 18.1259 85.1868 18.1259 85.6056C18.1259 86.0244 18.4653 86.3639 18.8841 86.3639Z" fill="#2F61E6"/>
</g>
</g>
<defs>
<filter id="filter0_d_632_11065" x="0.432183" y="35.0538" width="151.656" height="51.8806" filterUnits="userSpaceOnUse" color-interpolation-filters="sRGB">
<feFlood flood-opacity="0" result="BackgroundImageFix"/>
<feColorMatrix in="SourceAlpha" type="matrix" values="0 0 0 0 0 0 0 0 0 0 0 0 0 0 0 0 0 0 127 0" result="hardAlpha"/>
<feMorphology radius="5.39222" operator="erode" in="SourceAlpha" result="effect1_dropShadow_632_11065"/>
<feOffset dy="6.74027"/>
<feGaussianBlur stdDeviation="6.74027"/>
<feComposite in2="hardAlpha" operator="out"/>
<feColorMatrix type="matrix" values="0 0 0 0 0.172549 0 0 0 0 0.239216 0 0 0 0 0.415686 0 0 0 0.25 0"/>
<feBlend mode="normal" in2="BackgroundImageFix" result="effect1_dropShadow_632_11065"/>
<feBlend mode="normal" in="SourceGraphic" in2="effect1_dropShadow_632_11065" result="shape"/>
</filter>
<filter id="filter1_d_632_11065" x="93.9117" y="0.651946" width="38.5783" height="38.5783" filterUnits="userSpaceOnUse" color-interpolation-filters="sRGB">
<feFlood flood-opacity="0" result="BackgroundImageFix"/>
<feColorMatrix in="SourceAlpha" type="matrix" values="0 0 0 0 0 0 0 0 0 0 0 0 0 0 0 0 0 0 127 0" result="hardAlpha"/>
<feMorphology radius="5.39222" operator="erode" in="SourceAlpha" result="effect1_dropShadow_632_11065"/>
<feOffset dy="6.74027"/>
<feGaussianBlur stdDeviation="6.74027"/>
<feComposite in2="hardAlpha" operator="out"/>
<feColorMatrix type="matrix" values="0 0 0 0 0.172549 0 0 0 0 0.239216 0 0 0 0 0.415686 0 0 0 0.25 0"/>
<feBlend mode="normal" in2="BackgroundImageFix" result="effect1_dropShadow_632_11065"/>
<feBlend mode="normal" in="SourceGraphic" in2="effect1_dropShadow_632_11065" result="shape"/>
</filter>
<filter id="filter2_d_632_11065" x="0.432183" y="76.1692" width="32.3533" height="32.3533" filterUnits="userSpaceOnUse" color-interpolation-filters="sRGB">
<feFlood flood-opacity="0" result="BackgroundImageFix"/>
<feColorMatrix in="SourceAlpha" type="matrix" values="0 0 0 0 0 0 0 0 0 0 0 0 0 0 0 0 0 0 127 0" result="hardAlpha"/>
<feMorphology radius="5.39222" operator="erode" in="SourceAlpha" result="effect1_dropShadow_632_11065"/>
<feOffset dy="6.74027"/>
<feGaussianBlur stdDeviation="6.74027"/>
<feComposite in2="hardAlpha" operator="out"/>
<feColorMatrix type="matrix" values="0 0 0 0 0.172549 0 0 0 0 0.239216 0 0 0 0 0.415686 0 0 0 0.25 0"/>
<feBlend mode="normal" in2="BackgroundImageFix" result="effect1_dropShadow_632_11065"/>
<feBlend mode="normal" in="SourceGraphic" in2="effect1_dropShadow_632_11065" result="shape"/>
</filter>
<clipPath id="clip0_632_11065">
<rect width="8.40061" height="8.40061" fill="white" transform="translate(109 9.00024)"/>
</clipPath>
<clipPath id="clip1_632_11065">
<rect width="6.06624" height="6.06624" fill="white" transform="translate(13.5754 82.5729)"/>
</clipPath>
</defs>
</svg>
