<svg width="32" height="32" viewBox="0 0 32 32" fill="none" xmlns="http://www.w3.org/2000/svg" id='Twitter-icon'>
<rect x="0.5" y="0.5" width="31" height="31" rx="3.5" stroke="currentcolor"/>
<path d="M23.4283 11.3988C22.8818 11.6345 22.2872 11.8041 21.6747 11.8702C22.3106 11.4924 22.7868 10.8956 23.014 10.1916C22.4173 10.5466 21.7635 10.7955 21.0818 10.9274C20.7969 10.6228 20.4523 10.3801 20.0695 10.2145C19.6867 10.0489 19.2739 9.96393 18.8568 9.96485C17.1693 9.96485 15.8122 11.3327 15.8122 13.0113C15.8122 13.247 15.8408 13.4827 15.8872 13.7095C13.3604 13.5774 11.1068 12.3702 9.60862 10.522C9.33563 10.9883 9.19257 11.5192 9.19434 12.0595C9.19434 13.1166 9.73184 14.0488 10.5515 14.597C10.0685 14.578 9.59673 14.4452 9.17469 14.2095V14.247C9.17469 15.7274 10.2211 16.9541 11.6158 17.2363C11.3539 17.3043 11.0845 17.3391 10.814 17.3399C10.6158 17.3399 10.4283 17.3202 10.239 17.2934C10.6247 18.5006 11.7479 19.3774 13.0854 19.4059C12.039 20.2256 10.7283 20.7077 9.30505 20.7077C9.04969 20.7077 8.81398 20.6988 8.56934 20.6702C9.91934 21.5363 11.5211 22.0363 13.2461 22.0363C18.8461 22.0363 21.9104 17.397 21.9104 13.3702C21.9104 13.2381 21.9104 13.1059 21.9015 12.9738C22.4943 12.5399 23.014 12.0024 23.4283 11.3988Z" fill="currentcolor"/>
</svg>
