<svg xmlns="http://www.w3.org/2000/svg" width="20" height="20" viewBox="0 0 20 20" fill="none" id='notification-icon'>
  <path d="M18.5417 8.95834C18.1967 8.95834 17.9167 8.67834 17.9167 8.33334C17.9167 5.94 16.9852 3.69086 15.2935 1.99835C15.0493 1.75421 15.0493 1.3584 15.2935 1.11426C15.5376 0.870117 15.9334 0.870117 16.1777 1.11426C18.1052 3.04251 19.1667 5.60675 19.1667 8.33334C19.1667 8.67834 18.8867 8.95834 18.5417 8.95834Z" fill="currentcolor"/>
  <path d="M1.4585 8.95856C1.11349 8.95856 0.833496 8.67856 0.833496 8.33356C0.833496 5.60696 1.8952 3.04272 3.82346 1.11523C4.0676 0.871094 4.46356 0.871094 4.7077 1.11523C4.95184 1.35937 4.95184 1.75534 4.7077 1.99948C3.0152 3.69107 2.0835 5.94022 2.0835 8.33356C2.0835 8.67856 1.8035 8.95856 1.4585 8.95856Z" fill="currentcolor"/>
  <path d="M10.0005 20C8.27716 20 6.87549 18.5983 6.87549 16.875C6.87549 16.53 7.15549 16.25 7.50049 16.25C7.84549 16.25 8.12549 16.53 8.12549 16.875C8.12549 17.9092 8.96625 18.75 10.0005 18.75C11.0346 18.75 11.8755 17.9092 11.8755 16.875C11.8755 16.53 12.1555 16.25 12.5005 16.25C12.8455 16.25 13.1255 16.53 13.1255 16.875C13.1255 18.5983 11.7238 20 10.0005 20Z" fill="currentcolor"/>
  <path d="M16.8749 17.5H3.12494C2.32065 17.5 1.6665 16.8459 1.6665 16.0417C1.6665 15.6149 1.85236 15.2109 2.17661 14.9333C3.444 13.8625 4.1665 12.3059 4.1665 10.6567V8.33328C4.1665 5.11673 6.78323 2.5 9.99994 2.5C13.2165 2.5 15.8332 5.11673 15.8332 8.33328V10.6567C15.8332 12.3059 16.5557 13.8625 17.8149 14.9275C18.1474 15.2109 18.3332 15.6149 18.3332 16.0417C18.3332 16.8459 17.6791 17.5 16.8749 17.5ZM9.99994 3.75C7.47232 3.75 5.4165 5.80582 5.4165 8.33328V10.6567C5.4165 12.6741 4.53241 14.5792 2.99158 15.8817C2.96243 15.9067 2.9165 15.9584 2.9165 16.0417C2.9165 16.1549 3.01157 16.25 3.12494 16.25H16.8749C16.9882 16.25 17.0832 16.1549 17.0832 16.0417C17.0832 15.9584 17.0374 15.9067 17.0098 15.8833C15.4673 14.5792 14.5832 12.6741 14.5832 10.6567V8.33328C14.5832 5.80582 12.5274 3.75 9.99994 3.75Z" fill="currentcolor"/>
  <path d="M10.0005 3.75C9.65549 3.75 9.37549 3.47 9.37549 3.125V0.625C9.37549 0.279999 9.65549 0 10.0005 0C10.3455 0 10.6255 0.279999 10.6255 0.625V3.125C10.6255 3.47 10.3455 3.75 10.0005 3.75Z" fill="currentcolor"/>
</svg>