<svg width="14" height="14" viewBox="0 0 14 14" fill="none" xmlns="http://www.w3.org/2000/svg" id='services-icon'>
<g id="Frame" clip-path="url(#clip0_3627_40552)">
<g id="Group">
<path id="Vector" d="M7.41016 7.23633V10.1074L9.89661 8.67188V5.80078L7.41016 7.23633Z" fill="currentcolor"/>
<path id="Vector_2" d="M7.00012 6.52637L9.48654 5.09079L7.00012 3.65527L4.51367 5.09082L7.00012 6.52637Z" fill="currentcolor"/>
<path id="Vector_3" d="M6.58996 7.23633L4.10352 5.80078V8.67188L6.58996 10.1074V7.23633Z" fill="currentcolor"/>
<path id="Vector_4" d="M12.7354 8.6774C13.0542 7.58767 13.0538 6.41848 12.7344 5.32347C13.2641 4.88543 13.4173 4.11474 13.0624 3.5C12.7078 2.88567 11.9645 2.63296 11.3205 2.87191C10.5362 2.051 9.52343 1.46669 8.41541 1.19582C8.30089 0.518027 7.71008 0 7.00023 0C6.29083 0 5.70034 0.517344 5.58533 1.19448C4.48228 1.46327 3.46996 2.04813 2.68137 2.87219C2.40383 2.76836 2.10171 2.75289 1.80973 2.83112C1.43933 2.93038 1.12977 3.16791 0.938068 3.5C0.583365 4.11436 0.736162 4.88441 1.26507 5.3226C0.946326 6.4123 0.946681 7.58149 1.26611 8.67653C0.736353 9.11457 0.583119 9.88523 0.93804 10.5C1.12977 10.8321 1.43933 11.0696 1.8097 11.1689C1.93338 11.202 2.05889 11.2184 2.18358 11.2184C2.35275 11.2184 2.52026 11.1875 2.67981 11.128C3.46417 11.949 4.47698 12.5333 5.58506 12.8042C5.69957 13.482 6.29036 14 7.00023 14C7.70961 14 8.30013 13.4827 8.41513 12.8055C9.5181 12.5367 10.5304 11.9519 11.3189 11.1279C11.4811 11.1883 11.6497 11.2175 11.8168 11.2175C12.3132 11.2174 12.7968 10.96 13.0624 10.5C13.4171 9.88567 13.2643 9.11561 12.7354 8.6774ZM8.31325 11.9851C8.09013 11.4814 7.58572 11.1289 7.00023 11.1289C6.41521 11.1289 5.91113 11.4808 5.68773 11.984C4.79843 11.7492 3.98454 11.2799 3.34 10.6302C3.44347 10.4888 3.52118 10.3281 3.56791 10.1538C3.66714 9.7834 3.61622 9.39654 3.42449 9.06445C3.13197 8.55783 2.57517 8.2973 2.02774 8.35538C1.78635 7.46763 1.78589 6.52791 2.02638 5.64476C2.07718 5.6502 2.1281 5.65305 2.17885 5.65305C2.67533 5.65305 3.1589 5.39555 3.42449 4.93555C3.61622 4.60346 3.66717 4.21663 3.56791 3.84623C3.52129 3.67229 3.44385 3.51203 3.34076 3.37083C3.98884 2.71816 4.80229 2.24807 5.68718 2.01485C5.91034 2.51861 6.41475 2.87109 7.00023 2.87109C7.58525 2.87109 8.08931 2.51915 8.31273 2.01603C9.20231 2.25088 10.0164 2.7204 10.661 3.37031C10.3363 3.81541 10.2833 4.42848 10.576 4.93555C10.8416 5.39558 11.3251 5.65302 11.8216 5.65302C11.872 5.65302 11.9224 5.6502 11.9728 5.64487C12.2142 6.53261 12.2146 7.47234 11.974 8.35548C11.4262 8.29686 10.8687 8.55739 10.576 9.06445C10.2835 9.57111 10.3363 10.1836 10.6602 10.6286C10.0121 11.2816 9.19842 11.7519 8.31325 11.9851Z" fill="currentcolor"/>
</g>
</g>
<defs>
<clipPath id="clip0_3627_40552">
<rect width="14" height="14" fill="white"/>
</clipPath>
</defs>
</svg>
