<svg xmlns="http://www.w3.org/2000/svg" width="20" height="18" viewBox="0 0 20 18" fill="none" id='companies-icon'>
  <path d="M11.3796 17.0955C11.3796 17.3861 11.6152 17.6217 11.9059 17.6217C12.1965 17.6217 12.4321 17.3861 12.4321 17.0955V0.903465C12.4321 0.612835 12.1965 0.377246 11.9059 0.377246H3.33364C3.04301 0.377246 2.80742 0.612836 2.80742 0.903465V17.0955C2.80742 17.3861 3.04301 17.6217 3.33364 17.6217C3.62427 17.6217 3.85986 17.3861 3.85986 17.0955V1.42968H11.3796V17.0955Z" fill="currentcolor" stroke="currentcolor" stroke-width="0.1"/>
  <path d="M16.1162 17.0953C16.1162 17.3859 16.3517 17.6215 16.6424 17.6215C16.933 17.6215 17.1686 17.3859 17.1686 17.0953V2.80825C17.1686 2.51762 16.933 2.28203 16.6424 2.28203H13.8107C13.5201 2.28203 13.2845 2.51762 13.2845 2.80825C13.2845 3.09888 13.5201 3.33447 13.8107 3.33447H16.1162V17.0953Z" fill="currentcolor" stroke="currentcolor" stroke-width="0.1"/>
  <path d="M8.04583 17.0955C8.04583 17.3862 8.28142 17.6218 8.57205 17.6218C8.86268 17.6218 9.09831 17.3862 9.09831 17.0955V15.1906C9.09831 14.8999 8.86272 14.6644 8.57209 14.6644H6.66714C6.37651 14.6644 6.14092 14.8999 6.14092 15.1906V17.0955C6.14092 17.3862 6.37651 17.6218 6.66714 17.6218C6.95777 17.6218 7.19336 17.3862 7.19336 17.0955V15.7168H8.04583V17.0955Z" fill="currentcolor" stroke="currentcolor" stroke-width="0.1"/>
  <path d="M5.71499 12.8594H6.66747C6.9581 12.8594 7.19369 12.6238 7.19369 12.3332C7.19369 12.0425 6.9581 11.8069 6.66747 11.8069H5.71499C5.42436 11.8069 5.18877 12.0425 5.18877 12.3332C5.18877 12.6238 5.42436 12.8594 5.71499 12.8594Z" fill="currentcolor" stroke="currentcolor" stroke-width="0.1"/>
  <path d="M8.57241 12.8594H9.52489C9.81552 12.8594 10.0511 12.6238 10.0511 12.3332C10.0511 12.0425 9.81552 11.8069 9.52489 11.8069H8.57241C8.28178 11.8069 8.04619 12.0425 8.04619 12.3332C8.04619 12.6238 8.28178 12.8594 8.57241 12.8594Z" fill="currentcolor" stroke="currentcolor" stroke-width="0.1"/>
  <path d="M5.71499 10.0024H6.66747C6.9581 10.0024 7.19369 9.76685 7.19369 9.47622C7.19369 9.18559 6.9581 8.95 6.66747 8.95H5.71499C5.42436 8.95 5.18877 9.18559 5.18877 9.47622C5.18877 9.76685 5.42436 10.0024 5.71499 10.0024Z" fill="currentcolor" stroke="currentcolor" stroke-width="0.1"/>
  <path d="M8.57192 10.0024H9.5244C9.81503 10.0024 10.0506 9.76685 10.0506 9.47622C10.0506 9.18559 9.81503 8.95 9.5244 8.95H8.57192C8.28129 8.95 8.0457 9.18559 8.0457 9.47622C8.0457 9.76685 8.28129 10.0024 8.57192 10.0024Z" fill="currentcolor" stroke="currentcolor" stroke-width="0.1"/>
  <path d="M5.71499 7.14404H6.66747C6.9581 7.14404 7.19369 6.90845 7.19369 6.61782C7.19369 6.32719 6.9581 6.0916 6.66747 6.0916H5.71499C5.42436 6.0916 5.18877 6.32719 5.18877 6.61782C5.18877 6.90845 5.42436 7.14404 5.71499 7.14404Z" fill="currentcolor" stroke="currentcolor" stroke-width="0.1"/>
  <path d="M8.57192 7.14404H9.5244C9.81503 7.14404 10.0506 6.90845 10.0506 6.61782C10.0506 6.32719 9.81503 6.0916 9.5244 6.0916H8.57192C8.28129 6.0916 8.0457 6.32719 8.0457 6.61782C8.0457 6.90845 8.28129 7.14404 8.57192 7.14404Z" fill="currentcolor" stroke="currentcolor" stroke-width="0.1"/>
  <path d="M5.71499 4.28711H6.66747C6.9581 4.28711 7.19369 4.05152 7.19369 3.76089C7.19369 3.47026 6.9581 3.23467 6.66747 3.23467H5.71499C5.42436 3.23467 5.18877 3.47026 5.18877 3.76089C5.18877 4.05152 5.42436 4.28711 5.71499 4.28711Z" fill="currentcolor" stroke="currentcolor" stroke-width="0.1"/>
  <path d="M8.57241 4.28711H9.52489C9.81552 4.28711 10.0511 4.05152 10.0511 3.76089C10.0511 3.47026 9.81552 3.23467 9.52489 3.23467H8.57241C8.28178 3.23467 8.04619 3.47026 8.04619 3.76089C8.04619 4.05152 8.28178 4.28711 8.57241 4.28711Z" fill="currentcolor" stroke="currentcolor" stroke-width="0.1"/>
  <path d="M13.8107 14.7646H14.7632C15.0538 14.7646 15.2894 14.529 15.2894 14.2384C15.2894 13.9478 15.0538 13.7122 14.7632 13.7122H13.8107C13.5201 13.7122 13.2845 13.9478 13.2845 14.2384C13.2845 14.5291 13.5201 14.7646 13.8107 14.7646Z" fill="currentcolor" stroke="currentcolor" stroke-width="0.1"/>
  <path d="M13.8107 11.9067H14.7632C15.0538 11.9067 15.2894 11.6711 15.2894 11.3805C15.2894 11.0899 15.0538 10.8543 14.7632 10.8543H13.8107C13.5201 10.8543 13.2845 11.0899 13.2845 11.3805C13.2845 11.6711 13.5201 11.9067 13.8107 11.9067Z" fill="currentcolor" stroke="currentcolor" stroke-width="0.1"/>
  <path d="M13.8107 9.04931H14.7632C15.0538 9.04931 15.2894 8.81368 15.2894 8.52309C15.2894 8.23246 15.0538 7.99687 14.7632 7.99687H13.8107C13.5201 7.99687 13.2845 8.23246 13.2845 8.52309C13.2845 8.81372 13.5201 9.04931 13.8107 9.04931Z" fill="currentcolor" stroke="currentcolor" stroke-width="0.1"/>
  <path d="M13.8107 6.19189H14.7632C15.0538 6.19189 15.2894 5.9563 15.2894 5.66567C15.2894 5.37504 15.0538 5.13945 14.7632 5.13945H13.8107C13.5201 5.13945 13.2845 5.37504 13.2845 5.66567C13.2845 5.9563 13.5201 6.19189 13.8107 6.19189Z" fill="currentcolor" stroke="currentcolor" stroke-width="0.1"/>
  <path d="M0.476219 17.6221H17.595C17.8856 17.6221 18.1212 17.3865 18.1212 17.0958C18.1212 16.8052 17.8856 16.5696 17.595 16.5696H0.476219C0.185589 16.5696 -0.05 16.8052 -0.05 17.0958C-0.05 17.3865 0.18559 17.6221 0.476219 17.6221Z" fill="currentcolor" stroke="currentcolor" stroke-width="0.1"/>
  <path d="M19.5256 17.6198C19.8152 17.6198 20.0499 17.385 20.0499 17.0954C20.0499 16.8058 19.8152 16.5711 19.5256 16.5711C19.236 16.5711 19.0013 16.8058 19.0013 17.0954C19.0013 17.385 19.236 17.6198 19.5256 17.6198Z" fill="currentcolor" stroke="currentcolor" stroke-width="0.1"/>
</svg>