<svg width="16" height="16" viewBox="0 0 16 16" fill="none" xmlns="http://www.w3.org/2000/svg" id='collapse-icon'>
<path d="M8.66659 5.80475V13C8.66659 13.1841 8.51732 13.3333 8.33325 13.3333C8.14919 13.3333 7.99992 13.1841 7.99992 13V5.80475L5.90229 7.9024C5.77211 8.03254 5.56106 8.03254 5.43089 7.9024C5.30071 7.7722 5.30071 7.56114 5.43089 7.43094L8.09752 4.76431C8.22772 4.63413 8.43879 4.63413 8.56898 4.76431L11.2357 7.43094C11.3658 7.56114 11.3658 7.7722 11.2357 7.9024C11.1055 8.03254 10.8944 8.03254 10.7642 7.9024L8.66659 5.80475ZM3.66659 3.33334C3.48249 3.33334 3.33325 3.1841 3.33325 3.00001C3.33325 2.81591 3.48249 2.66667 3.66659 2.66667H12.9999C13.184 2.66667 13.3333 2.81591 13.3333 3.00001C13.3333 3.1841 13.184 3.33334 12.9999 3.33334H3.66659Z" fill="currentcolor"/>
</svg>
