<svg xmlns="http://www.w3.org/2000/svg" width="12" height="12" viewBox="0 0 12 12" fill="none">
  <g clip-path="url(#clip0_357_10893)">
    <path d="M12 11.2987H11.6023V3.6297H12V2.92841H9.31329V4.32312H10.427V5.02441H9.31329V5.7258H10.427V6.42709H9.31329V7.12839H10.427V7.82968H9.31329V8.53107H10.427V9.23236H9.31329V11.2988H8.63361V1.60455L6 0L3.36639 1.60455V11.2987H2.68671V9.23227H1.58075V8.53107H2.68671V7.82968H1.58075V7.12839H2.68671V6.427H1.58075V5.7258H2.68671V5.02441H1.58075V4.32312H2.68671V2.92841H0V3.6297H0.405487V11.2987H0V12H12V11.2987ZM6.9819 2.82715H7.6832V3.52844H6.9819V2.82715ZM6.9819 4.29977H7.6832V5.00107H6.9819V4.29977ZM6.9819 5.77249H7.6832V6.47379H6.9819V5.77249ZM6.9819 7.24512H7.6832V7.94641H6.9819V7.24512ZM6.9819 8.71774H7.6832V9.41904H6.9819V8.71774ZM5.64935 2.82715H6.35065V3.52844H5.64935V2.82715ZM5.64935 4.29977H6.35065V5.00107H5.64935V4.29977ZM5.64935 5.77249H6.35065V6.47379H5.64935V5.77249ZM5.64935 7.24512H6.35065V7.94641H5.64935V7.24512ZM5.64935 8.71774H6.35065V9.41904H5.64935V8.71774ZM4.29355 2.82715H4.99493V3.52844H4.29355V2.82715ZM4.29355 4.29977H4.99493V5.00107H4.29355V4.29977ZM4.29355 5.77249H4.99493V6.47379H4.29355V5.77249ZM4.29355 7.24512H4.99493V7.94641H4.29355V7.24512ZM4.29355 8.71774H4.99493V9.41904H4.29355V8.71774ZM5.64935 10.0502H6.35065V11.2987H5.64935V10.0502Z" fill="#FA8C16"/>
  </g>
  <defs>
    <clipPath id="clip0_357_10893">
      <rect width="12" height="12" fill="white"/>
    </clipPath>
  </defs>
</svg>