<svg xmlns="http://www.w3.org/2000/svg" width="14" height="14" viewBox="0 0 14 14" fill="none" id='overview-icon'>
  <path d="M7.56319 13.6299L8.81245 12.3806C9.22592 12.6655 9.72642 12.8333 10.2666 12.8333C11.6841 12.8333 12.8333 11.6841 12.8333 10.2666C12.8333 8.84912 11.6841 7.69995 10.2666 7.69995C8.84909 7.69995 7.69992 8.84912 7.69992 10.2666C7.69992 10.8068 7.86769 11.3073 8.15259 11.7208L6.90332 12.97L7.56319 13.6299ZM8.63325 10.2666C8.63325 9.36455 9.36452 8.63328 10.2666 8.63328C11.1687 8.63328 11.8999 9.36455 11.8999 10.2666C11.8999 11.1687 11.1687 11.9 10.2666 11.9C9.36452 11.9 8.63325 11.1687 8.63325 10.2666Z" fill="currentcolor"/>
  <path d="M5.95328 12.6L7.00818 11.5451C6.84881 11.1407 6.76621 10.7088 6.76621 10.2666C6.76621 8.33672 8.33631 6.76662 10.2662 6.76662C10.9527 6.76662 11.592 6.96822 12.1329 7.31099V1.16662C12.1329 0.908785 11.9238 0.699951 11.6662 0.699951H2.33288C2.07528 0.699951 1.86621 0.908785 1.86621 1.16662V12.1333C1.86621 12.3909 2.07528 12.6 2.33288 12.6H5.95328ZM10.4995 4.89995H3.49954V3.96662H10.4995V4.89995ZM10.4995 3.03328H3.49954V2.09995H10.4995V3.03328Z" fill="currentcolor"/>
</svg>