<svg xmlns="http://www.w3.org/2000/svg" width="14" height="14" viewBox="0 0 14 14" fill="none" id='draft'>
  <path d="M3.12943 9.00325C3.02384 9.10975 2.95599 9.24786 2.93624 9.39653L2.44636 12.8049C2.39544 13.2116 2.64645 13.5915 3.23293 13.5915L6.64137 13.1016C6.79003 13.0819 6.92815 13.014 7.03465 12.9084L11.5677 8.37539L7.66252 4.47021L3.12943 9.00325Z" fill="currentcolor"/>
  <path d="M8.64893 3.49735L12.5403 7.38872C12.9741 6.88927 13.2119 6.24942 13.2096 5.58793C13.2044 5.06186 13.0496 4.54814 12.7632 4.10678C12.4769 3.66542 12.0709 3.31464 11.5927 3.09542C11.1144 2.87619 10.5837 2.79758 10.0624 2.86875C9.54115 2.93992 9.0509 3.15795 8.64893 3.49735Z" fill="currentcolor"/>
  <path d="M1.4805 2.13822H7.69021C7.8732 2.13822 8.0487 2.06553 8.17809 1.93614C8.30749 1.80674 8.38018 1.63125 8.38018 1.44826C8.38018 1.26527 8.30749 1.08978 8.17809 0.960385C8.0487 0.830993 7.8732 0.758301 7.69021 0.758301H1.4805C1.2975 0.758301 1.12201 0.830993 0.992614 0.960385C0.86322 1.08978 0.790527 1.26527 0.790527 1.44826C0.790527 1.63125 0.86322 1.80674 0.992614 1.93614C1.12201 2.06553 1.2975 2.13822 1.4805 2.13822Z" fill="currentcolor"/>
  <path d="M1.4805 4.89799H5.62031C5.8033 4.89799 5.97879 4.82529 6.10819 4.6959C6.23758 4.56651 6.31027 4.39101 6.31027 4.20803C6.31027 4.02504 6.23758 3.84954 6.10819 3.72015C5.97879 3.59076 5.8033 3.51807 5.62031 3.51807H1.4805C1.2975 3.51807 1.12201 3.59076 0.992614 3.72015C0.86322 3.84954 0.790527 4.02504 0.790527 4.20803C0.790527 4.39101 0.86322 4.56651 0.992614 4.6959C1.12201 4.82529 1.2975 4.89799 1.4805 4.89799Z" fill="currentcolor"/>
  <path d="M2.86043 6.27832H1.4805C1.2975 6.27832 1.12201 6.35101 0.992614 6.4804C0.86322 6.6098 0.790527 6.78529 0.790527 6.96828C0.790527 7.15127 0.86322 7.32676 0.992614 7.45615C1.12201 7.58555 1.2975 7.65824 1.4805 7.65824H2.86043C3.04342 7.65824 3.21892 7.58555 3.34831 7.45615C3.47771 7.32676 3.5504 7.15127 3.5504 6.96828C3.5504 6.78529 3.47771 6.6098 3.34831 6.4804C3.21892 6.35101 3.04342 6.27832 2.86043 6.27832Z" fill="currentcolor"/>
</svg>