<svg xmlns="http://www.w3.org/2000/svg" width="14" height="14" viewBox="0 0 14 14" fill="none">
  <path d="M8.41065 3.0166L1.80808 9.61945C1.77486 9.65276 1.75088 9.69483 1.73945 9.74004L1.00762 12.6774C0.985732 12.7658 1.01172 12.8598 1.07625 12.9243C1.12507 12.9732 1.1916 13.0002 1.25966 13.0002C1.2805 13.0002 1.30182 12.9976 1.32257 12.9924L4.25998 12.2605C4.30577 12.2491 4.34736 12.2252 4.38058 12.192L10.9837 5.58959L8.41065 3.0166Z" fill="white"/>
  <path d="M12.6195 2.11587L11.8845 1.38092C11.3933 0.889716 10.5372 0.890192 10.0465 1.38092L9.14624 2.28119L11.7192 4.85409L12.6195 3.95382C12.8649 3.70855 13 3.38209 13 3.03489C13 2.68769 12.8649 2.36123 12.6195 2.11587Z" fill="white"/>
</svg>