<svg width="16" height="16" viewBox="0 0 16 16" fill="none" xmlns="http://www.w3.org/2000/svg">
<g id="Frame">
<path id="Vector" d="M8 9.75C8.9665 9.75 9.75 8.9665 9.75 8C9.75 7.0335 8.9665 6.25 8 6.25C7.0335 6.25 6.25 7.0335 6.25 8C6.25 8.9665 7.0335 9.75 8 9.75Z" fill="#2F61E6"/>
<path id="Vector_2" d="M2.75 9.75C3.7165 9.75 4.5 8.9665 4.5 8C4.5 7.0335 3.7165 6.25 2.75 6.25C1.7835 6.25 1 7.0335 1 8C1 8.9665 1.7835 9.75 2.75 9.75Z" fill="#2F61E6"/>
<path id="Vector_3" d="M13.25 9.75C14.2165 9.75 15 8.9665 15 8C15 7.0335 14.2165 6.25 13.25 6.25C12.2835 6.25 11.5 7.0335 11.5 8C11.5 8.9665 12.2835 9.75 13.25 9.75Z" fill="#2F61E6"/>
</g>
</svg>
