<svg width="18" height="18" viewBox="0 0 18 18" fill="none" xmlns="http://www.w3.org/2000/svg">
<rect width="18" height="18" fill="#BBBBBB"/>
<g id="Li&#195;&#170;n h&#225;&#187;&#135;" clip-path="url(#clip0_1427_20724)">
<rect width="1440" height="1803" transform="translate(-743 -381)" fill="white"/>
<g id="Frame 251" clip-path="url(#clip1_1427_20724)">
<rect width="1440" height="446" transform="translate(-743 -261)" fill="#EAEFFD"/>
<line id="Line 21" x1="-600" y1="9" x2="210" y2="9" stroke="url(#paint0_linear_1427_20724)" stroke-width="2" stroke-linecap="round"/>
<g id="Group 255">
<g id="Group 254">
<g id="Frame 184" filter="url(#filter0_d_1427_20724)">
<rect x="-11" y="-11" width="40" height="40" rx="5" fill="white" shape-rendering="crispEdges"/>
<g id="Frame">
<g id="Group">
<g id="Group_2">
<path id="Vector" d="M17.8394 3.57648L12.3804 9.00035L17.8394 14.4242C17.9381 14.218 17.998 13.9899 17.998 13.7464V4.25425C17.998 4.01073 17.9381 3.78274 17.8394 3.57648Z" fill="#FA8C16"/>
</g>
</g>
<g id="Group_3">
<g id="Group_4">
<path id="Vector_2" d="M16.417 2.67188H1.58102C1.33749 2.67188 1.10951 2.73175 0.903244 2.83043L7.88046 9.77249C8.49738 10.3894 9.5006 10.3894 10.1175 9.77249L17.0947 2.83043C16.8885 2.73175 16.6605 2.67188 16.417 2.67188Z" fill="#FA8C16"/>
</g>
</g>
<g id="Group_5">
<g id="Group_6">
<path id="Vector_3" d="M0.158555 3.57648C0.0598711 3.78274 0 4.01073 0 4.25425V13.7464C0 13.99 0.0598711 14.218 0.158555 14.4242L5.61758 9.00035L0.158555 3.57648Z" fill="#FA8C16"/>
</g>
</g>
<g id="Group_7">
<g id="Group_8">
<path id="Vector_4" d="M11.6357 9.7464L10.8632 10.5189C9.83529 11.5468 8.16266 11.5468 7.13472 10.5189L6.36227 9.7464L0.903244 15.1703C1.10951 15.269 1.33749 15.3288 1.58102 15.3288H16.417C16.6605 15.3288 16.8885 15.269 17.0947 15.1703L11.6357 9.7464Z" fill="#FA8C16"/>
</g>
</g>
</g>
</g>
</g>
</g>
</g>
</g>
<defs>
<filter id="filter0_d_1427_20724" x="-29.75" y="-22.25" width="77.5" height="77.5" filterUnits="userSpaceOnUse" color-interpolation-filters="sRGB">
<feFlood flood-opacity="0" result="BackgroundImageFix"/>
<feColorMatrix in="SourceAlpha" type="matrix" values="0 0 0 0 0 0 0 0 0 0 0 0 0 0 0 0 0 0 127 0" result="hardAlpha"/>
<feOffset dy="7.5"/>
<feGaussianBlur stdDeviation="9.375"/>
<feComposite in2="hardAlpha" operator="out"/>
<feColorMatrix type="matrix" values="0 0 0 0 0.172549 0 0 0 0 0.239216 0 0 0 0 0.415686 0 0 0 0.15 0"/>
<feBlend mode="normal" in2="BackgroundImageFix" result="effect1_dropShadow_1427_20724"/>
<feBlend mode="normal" in="SourceGraphic" in2="effect1_dropShadow_1427_20724" result="shape"/>
</filter>
<linearGradient id="paint0_linear_1427_20724" x1="-201.5" y1="10.9982" x2="211" y2="10.9982" gradientUnits="userSpaceOnUse">
<stop offset="0.545582" stop-color="white"/>
<stop offset="1" stop-color="white" stop-opacity="0.1"/>
</linearGradient>
<clipPath id="clip0_1427_20724">
<rect width="1440" height="1803" fill="white" transform="translate(-743 -381)"/>
</clipPath>
<clipPath id="clip1_1427_20724">
<rect width="1440" height="446" fill="white" transform="translate(-743 -261)"/>
</clipPath>
</defs>
</svg>
