<svg xmlns="http://www.w3.org/2000/svg" width="14" height="14" viewBox="0 0 14 14" fill="none">
  <g clip-path="url(#clip0_3627_40694)">
    <path d="M13.384 3.08301L9.44141 7.00025L13.384 10.9175C13.4553 10.7685 13.4985 10.6038 13.4985 10.428V3.57251C13.4985 3.39663 13.4553 3.23197 13.384 3.08301Z" fill="#FA8C16"/>
    <path d="M12.3567 2.42969H1.64185C1.46597 2.42969 1.30131 2.47293 1.15234 2.5442L6.19144 7.55791C6.637 8.00346 7.36154 8.00346 7.8071 7.55791L12.8462 2.5442C12.6972 2.47293 12.5326 2.42969 12.3567 2.42969Z" fill="#FA8C16"/>
    <path d="M0.614512 3.08301C0.54324 3.23197 0.5 3.39663 0.5 3.57251V10.428C0.5 10.6039 0.54324 10.7685 0.614512 10.9175L4.55714 7.00025L0.614512 3.08301Z" fill="#FA8C16"/>
    <path d="M8.90357 7.53906L8.34566 8.09697C7.60326 8.83937 6.39525 8.83937 5.65286 8.09697L5.09497 7.53906L1.15234 11.4563C1.30131 11.5276 1.46597 11.5708 1.64185 11.5708H12.3567C12.5326 11.5708 12.6972 11.5276 12.8462 11.4563L8.90357 7.53906Z" fill="#FA8C16"/>
  </g>
  <defs>
    <clipPath id="clip0_3627_40694">
      <rect width="13" height="13" fill="white" transform="translate(0.5 0.5)"/>
    </clipPath>
  </defs>
</svg>