<svg width="32" height="32" viewBox="0 0 32 32" fill="none" xmlns="http://www.w3.org/2000/svg" id='Facebook-icon'>
<rect x="0.5" y="0.5" width="31" height="31" rx="3.5" stroke="currentcolor"/>
<path d="M13.8679 17.384C13.8169 17.384 12.6949 17.384 12.1849 17.384C11.9129 17.384 11.8279 17.282 11.8279 17.027C11.8279 16.347 11.8279 15.65 11.8279 14.97C11.8279 14.698 11.9299 14.613 12.1849 14.613H13.8679C13.8679 14.562 13.8679 13.576 13.8679 13.117C13.8679 12.437 13.9869 11.791 14.3269 11.196C14.6839 10.584 15.1939 10.176 15.8399 9.93798C16.2649 9.78498 16.6899 9.71698 17.1489 9.71698H18.8149C19.0529 9.71698 19.1549 9.81898 19.1549 10.057V11.995C19.1549 12.233 19.0529 12.335 18.8149 12.335C18.3559 12.335 17.8969 12.335 17.4379 12.352C16.9789 12.352 16.7409 12.573 16.7409 13.049C16.7239 13.559 16.7409 14.052 16.7409 14.579H18.7129C18.9849 14.579 19.0869 14.681 19.0869 14.953V17.01C19.0869 17.282 19.0019 17.367 18.7129 17.367C18.1009 17.367 16.7919 17.367 16.7409 17.367V22.909C16.7409 23.198 16.6559 23.3 16.3499 23.3C15.6359 23.3 14.9389 23.3 14.2249 23.3C13.9699 23.3 13.8679 23.198 13.8679 22.943C13.8679 21.158 13.8679 17.435 13.8679 17.384Z" fill="currentcolor"/>
</svg>
