<svg xmlns="http://www.w3.org/2000/svg" width="120" height="120" viewBox="0 0 120 120" fill="none">
  <path d="M53.7769 24.8814L18.8438 85.383C18.2128 86.4755 17.8805 87.715 17.8804 88.9767C17.8803 90.2384 18.2123 91.4779 18.8431 92.5706C19.4739 93.6633 20.3813 94.5706 21.474 95.2015C22.5666 95.8323 23.8061 96.1643 25.0678 96.1642H94.9285C96.1902 96.1643 97.4297 95.8323 98.5223 95.2015C99.615 94.5706 100.522 93.6633 101.153 92.5706C101.784 91.4779 102.116 90.2384 102.116 88.9767C102.116 87.715 101.784 86.4755 101.153 85.383L66.2232 24.8814C65.5924 23.789 64.6853 22.8819 63.5929 22.2513C62.5005 21.6206 61.2614 21.2886 60 21.2886C58.7387 21.2886 57.4995 21.6206 56.4071 22.2513C55.3147 22.8819 54.4076 23.789 53.7769 24.8814Z" fill="#EE404C"/>
  <path d="M60.4559 43.5415H59.5446C57.3011 43.5415 55.4824 45.3602 55.4824 47.6037V67.0203C55.4824 69.2637 57.3011 71.0824 59.5446 71.0824H60.4559C62.6993 71.0824 64.518 69.2637 64.518 67.0203V47.6037C64.518 45.3602 62.6993 43.5415 60.4559 43.5415Z" fill="#FFF7ED"/>
  <path d="M60.0002 86.4819C62.4954 86.4819 64.518 84.4592 64.518 81.9641C64.518 79.469 62.4954 77.4463 60.0002 77.4463C57.5051 77.4463 55.4824 79.469 55.4824 81.9641C55.4824 84.4592 57.5051 86.4819 60.0002 86.4819Z" fill="#FFF7ED"/>
</svg>