<svg xmlns="http://www.w3.org/2000/svg" width="14" height="14" viewBox="0 0 14 14" fill="none" id='profile-icon'>
  <g clip-path="url(#clip0_3627_40540)">
    <path d="M0.820312 5.35937C0.820312 4.68089 1.3723 4.12891 2.05078 4.12891H9.16016C9.83864 4.12891 10.3906 4.68089 10.3906 5.35937V5.76953H11.2109V4.40234C11.2109 3.79925 10.7203 3.30859 10.1172 3.30859H5.19531V2.76172C5.19531 2.15862 4.70466 1.66797 4.10156 1.66797H1.09375C0.490656 1.66797 0 2.15862 0 2.76172V10.2558L0.820312 8.94242V5.35937Z" fill="currentcolor"/>
    <path d="M9.16016 4.94922H2.05078C1.82427 4.94922 1.64062 5.13286 1.64062 5.35937V7.62902L2.44062 6.34815C2.66697 5.98582 3.05711 5.76953 3.48425 5.76953H9.57031V5.35937C9.57031 5.13286 9.38667 4.94922 9.16016 4.94922Z" fill="currentcolor"/>
    <path d="M10.8017 12.3321H0.411111C0.262033 12.3321 0.124685 12.2512 0.0524155 12.1208C-0.019854 11.9904 -0.0157251 11.831 0.0632436 11.7046L3.13734 6.78273C3.21229 6.66274 3.34376 6.58984 3.48523 6.58984H13.043C13.3957 6.58984 13.7186 6.78275 13.8857 7.09327C14.0529 7.40381 14.0361 7.7796 13.8419 8.07393L11.1438 12.1483C11.0678 12.2631 10.9393 12.3321 10.8017 12.3321Z" fill="currentcolor"/>
  </g>
  <defs>
    <clipPath id="clip0_3627_40540">
      <rect width="14" height="14" fill="white"/>
    </clipPath>
  </defs>
</svg>