<svg width="22" height="22" viewBox="0 0 22 22" fill="none" xmlns="http://www.w3.org/2000/svg">
<g clip-path="url(#clip0_2223_23534)">
<path d="M4.93774 13.2716L4.17969 16.1015L1.40902 16.1601C0.580997 14.6243 0.111328 12.8672 0.111328 10.9999C0.111328 9.19424 0.550457 7.49149 1.32884 5.99219H1.32944L3.79611 6.44442L4.87666 8.89629C4.65051 9.55562 4.52724 10.2634 4.52724 10.9999C4.52733 11.7992 4.67211 12.565 4.93774 13.2716Z" fill="#FBBB00"/>
<path d="M21.699 8.96582C21.824 9.62451 21.8892 10.3048 21.8892 11C21.8892 11.7796 21.8073 12.54 21.6511 13.2735C21.1211 15.7696 19.736 17.9492 17.8173 19.4915L17.8167 19.491L14.7098 19.3324L14.2701 16.5874C15.5432 15.8408 16.5382 14.6723 17.0623 13.2735H11.2397V8.96582H17.1473H21.699Z" fill="#518EF8"/>
<path d="M17.8167 19.4909L17.8173 19.4915C15.9512 20.9914 13.5808 21.8889 11.0004 21.8889C6.85362 21.8889 3.24834 19.5711 1.40918 16.1603L4.9379 13.2717C5.85746 15.7259 8.2249 17.4729 11.0004 17.4729C12.1933 17.4729 13.311 17.1504 14.27 16.5874L17.8167 19.4909Z" fill="#28B446"/>
<path d="M17.9503 2.61791L14.4228 5.50585C13.4303 4.88544 12.257 4.52704 11 4.52704C8.16169 4.52704 5.74997 6.3542 4.87648 8.89638L1.32921 5.99227H1.32861C3.14085 2.49826 6.7916 0.111084 11 0.111084C13.642 0.111084 16.0645 1.05221 17.9503 2.61791Z" fill="#F14336"/>
</g>
<defs>
<clipPath id="clip0_2223_23534">
<rect width="21.7778" height="21.7778" fill="white" transform="translate(0.111328 0.111084)"/>
</clipPath>
</defs>
</svg>
