<svg width="18" height="18" viewBox="0 0 18 18" fill="none" xmlns="http://www.w3.org/2000/svg">
<path d="M12.0269 9.47762C12.0269 9.64331 11.8926 9.77762 11.7269 9.77762H6.41556C6.24987 9.77762 6.11555 9.64331 6.11555 9.47762V5.8118C6.11555 5.64611 5.98124 5.5118 5.81555 5.5118H4.36819C4.10169 5.5118 3.96749 5.19027 4.15491 5.00081L8.88467 0.219727C9.00366 0.0994488 9.19851 0.101301 9.31519 0.223819L13.8684 5.00491C14.0503 5.1959 13.9149 5.5118 13.6512 5.5118H12.3269C12.1613 5.5118 12.0269 5.64611 12.0269 5.8118V9.47762Z" fill="#2F61E6" fill-opacity="0.8"/>
<path d="M6.11523 16.02C6.11523 15.8543 6.24955 15.72 6.41523 15.72H6.84461C7.01029 15.72 7.14461 15.8543 7.14461 16.02V16.4823C7.14461 16.648 7.01029 16.7823 6.84461 16.7823H6.41523C6.24955 16.7823 6.11523 16.648 6.11523 16.4823V16.02Z" fill="#2F61E6" fill-opacity="0.8"/>
<path d="M6.11523 11.6086C6.11523 11.4429 6.24955 11.3086 6.41523 11.3086H6.84461C7.01029 11.3086 7.14461 11.4429 7.14461 11.6086V14.3532C7.14461 14.5189 7.01029 14.6532 6.84461 14.6532H6.41523C6.24955 14.6532 6.11523 14.5189 6.11523 14.3532V11.6086Z" fill="#2F61E6" fill-opacity="0.8"/>
<path d="M10.9639 16.02C10.9639 15.8543 11.0982 15.72 11.2639 15.72H11.7262C11.8919 15.72 12.0262 15.8543 12.0262 16.02V16.4823C12.0262 16.648 11.8919 16.7823 11.7262 16.7823H11.2639C11.0982 16.7823 10.9639 16.648 10.9639 16.4823V16.02Z" fill="#2F61E6" fill-opacity="0.8"/>
<path d="M10.9639 11.6086C10.9639 11.4429 11.0982 11.3086 11.2639 11.3086H11.7262C11.8919 11.3086 12.0262 11.4429 12.0262 11.6086V14.3532C12.0262 14.5189 11.8919 14.6532 11.7262 14.6532H11.2639C11.0982 14.6532 10.9639 14.5189 10.9639 14.3532V11.6086Z" fill="#2F61E6" fill-opacity="0.8"/>
<path d="M8.52332 13.3697C8.52332 13.204 8.65763 13.0697 8.82332 13.0697H9.28563C9.45132 13.0697 9.58563 13.204 9.58563 13.3697V17.7C9.58563 17.8657 9.45132 18 9.28563 18H8.82332C8.65763 18 8.52332 17.8657 8.52332 17.7V13.3697Z" fill="#2F61E6" fill-opacity="0.8"/>
</svg>
