<svg width="16" height="16" viewBox="0 0 16 16" fill="none" xmlns="http://www.w3.org/2000/svg">
<g clip-path="url(#clip0_632_10696)">
<path d="M7.21322 7.52563H1.26147C0.566 7.52563 0 8.09132 0 8.78679V14.7385C0 15.434 0.566 16 1.26147 16H7.21322C7.90869 16 8.47437 15.434 8.47437 14.7385V8.78679C8.47437 8.09132 7.90869 7.52563 7.21322 7.52563ZM6.89959 10.5151L3.74091 13.6734C3.55828 13.8567 3.26131 13.8571 3.07766 13.6734L1.57509 12.1712C1.39216 11.9879 1.39216 11.6909 1.57509 11.5076C1.75834 11.3247 2.05541 11.3247 2.23866 11.5076L3.40944 12.6784L6.236 9.85185C6.41925 9.6686 6.71631 9.6686 6.89956 9.85185C7.08253 10.0348 7.08253 10.3319 6.89959 10.5151Z" fill="#2F61E6" fill-opacity="0.8"/>
<path d="M12.2429 4.99619V10.993C12.2429 11.6759 11.6872 12.2319 11.0043 12.2319H9.41293V8.78685C9.41293 7.57416 8.42634 6.58757 7.21365 6.58757H3.76855V4.99619C3.76855 4.31326 4.32455 3.75757 5.00749 3.75757H11.0043C11.6872 3.75757 12.2429 4.31326 12.2429 4.99619Z" fill="#2F61E6" fill-opacity="0.8"/>
<path d="M16 1.23894V7.23572C16 7.91866 15.444 8.47434 14.7611 8.47434H13.1806V4.99613C13.1806 3.79597 12.204 2.81938 11.0039 2.81938H7.52563V1.23894C7.52563 0.556 8.08132 0 8.76426 0H14.761C15.444 0 16 0.556 16 1.23894Z" fill="#2F61E6" fill-opacity="0.8"/>
</g>
<defs>
<clipPath id="clip0_632_10696">
<rect width="16" height="16" fill="white"/>
</clipPath>
</defs>
</svg>
