<svg width="16" height="16" viewBox="0 0 16 16" fill="none" xmlns="http://www.w3.org/2000/svg">
<g clip-path="url(#clip0_632_10634)">
<path d="M13.2117 15.8626L10.4768 13.1282L9.15109 14.4539C9.03666 14.5683 8.8705 14.6154 8.71209 14.5788C8.55372 14.5413 8.42644 14.425 8.37519 14.2708L5.72338 6.31573C5.66706 6.14726 5.711 5.96142 5.83644 5.83598C5.96141 5.71101 6.14772 5.66523 6.31619 5.72292L14.2712 8.37473C14.4255 8.42601 14.5417 8.55326 14.5793 8.71164C14.6164 8.86957 14.5692 9.03573 14.4543 9.15064L13.1286 10.4763L15.8631 13.2112C16.0462 13.3943 16.0462 13.691 15.8631 13.8741L13.8746 15.8626C13.6914 16.0458 13.3948 16.0458 13.2117 15.8626Z" fill="#2F61E6" fill-opacity="0.8"/>
<path d="M6.09375 3.75C5.83466 3.75 5.625 3.54034 5.625 3.28125V0.46875C5.625 0.209656 5.83466 0 6.09375 0C6.35284 0 6.5625 0.209656 6.5625 0.46875V3.28125C6.5625 3.54034 6.35284 3.75 6.09375 3.75Z" fill="#2F61E6" fill-opacity="0.8"/>
<path d="M3.77378 4.43663L1.78478 2.44762C1.60169 2.26453 1.60169 1.96788 1.78478 1.78478C1.96788 1.60169 2.26453 1.60169 2.44763 1.78478L4.43659 3.77375C4.61969 3.95684 4.61969 4.2535 4.43659 4.43659C4.2535 4.61972 3.95688 4.61972 3.77378 4.43663Z" fill="#2F61E6" fill-opacity="0.8"/>
<path d="M1.78478 10.4027C1.60169 10.2196 1.60169 9.92291 1.78478 9.73981L3.77375 7.75085C3.95684 7.56775 4.2535 7.56775 4.43659 7.75085C4.61969 7.93394 4.61969 8.2306 4.43659 8.41369L2.44763 10.4027C2.26453 10.5858 1.96791 10.5858 1.78478 10.4027Z" fill="#2F61E6" fill-opacity="0.8"/>
<path d="M7.75085 4.43672C7.56775 4.25362 7.56775 3.95697 7.75085 3.77387L9.73981 1.7849C9.92291 1.60181 10.2196 1.60181 10.4027 1.7849C10.5858 1.968 10.5858 2.26465 10.4027 2.44775L8.41369 4.43672C8.2306 4.61981 7.93397 4.61981 7.75085 4.43672Z" fill="#2F61E6" fill-opacity="0.8"/>
<path d="M3.28125 6.5625H0.46875C0.209656 6.5625 0 6.35284 0 6.09375C0 5.83466 0.209656 5.625 0.46875 5.625H3.28125C3.54034 5.625 3.75 5.83466 3.75 6.09375C3.75 6.35284 3.54034 6.5625 3.28125 6.5625Z" fill="#2F61E6" fill-opacity="0.8"/>
</g>
<defs>
<clipPath id="clip0_632_10634">
<rect width="16" height="16" fill="white"/>
</clipPath>
</defs>
</svg>
