<svg width="14" height="14" viewBox="0 0 14 14" fill="none" xmlns="http://www.w3.org/2000/svg">
<g id="Frame" clip-path="url(#clip0_632_10631)">
<path id="Vector" d="M13.6894 6.12036L12.7373 5.01423C12.5553 4.80421 12.4083 4.41217 12.4083 4.13215V2.94203C12.4083 2.19996 11.7992 1.5909 11.0572 1.5909H9.86711C9.5941 1.5909 9.19507 1.44389 8.98506 1.26187L7.87899 0.30978C7.39596 -0.10326 6.60491 -0.10326 6.11488 0.30978L5.01581 1.26887C4.8058 1.44389 4.40677 1.5909 4.13376 1.5909H2.92268C2.18064 1.5909 1.5716 2.19996 1.5716 2.94203V4.13915C1.5716 4.41217 1.42459 4.80421 1.24958 5.01423L0.304519 6.12737C-0.101506 6.61041 -0.101506 7.39449 0.304519 7.87753L1.24958 8.99064C1.42459 9.20066 1.5716 9.5927 1.5716 9.86572V11.0628C1.5716 11.8049 2.18064 12.414 2.92268 12.414H4.13376C4.40677 12.414 4.8058 12.561 5.01581 12.743L6.12188 13.6951C6.60491 14.1081 7.39596 14.1081 7.88599 13.6951L8.99206 12.743C9.20207 12.561 9.5941 12.414 9.87411 12.414H11.0642C11.8062 12.414 12.4153 11.8049 12.4153 11.0628V9.87272C12.4153 9.5997 12.5623 9.20066 12.7443 8.99064L13.6964 7.88453C14.1024 7.40149 14.1024 6.60341 13.6894 6.12036ZM9.90911 5.67932L6.5279 9.06065C6.4299 9.15866 6.29689 9.21466 6.15688 9.21466C6.01687 9.21466 5.88387 9.15866 5.78586 9.06065L4.09175 7.36648C3.88874 7.16346 3.88874 6.82743 4.09175 6.62441C4.29477 6.42139 4.63079 6.42139 4.8338 6.62441L6.15688 7.94754L9.16707 4.93722C9.37008 4.7342 9.7061 4.7342 9.90911 4.93722C10.1121 5.14024 10.1121 5.47627 9.90911 5.67932Z" fill="#2F61E6" fill-opacity="0.8"/>
</g>
<defs>
<clipPath id="clip0_632_10631">
<rect width="14" height="14" fill="white"/>
</clipPath>
</defs>
</svg>
