<svg xmlns="http://www.w3.org/2000/svg" width="14" height="14" viewBox="0 0 14 14" fill="none">
  <g clip-path="url(#clip0_3627_40596)">
    <path d="M12.3958 1.75H1.60417C0.71925 1.75 0 2.46925 0 3.35417V10.6458C0 11.5307 0.71925 12.25 1.60417 12.25H12.3958C13.2807 12.25 14 11.5307 14 10.6458V3.35417C14 2.46925 13.2807 1.75 12.3958 1.75ZM4.375 4.08333C5.17883 4.08333 5.83333 4.73783 5.83333 5.54167C5.83333 6.3455 5.17883 7 4.375 7C3.57117 7 2.91667 6.3455 2.91667 5.54167C2.91667 4.73783 3.57117 4.08333 4.375 4.08333ZM7 9.47917C7 9.72067 6.804 9.91667 6.5625 9.91667H2.1875C1.946 9.91667 1.75 9.72067 1.75 9.47917V9.1875C1.75 8.30258 2.46925 7.58333 3.35417 7.58333H5.39583C6.28075 7.58333 7 8.30258 7 9.1875V9.47917ZM11.8125 9.91667H8.60417C8.36267 9.91667 8.16667 9.72067 8.16667 9.47917C8.16667 9.23767 8.36267 9.04167 8.60417 9.04167H11.8125C12.054 9.04167 12.25 9.23767 12.25 9.47917C12.25 9.72067 12.054 9.91667 11.8125 9.91667ZM11.8125 7.58333H8.60417C8.36267 7.58333 8.16667 7.38733 8.16667 7.14583C8.16667 6.90433 8.36267 6.70833 8.60417 6.70833H11.8125C12.054 6.70833 12.25 6.90433 12.25 7.14583C12.25 7.38733 12.054 7.58333 11.8125 7.58333ZM11.8125 5.25H8.60417C8.36267 5.25 8.16667 5.054 8.16667 4.8125C8.16667 4.571 8.36267 4.375 8.60417 4.375H11.8125C12.054 4.375 12.25 4.571 12.25 4.8125C12.25 5.054 12.054 5.25 11.8125 5.25Z" fill="white"/>
  </g>
  <defs>
    <clipPath id="clip0_3627_40596">
      <rect width="14" height="14" fill="white"/>
    </clipPath>
  </defs>
</svg>