<svg width="14" height="14" viewBox="0 0 14 14" fill="none" xmlns="http://www.w3.org/2000/svg">
<g clip-path="url(#clip0_3627_40684)">
<mask id="mask0_3627_40684" style="mask-type:luminance" maskUnits="userSpaceOnUse" x="0" y="0" width="14" height="14">
<path d="M0.5 0.5H13.5V13.5H0.5V0.5Z" fill="white"/>
</mask>
<g mask="url(#mask0_3627_40684)">
<path fill-rule="evenodd" clip-rule="evenodd" d="M9.53695 5.7C9.57595 6.10885 9.6 6.5398 9.6 7C9.6 7.17238 9.53149 7.33774 9.40961 7.45962C9.28774 7.58149 9.12238 7.65 8.95 7.65C8.77762 7.65 8.61226 7.58149 8.49038 7.45962C8.36851 7.33774 8.3 7.17238 8.3 7C8.3 6.53655 8.27465 6.1043 8.23175 5.7H5.7598C5.66946 6.56427 5.66859 7.43557 5.7572 8.3H7C7.17238 8.3 7.33774 8.36851 7.45961 8.49039C7.58149 8.61226 7.65 8.77762 7.65 8.95C7.65 9.12238 7.58149 9.28774 7.45961 9.40962C7.33774 9.53149 7.17238 9.6 7 9.6H5.9704C6.27525 10.952 6.7517 11.8165 7.00065 12.2C7.00065 12.2 7.5135 12.2085 7.60255 12.2013C7.77421 12.1902 7.94334 12.247 8.07347 12.3594C8.2036 12.472 8.28427 12.6311 8.29805 12.8026C8.31059 12.9744 8.25437 13.1442 8.14173 13.2746C8.02908 13.405 7.86931 13.4854 7.69745 13.4981C7.63635 13.5026 7 13.5 7 13.5C3.4159 13.5 0.5 10.5841 0.5 7C0.5 3.41525 3.4159 0.5 7 0.5C10.5841 0.5 13.5 3.41525 13.5 7C13.5 7.24635 13.4766 7.48685 13.4486 7.7254C13.4228 7.8918 13.3335 8.04169 13.1995 8.14361C13.0655 8.24547 12.8971 8.29149 12.7299 8.27186C12.5627 8.25223 12.4096 8.16857 12.3028 8.03844C12.1959 7.90831 12.1437 7.74178 12.1571 7.57395C12.1798 7.3848 12.2 7.195 12.2 7C12.2 6.5502 12.1363 6.116 12.029 5.7H9.53695ZM6.9922 1.8234C6.7413 2.2173 6.2772 3.07855 5.9756 4.4H8.01465C7.71175 3.07855 7.2444 2.2173 6.9922 1.8234ZM1.97095 8.3H4.4533C4.4156 7.89115 4.39155 7.4615 4.39155 7.0026C4.39197 6.56767 4.41279 6.13298 4.45395 5.7H1.97095C1.86305 6.116 1.8 6.5502 1.8 7C1.80162 7.43882 1.85906 7.87568 1.97095 8.3ZM2.5033 9.6C3.14517 10.7074 4.17154 11.5404 5.38735 11.9407C5.04866 11.192 4.79824 10.4065 4.64115 9.6H2.5033ZM4.64245 4.4C4.8381 3.42435 5.1202 2.64305 5.38995 2.05805C4.17294 2.45801 3.14551 3.29156 2.5033 4.4H4.64245ZM9.3478 4.4H11.496C10.8512 3.28634 9.81762 2.45021 8.5938 2.0522C8.93661 2.80241 9.18972 3.59046 9.3478 4.4Z" fill="#FA8C16"/>
<path d="M10.6808 13.2945L8.89011 9.355C8.75585 9.05966 9.05969 8.7559 9.35503 8.89009L13.2945 10.6808C13.5633 10.803 13.5704 11.1824 13.3062 11.3144L12.083 11.926C12.0151 11.96 11.96 12.0151 11.926 12.083L11.3144 13.3062C11.1823 13.5704 10.803 13.5633 10.6808 13.2945Z" fill="#FA8C16"/>
</g>
</g>
<defs>
<clipPath id="clip0_3627_40684">
<rect width="13" height="13" fill="white" transform="translate(0.5 0.5)"/>
</clipPath>
</defs>
</svg>
