<svg xmlns="http://www.w3.org/2000/svg" width="24" height="24" viewBox="0 0 24 24" fill="none">
  <path d="M18.1875 9.25H17.5V6.5C17.5 3.46675 15.0332 1 12 1C8.96675 1 6.5 3.46675 6.5 6.5V9.25H5.8125C4.67583 9.25 3.75 10.1749 3.75 11.3125V20.9375C3.75 22.0751 4.67583 23 5.8125 23H18.1875C19.3242 23 20.25 22.0751 20.25 20.9375V11.3125C20.25 10.1749 19.3242 9.25 18.1875 9.25ZM8.33333 6.5C8.33333 4.47783 9.97783 2.83333 12 2.83333C14.0222 2.83333 15.6667 4.47783 15.6667 6.5V9.25H8.33333V6.5ZM12.9167 16.3285V18.4167C12.9167 18.9227 12.5069 19.3333 12 19.3333C11.4931 19.3333 11.0833 18.9227 11.0833 18.4167V16.3285C10.5379 16.0104 10.1667 15.4256 10.1667 14.75C10.1667 13.7389 10.9889 12.9167 12 12.9167C13.0111 12.9167 13.8333 13.7389 13.8333 14.75C13.8333 15.4256 13.4621 16.0104 12.9167 16.3285Z" fill="#FA8C16"/>
</svg>