<svg width="52" height="51" viewBox="0 0 52 51" fill="none" xmlns="http://www.w3.org/2000/svg">
<g filter="url(#filter0_d_621_10238)">
<rect x="2" width="48" height="48.0001" rx="11.5067" fill="white"/>
</g>
<rect width="6.00001" height="7.69963" transform="matrix(0.707106 -0.707107 0.707106 0.707107 33.499 35.7417)" fill="#2F61E6"/>
<path fill-rule="evenodd" clip-rule="evenodd" d="M14.6566 23.2488C14.6566 17.3987 19.399 12.6563 25.2491 12.6563C31.0991 12.6563 35.8416 17.3987 35.8416 23.2488C35.8416 24.2475 35.7034 25.2139 35.445 26.1299L39.6143 27.2471C39.9677 25.9747 40.1566 24.6338 40.1566 23.2488C40.1566 15.0156 33.4822 8.34131 25.2491 8.34131C17.0159 8.34131 10.3416 15.0156 10.3416 23.2488C10.3416 31.482 17.0159 38.1564 25.2491 38.1564C26.6344 38.1564 27.9756 37.9674 29.2483 37.6138L28.1312 33.4445C27.2148 33.703 26.2481 33.8414 25.2491 33.8414C19.399 33.8414 14.6566 29.0989 14.6566 23.2488Z" fill="#2F61E6"/>
<path fill-rule="evenodd" clip-rule="evenodd" d="M30.2835 24.7471C30.4247 24.2722 30.5005 23.7692 30.5005 23.2485C30.5005 20.349 28.15 17.9985 25.2505 17.9985C22.351 17.9985 20.0005 20.349 20.0005 23.2485C20.0005 26.148 22.351 28.4986 25.2505 28.4986C25.7707 28.4986 26.2733 28.4229 26.7477 28.282L25.4538 23.4529L30.2835 24.7471Z" fill="#2F61E6"/>
<defs>
<filter id="filter0_d_621_10238" x="0.561665" y="0" width="50.8767" height="50.8767" filterUnits="userSpaceOnUse" color-interpolation-filters="sRGB">
<feFlood flood-opacity="0" result="BackgroundImageFix"/>
<feColorMatrix in="SourceAlpha" type="matrix" values="0 0 0 0 0 0 0 0 0 0 0 0 0 0 0 0 0 0 127 0" result="hardAlpha"/>
<feOffset dy="1.43833"/>
<feGaussianBlur stdDeviation="0.719167"/>
<feComposite in2="hardAlpha" operator="out"/>
<feColorMatrix type="matrix" values="0 0 0 0 0 0 0 0 0 0 0 0 0 0 0 0 0 0 0.25 0"/>
<feBlend mode="normal" in2="BackgroundImageFix" result="effect1_dropShadow_621_10238"/>
<feBlend mode="normal" in="SourceGraphic" in2="effect1_dropShadow_621_10238" result="shape"/>
</filter>
</defs>
</svg>
