<svg width="52" height="52" viewBox="0 0 52 52" fill="none" xmlns="http://www.w3.org/2000/svg">
<g filter="url(#filter0_d_602_10387)">
<rect x="2.28711" y="0.623688" width="48" height="48" rx="11.5067" fill="#2F61E6"/>
</g>
<rect x="33.7861" y="36.3652" width="6" height="7.69963" transform="rotate(-45 33.7861 36.3652)" fill="white"/>
<path fill-rule="evenodd" clip-rule="evenodd" d="M14.9437 23.8726C14.9437 18.0225 19.6861 13.2801 25.5362 13.2801C31.3862 13.2801 36.1287 18.0225 36.1287 23.8726C36.1287 24.8712 35.9905 25.8376 35.7321 26.7536L39.9014 27.8708C40.2548 26.5984 40.4437 25.2575 40.4437 23.8726C40.4437 15.6394 33.7693 8.96506 25.5362 8.96506C17.303 8.96506 10.6287 15.6394 10.6287 23.8726C10.6287 32.1057 17.303 38.7801 25.5362 38.7801C26.9216 38.7801 28.2628 38.5911 29.5356 38.2375L28.4184 34.0682C27.502 34.3267 26.5353 34.4651 25.5362 34.4651C19.6861 34.4651 14.9437 29.7226 14.9437 23.8726Z" fill="white"/>
<path fill-rule="evenodd" clip-rule="evenodd" d="M30.5711 25.3707C30.7123 24.8959 30.7881 24.3929 30.7881 23.8722C30.7881 20.9727 28.4376 18.6222 25.5381 18.6222C22.6386 18.6222 20.2881 20.9727 20.2881 23.8722C20.2881 26.7717 22.6386 29.1222 25.5381 29.1222C26.0582 29.1222 26.5607 29.0465 27.0351 28.9057L25.7412 24.0766L30.5711 25.3707Z" fill="white"/>
<defs>
<filter id="filter0_d_602_10387" x="0.848776" y="0.623688" width="50.8767" height="50.8767" filterUnits="userSpaceOnUse" color-interpolation-filters="sRGB">
<feFlood flood-opacity="0" result="BackgroundImageFix"/>
<feColorMatrix in="SourceAlpha" type="matrix" values="0 0 0 0 0 0 0 0 0 0 0 0 0 0 0 0 0 0 127 0" result="hardAlpha"/>
<feOffset dy="1.43833"/>
<feGaussianBlur stdDeviation="0.719167"/>
<feComposite in2="hardAlpha" operator="out"/>
<feColorMatrix type="matrix" values="0 0 0 0 0 0 0 0 0 0 0 0 0 0 0 0 0 0 0.25 0"/>
<feBlend mode="normal" in2="BackgroundImageFix" result="effect1_dropShadow_602_10387"/>
<feBlend mode="normal" in="SourceGraphic" in2="effect1_dropShadow_602_10387" result="shape"/>
</filter>
</defs>
</svg>
