<svg width="139" height="39" viewBox="0 0 139 39" fill="none" xmlns="http://www.w3.org/2000/svg">
<g filter="url(#filter0_d_2015_23690)">
<rect x="2" width="36" height="36" rx="11.5067" fill="#2F61E6"/>
</g>
<path d="M48.3508 23.4689V13.3709H51.2788V23.4689H48.3508ZM49.8148 11.9632C49.2767 11.9632 48.8388 11.8067 48.5009 11.4939C48.1631 11.1811 47.9941 10.7932 47.9941 10.3302C47.9941 9.86723 48.1631 9.47933 48.5009 9.1665C48.8388 8.85368 49.2767 8.69727 49.8148 8.69727C50.3528 8.69727 50.7908 8.84742 51.1286 9.14773C51.4665 9.43553 51.6354 9.81092 51.6354 10.2739C51.6354 10.7619 51.4665 11.1686 51.1286 11.4939C50.8033 11.8067 50.3654 11.9632 49.8148 11.9632Z" fill="#595959"/>
<path d="M60.8659 23.6941C59.8524 23.6941 58.9076 23.5314 58.0317 23.2061C57.1683 22.8682 56.4175 22.3927 55.7794 21.7796C55.1412 21.1665 54.6407 20.447 54.2778 19.6211C53.9275 18.7953 53.7523 17.8881 53.7523 16.8995C53.7523 15.911 53.9275 15.0038 54.2778 14.178C54.6407 13.3521 55.1412 12.6326 55.7794 12.0195C56.43 11.4063 57.1871 10.9371 58.0505 10.6118C58.9139 10.2739 59.8586 10.105 60.8847 10.105C62.0234 10.105 63.0494 10.3052 63.9629 10.7056C64.8888 11.0935 65.6646 11.6691 66.2903 12.4324L64.3383 14.2343C63.8878 13.7212 63.3873 13.3396 62.8367 13.0893C62.2861 12.8266 61.6855 12.6952 61.0348 12.6952C60.4217 12.6952 59.8586 12.7953 59.3456 12.9955C58.8325 13.1957 58.3883 13.4835 58.0129 13.8589C57.6376 14.2343 57.3435 14.6785 57.1308 15.1915C56.9306 15.7045 56.8305 16.2739 56.8305 16.8995C56.8305 17.5252 56.9306 18.0945 57.1308 18.6076C57.3435 19.1206 57.6376 19.5648 58.0129 19.9402C58.3883 20.3156 58.8325 20.6034 59.3456 20.8036C59.8586 21.0038 60.4217 21.1039 61.0348 21.1039C61.6855 21.1039 62.2861 20.9788 62.8367 20.7285C63.3873 20.4657 63.8878 20.0716 64.3383 19.546L66.2903 21.3479C65.6646 22.1112 64.8888 22.6931 63.9629 23.0935C63.0494 23.4939 62.0171 23.6941 60.8659 23.6941Z" fill="#595959"/>
<path d="M74.8257 23.6941C73.7871 23.6941 72.8236 23.5252 71.9352 23.1873C71.0593 22.8495 70.296 22.374 69.6453 21.7608C69.0072 21.1477 68.5067 20.4282 68.1438 19.6023C67.7934 18.7765 67.6182 17.8755 67.6182 16.8995C67.6182 15.9235 67.7934 15.0226 68.1438 14.1967C68.5067 13.3709 69.0134 12.6514 69.6641 12.0382C70.3148 11.4251 71.0781 10.9496 71.954 10.6118C72.8299 10.2739 73.7809 10.105 74.8069 10.105C75.8455 10.105 76.7965 10.2739 77.6599 10.6118C78.5358 10.9496 79.2929 11.4251 79.931 12.0382C80.5817 12.6514 81.0885 13.3709 81.4513 14.1967C81.8142 15.0101 81.9957 15.911 81.9957 16.8995C81.9957 17.8755 81.8142 18.7827 81.4513 19.6211C81.0885 20.447 80.5817 21.1665 79.931 21.7796C79.2929 22.3802 78.5358 22.8495 77.6599 23.1873C76.7965 23.5252 75.8518 23.6941 74.8257 23.6941ZM74.8069 21.1039C75.3951 21.1039 75.9331 21.0038 76.4211 20.8036C76.9216 20.6034 77.3596 20.3156 77.735 19.9402C78.1104 19.5648 78.3982 19.1206 78.5984 18.6076C78.8111 18.0945 78.9175 17.5252 78.9175 16.8995C78.9175 16.2739 78.8111 15.7045 78.5984 15.1915C78.3982 14.6785 78.1104 14.2343 77.735 13.8589C77.3721 13.4835 76.9404 13.1957 76.4399 12.9955C75.9394 12.7953 75.3951 12.6952 74.8069 12.6952C74.2188 12.6952 73.6745 12.7953 73.174 12.9955C72.686 13.1957 72.2543 13.4835 71.8789 13.8589C71.5035 14.2343 71.2095 14.6785 70.9967 15.1915C70.7965 15.7045 70.6964 16.2739 70.6964 16.8995C70.6964 17.5127 70.7965 18.082 70.9967 18.6076C71.2095 19.1206 71.4973 19.5648 71.8601 19.9402C72.2355 20.3156 72.6735 20.6034 73.174 20.8036C73.6745 21.0038 74.2188 21.1039 74.8069 21.1039Z" fill="#595959"/>
<path d="M84.6562 23.4689V10.3302H87.1713L94.9231 19.79H93.7031V10.3302H96.7063V23.4689H94.2099L86.4393 14.009H87.6594V23.4689H84.6562Z" fill="#595959"/>
<path d="M106.534 23.6941C105.496 23.6941 104.538 23.5314 103.663 23.2061C102.799 22.8682 102.042 22.3927 101.391 21.7796C100.753 21.1665 100.253 20.447 99.8899 19.6211C99.5395 18.7953 99.3643 17.8881 99.3643 16.8995C99.3643 15.911 99.5395 15.0038 99.8899 14.178C100.253 13.3521 100.76 12.6326 101.41 12.0195C102.061 11.4063 102.824 10.9371 103.7 10.6118C104.576 10.2739 105.539 10.105 106.591 10.105C107.754 10.105 108.799 10.2989 109.725 10.6868C110.664 11.0747 111.452 11.6378 112.09 12.3761L110.138 14.178C109.663 13.6774 109.143 13.3083 108.58 13.0706C108.017 12.8203 107.404 12.6952 106.741 12.6952C106.103 12.6952 105.521 12.7953 104.995 12.9955C104.47 13.1957 104.013 13.4835 103.625 13.8589C103.25 14.2343 102.956 14.6785 102.743 15.1915C102.543 15.7045 102.443 16.2739 102.443 16.8995C102.443 17.5127 102.543 18.0758 102.743 18.5888C102.956 19.1018 103.25 19.5523 103.625 19.9402C104.013 20.3156 104.463 20.6034 104.976 20.8036C105.502 21.0038 106.078 21.1039 106.703 21.1039C107.304 21.1039 107.886 21.0101 108.449 20.8224C109.024 20.6222 109.581 20.2906 110.119 19.8276L111.846 22.0236C111.133 22.5617 110.301 22.9746 109.35 23.2624C108.411 23.5502 107.473 23.6941 106.534 23.6941ZM109.068 21.6294V16.6931H111.846V22.0236L109.068 21.6294Z" fill="#595959"/>
<path d="M117.768 23.4689V12.8078H113.563V10.3302H125.013V12.8078H120.808V23.4689H117.768Z" fill="#595959"/>
<path d="M130.033 23.4689V18.1008L130.728 19.9402L124.947 10.3302H128.175L132.605 17.7066H130.746L135.195 10.3302H138.179L132.398 19.9402L133.074 18.1008V23.4689H130.033Z" fill="#595959"/>
<rect x="25.624" y="26.8059" width="4.5" height="5.77472" transform="rotate(-45 25.624 26.8059)" fill="white"/>
<path fill-rule="evenodd" clip-rule="evenodd" d="M12.0313 17.4363C12.0313 13.3466 15.3466 10.0313 19.4363 10.0313C23.526 10.0313 26.8413 13.3466 26.8413 17.4363C26.8413 18.1369 26.744 18.8148 26.5622 19.4571L30.7315 20.5743C31.0084 19.5755 31.1563 18.5232 31.1563 17.4363C31.1563 10.9635 25.9091 5.71631 19.4363 5.71631C12.9635 5.71631 7.71631 10.9635 7.71631 17.4363C7.71631 23.9091 12.9635 29.1563 19.4363 29.1563C20.5237 29.1563 21.5766 29.0082 22.5758 28.7311L21.4586 24.5618C20.8158 24.7439 20.1374 24.8413 19.4363 24.8413C15.3466 24.8413 12.0313 21.526 12.0313 17.4363ZM29.6663 23.1596C28.609 25.0454 27.0454 26.609 25.1596 27.6663L29.6663 23.1596Z" fill="white"/>
<path fill-rule="evenodd" clip-rule="evenodd" d="M23.2132 18.56C23.3191 18.2038 23.376 17.8266 23.376 17.436C23.376 15.2614 21.6131 13.4985 19.4385 13.4985C17.2639 13.4985 15.501 15.2614 15.501 17.436C15.501 19.6107 17.2639 21.3735 19.4385 21.3735C19.8285 21.3735 20.2053 21.3168 20.561 21.2112L19.5905 17.5893L23.2132 18.56Z" fill="white"/>
<defs>
<filter id="filter0_d_2015_23690" x="0.561667" y="0" width="38.8767" height="38.8767" filterUnits="userSpaceOnUse" color-interpolation-filters="sRGB">
<feFlood flood-opacity="0" result="BackgroundImageFix"/>
<feColorMatrix in="SourceAlpha" type="matrix" values="0 0 0 0 0 0 0 0 0 0 0 0 0 0 0 0 0 0 127 0" result="hardAlpha"/>
<feOffset dy="1.43833"/>
<feGaussianBlur stdDeviation="0.719167"/>
<feComposite in2="hardAlpha" operator="out"/>
<feColorMatrix type="matrix" values="0 0 0 0 0 0 0 0 0 0 0 0 0 0 0 0 0 0 0.25 0"/>
<feBlend mode="normal" in2="BackgroundImageFix" result="effect1_dropShadow_2015_23690"/>
<feBlend mode="normal" in="SourceGraphic" in2="effect1_dropShadow_2015_23690" result="shape"/>
</filter>
</defs>
</svg>
