<svg width="330" height="91" viewBox="0 0 330 91" fill="none" xmlns="http://www.w3.org/2000/svg">
<g filter="url(#filter0_d_2992_37310)">
<rect width="84.9667" height="84.9666" rx="21.2417" fill="white"/>
</g>
<path d="M109.533 58.2744V33.4195H116.74V58.2744H109.533ZM113.137 29.9546C111.812 29.9546 110.735 29.5696 109.903 28.7996C109.071 28.0296 108.656 27.0749 108.656 25.9353C108.656 24.7957 109.071 23.8409 109.903 23.071C110.735 22.301 111.812 21.916 113.137 21.916C114.461 21.916 115.539 22.2856 116.371 23.0248C117.202 23.7331 117.618 24.6571 117.618 25.7967C117.618 26.9979 117.202 27.9988 116.371 28.7996C115.57 29.5696 114.492 29.9546 113.137 29.9546ZM140.338 58.8288C137.843 58.8288 135.518 58.4284 133.362 57.6276C131.237 56.7961 129.389 55.6257 127.818 54.1165C126.247 52.6074 125.015 50.8364 124.122 48.8037C123.26 46.7709 122.828 44.538 122.828 42.1048C122.828 39.6717 123.26 37.4388 124.122 35.406C125.015 33.3733 126.247 31.6023 127.818 30.0932C129.419 28.584 131.283 27.429 133.408 26.6283C135.533 25.7967 137.858 25.3809 140.384 25.3809C143.187 25.3809 145.712 25.8737 147.961 26.8593C150.24 27.814 152.149 29.2308 153.689 31.1095L148.885 35.5446C147.776 34.2819 146.544 33.3425 145.189 32.7265C143.834 32.0797 142.355 31.7563 140.754 31.7563C139.244 31.7563 137.858 32.0027 136.596 32.4955C135.333 32.9883 134.24 33.6967 133.316 34.6207C132.392 35.5446 131.668 36.638 131.144 37.9008C130.651 39.1635 130.405 40.5649 130.405 42.1048C130.405 43.6448 130.651 45.0462 131.144 46.3089C131.668 47.5717 132.392 48.6651 133.316 49.589C134.24 50.513 135.333 51.2214 136.596 51.7142C137.858 52.207 139.244 52.4534 140.754 52.4534C142.355 52.4534 143.834 52.1454 145.189 51.5294C146.544 50.8826 147.776 49.9124 148.885 48.6189L153.689 53.054C152.149 54.9327 150.24 56.3649 147.961 57.3504C145.712 58.336 143.171 58.8288 140.338 58.8288ZM174.698 58.8288C172.142 58.8288 169.77 58.413 167.584 57.5814C165.428 56.7499 163.549 55.5795 161.947 54.0703C160.377 52.5612 159.145 50.7902 158.251 48.7575C157.389 46.7247 156.958 44.5072 156.958 42.1048C156.958 39.7025 157.389 37.485 158.251 35.4522C159.145 33.4195 160.392 31.6485 161.993 30.1394C163.595 28.6302 165.474 27.4598 167.63 26.6283C169.786 25.7967 172.126 25.3809 174.652 25.3809C177.208 25.3809 179.549 25.7967 181.674 26.6283C183.83 27.4598 185.693 28.6302 187.264 30.1394C188.866 31.6485 190.113 33.4195 191.006 35.4522C191.899 37.4542 192.346 39.6717 192.346 42.1048C192.346 44.5072 191.899 46.7401 191.006 48.8037C190.113 50.8364 188.866 52.6074 187.264 54.1165C185.693 55.5949 183.83 56.7499 181.674 57.5814C179.549 58.413 177.224 58.8288 174.698 58.8288ZM174.652 52.4534C176.099 52.4534 177.424 52.207 178.625 51.7142C179.857 51.2214 180.935 50.513 181.859 49.589C182.783 48.6651 183.491 47.5717 183.984 46.3089C184.508 45.0462 184.769 43.6448 184.769 42.1048C184.769 40.5649 184.508 39.1635 183.984 37.9008C183.491 36.638 182.783 35.5446 181.859 34.6207C180.966 33.6967 179.903 32.9883 178.671 32.4955C177.439 32.0027 176.099 31.7563 174.652 31.7563C173.204 31.7563 171.865 32.0027 170.633 32.4955C169.431 32.9883 168.369 33.6967 167.445 34.6207C166.521 35.5446 165.797 36.638 165.274 37.9008C164.781 39.1635 164.534 40.5649 164.534 42.1048C164.534 43.614 164.781 45.0154 165.274 46.3089C165.797 47.5717 166.506 48.6651 167.399 49.589C168.323 50.513 169.401 51.2214 170.633 51.7142C171.865 52.207 173.204 52.4534 174.652 52.4534ZM198.895 58.2744V25.9353H205.085L224.165 49.2195H221.163V25.9353H228.554V58.2744H222.41L203.284 34.9902H206.287V58.2744H198.895ZM252.745 58.8288C250.188 58.8288 247.832 58.4284 245.676 57.6276C243.551 56.7961 241.688 55.6257 240.086 54.1165C238.516 52.6074 237.284 50.8364 236.39 48.8037C235.528 46.7709 235.097 44.538 235.097 42.1048C235.097 39.6717 235.528 37.4388 236.39 35.406C237.284 33.3733 238.531 31.6023 240.133 30.0932C241.734 28.584 243.613 27.429 245.769 26.6283C247.925 25.7967 250.296 25.3809 252.883 25.3809C255.748 25.3809 258.319 25.8583 260.599 26.8131C262.909 27.7678 264.849 29.1538 266.42 30.9709L261.615 35.406C260.445 34.1741 259.166 33.2655 257.78 32.6803C256.394 32.0643 254.885 31.7563 253.253 31.7563C251.682 31.7563 250.25 32.0027 248.956 32.4955C247.663 32.9883 246.539 33.6967 245.584 34.6207C244.66 35.5446 243.936 36.638 243.413 37.9008C242.92 39.1635 242.673 40.5649 242.673 42.1048C242.673 43.614 242.92 45 243.413 46.2627C243.936 47.5255 244.66 48.6343 245.584 49.589C246.539 50.513 247.648 51.2214 248.91 51.7142C250.204 52.207 251.621 52.4534 253.161 52.4534C254.639 52.4534 256.071 52.2224 257.457 51.7604C258.874 51.2676 260.244 50.4514 261.569 49.3119L265.819 54.7171C264.063 56.0415 262.015 57.0578 259.675 57.7662C257.365 58.4746 255.055 58.8288 252.745 58.8288ZM258.982 53.7469V41.5967H265.819V54.7171L258.982 53.7469ZM280.394 58.2744V32.0335H270.045V25.9353H298.227V32.0335H287.878V58.2744H280.394ZM310.585 58.2744V45.0616L312.294 49.589L298.065 25.9353H306.011L316.914 44.0914H312.34L323.289 25.9353H330.635L316.406 49.589L318.069 45.0616V58.2744H310.585Z" fill="white"/>
<rect x="55.7578" y="63.2666" width="10.6208" height="13.6294" transform="rotate(-45 55.7578 63.2666)" fill="#2F61E6"/>
<path fill-rule="evenodd" clip-rule="evenodd" d="M22.5677 41.1527C22.5677 30.8876 30.8891 22.5662 41.1541 22.5662C51.4192 22.5662 59.7406 30.8876 59.7406 41.1527C59.7406 42.9062 59.4978 44.6031 59.0439 46.2115L66.7405 48.2738C67.3699 46.0075 67.7062 43.6194 67.7062 41.1527C67.7062 26.4884 55.8184 14.6006 41.1541 14.6006C26.4898 14.6006 14.6021 26.4884 14.6021 41.1527C14.6021 55.817 26.4898 67.7047 41.1541 67.7047C43.6209 67.7047 46.009 67.3684 48.2753 66.739L46.2129 59.0424C44.6046 59.4963 42.9077 59.7391 41.1541 59.7391C30.8891 59.7391 22.5677 51.4177 22.5677 41.1527Z" fill="#2F61E6"/>
<path fill-rule="evenodd" clip-rule="evenodd" d="M50.0669 43.8045C50.3166 42.9642 50.4507 42.074 50.4507 41.1526C50.4507 36.0201 46.29 31.8594 41.1575 31.8594C36.025 31.8594 31.8643 36.0201 31.8643 41.1526C31.8643 46.2851 36.025 50.4458 41.1575 50.4458C42.0784 50.4458 42.9681 50.3119 43.808 50.0624L41.5174 41.5137L50.0669 43.8045Z" fill="#2F61E6"/>
<defs>
<filter id="filter0_d_2992_37310" x="-2.65521" y="0" width="90.2772" height="90.2772" filterUnits="userSpaceOnUse" color-interpolation-filters="sRGB">
<feFlood flood-opacity="0" result="BackgroundImageFix"/>
<feColorMatrix in="SourceAlpha" type="matrix" values="0 0 0 0 0 0 0 0 0 0 0 0 0 0 0 0 0 0 127 0" result="hardAlpha"/>
<feOffset dy="2.65521"/>
<feGaussianBlur stdDeviation="1.3276"/>
<feComposite in2="hardAlpha" operator="out"/>
<feColorMatrix type="matrix" values="0 0 0 0 0 0 0 0 0 0 0 0 0 0 0 0 0 0 0.25 0"/>
<feBlend mode="normal" in2="BackgroundImageFix" result="effect1_dropShadow_2992_37310"/>
<feBlend mode="normal" in="SourceGraphic" in2="effect1_dropShadow_2992_37310" result="shape"/>
</filter>
</defs>
</svg>


