<svg xmlns="http://www.w3.org/2000/svg" width="14" height="14" viewBox="0 0 14 14" fill="none" id='published'>
  <path d="M12.9267 0.604359C12.9207 0.606289 12.9142 0.603632 12.9082 0.605863L0.877014 5.11757C0.745197 5.16715 0.651955 5.28646 0.635788 5.42672C0.619621 5.56699 0.683161 5.70429 0.80064 5.7825L3.43831 7.54071L4.40326 11.5727C4.4058 11.5833 4.41231 11.5917 4.4157 11.6019C4.50242 11.8664 4.83551 11.9504 5.03478 11.7511L6.92233 9.86356L9.82406 11.7981C10.0343 11.9391 10.3242 11.8338 10.3943 11.5885L13.4021 1.06114C13.4828 0.777809 13.2169 0.511218 12.9267 0.604359ZM5.31786 8.25205C5.2556 8.31512 5.23685 8.36622 5.21502 8.44573C5.21474 8.44721 5.21409 8.44859 5.21382 8.45004L4.79428 9.97553L4.19653 7.47772L10.0198 3.48481L5.31786 8.25205Z" fill="currentcolor"/>
  <path d="M3.10493 10.8929C2.95807 10.746 2.72013 10.746 2.57327 10.8929L0.693394 12.7727C0.546538 12.9196 0.546538 13.1575 0.693394 13.3044C0.840275 13.4513 1.07817 13.4513 1.22505 13.3044L3.10493 11.4245C3.25178 11.2777 3.25178 11.0397 3.10493 10.8929Z" fill="currentcolor"/>
  <path d="M3.10493 8.63701C2.95807 8.49015 2.72013 8.49013 2.57327 8.63701L0.693394 10.5169C0.546538 10.6637 0.546538 10.9017 0.693394 11.0485C0.840275 11.1954 1.07817 11.1954 1.22505 11.0485L3.10493 9.16866C3.25178 9.02181 3.25178 8.78386 3.10493 8.63701Z" fill="currentcolor"/>
</svg>