<svg xmlns="http://www.w3.org/2000/svg" width="14" height="14" viewBox="0 0 14 14" fill="none" id='pending'>
  <path fill-rule="evenodd" clip-rule="evenodd" d="M7 0.583496C4.72181 0.583496 2.875 2.43032 2.875 4.7085C2.875 6.98669 4.72181 8.8335 7 8.8335C9.27819 8.8335 11.125 6.98669 11.125 4.7085C11.125 2.43032 9.27819 0.583496 7 0.583496ZM7 2.18766C7.25314 2.18766 7.45833 2.39287 7.45833 2.646V4.48822L8.43216 5.26725C8.62983 5.42538 8.66187 5.7138 8.50375 5.91148C8.34562 6.10916 8.05719 6.1412 7.85951 5.98308L6.71368 5.06641C6.60496 4.97942 6.54167 4.84774 6.54167 4.7085V2.646C6.54167 2.39287 6.74686 2.18766 7 2.18766Z" fill="currentcolor"/>
  <path fill-rule="evenodd" clip-rule="evenodd" d="M2.41659 9.75C1.40406 9.75 0.583252 10.5708 0.583252 11.5833C0.583252 12.5958 1.40406 13.4167 2.41659 13.4167H11.5833C12.5958 13.4167 13.4166 12.5958 13.4166 11.5833C13.4166 10.5708 12.5958 9.75 11.5833 9.75H2.41659ZM1.95825 11.5833C1.95825 11.3302 2.16346 11.125 2.41659 11.125H5.16659C5.41972 11.125 5.62492 11.3302 5.62492 11.5833C5.62492 11.8365 5.41972 12.0417 5.16659 12.0417H2.41659C2.16346 12.0417 1.95825 11.8365 1.95825 11.5833Z" fill="currentcolor"/>
</svg>