<svg xmlns="http://www.w3.org/2000/svg" width="16" height="16" viewBox="0 0 16 16" fill="none" id='phone2-icon'>
  <g clip-path="url(#clip0_3019_33320)">
    <path d="M15.4662 12.1222C15.4237 11.9944 15.1538 11.8061 14.6566 11.5577C14.5219 11.4794 14.3299 11.373 14.0816 11.2381C13.833 11.1031 13.6074 10.9788 13.4051 10.8651C13.2024 10.7515 13.0125 10.6414 12.8351 10.535C12.8067 10.5137 12.7179 10.4517 12.5688 10.3485C12.4195 10.2455 12.2936 10.1692 12.1904 10.1194C12.0875 10.0698 11.9862 10.0449 11.8868 10.0449C11.7448 10.0449 11.5674 10.1462 11.3544 10.3485C11.1414 10.551 10.946 10.771 10.7686 11.0091C10.5911 11.2472 10.4028 11.4672 10.2042 11.6696C10.0052 11.8721 9.84175 11.9732 9.71407 11.9732C9.64996 11.9732 9.57004 11.9554 9.47425 11.9201C9.37851 11.8846 9.30567 11.8542 9.25567 11.8297C9.20612 11.8047 9.12108 11.7551 9.00026 11.6803C8.87922 11.6057 8.8119 11.5648 8.79772 11.5577C7.82477 11.0178 6.99033 10.3999 6.29425 9.70413C5.59839 9.00793 4.98041 8.17356 4.44067 7.2005C4.43358 7.18629 4.39264 7.11878 4.31813 6.99811C4.2435 6.87733 4.19376 6.79222 4.16891 6.74237C4.14406 6.6927 4.11388 6.61987 4.07843 6.52401C4.04298 6.42815 4.02518 6.3483 4.02518 6.28431C4.02518 6.15654 4.12641 5.99311 4.32884 5.79423C4.53123 5.59546 4.75145 5.40718 4.98929 5.22975C5.22731 5.05232 5.44731 4.85695 5.64977 4.64397C5.85216 4.43087 5.95336 4.2534 5.95336 4.11139C5.95336 4.01202 5.9285 3.91072 5.87884 3.80777C5.82914 3.7046 5.7528 3.5787 5.64977 3.42948C5.54671 3.28034 5.48459 3.19165 5.46324 3.1631C5.35682 2.98568 5.24686 2.79571 5.13309 2.59329C5.01932 2.3909 4.89515 2.1653 4.76015 1.91676C4.62526 1.66832 4.5188 1.47649 4.44059 1.34157C4.19216 0.844516 4.00399 0.574515 3.87611 0.532052C3.82638 0.510746 3.75175 0.5 3.65242 0.5C3.46056 0.5 3.21026 0.535448 2.90134 0.606567C2.59231 0.677575 2.34914 0.752053 2.17156 0.830299C1.81645 0.979367 1.44007 1.41258 1.04231 2.12978C0.680106 2.79724 0.499023 3.45788 0.499023 4.1112C0.499023 4.30281 0.511449 4.48923 0.5363 4.6705C0.56115 4.85158 0.605553 5.05579 0.669546 5.28311C0.733427 5.51035 0.784956 5.67915 0.823912 5.78908C0.862904 5.89908 0.935703 6.09613 1.04227 6.38031C1.14869 6.66442 1.21268 6.83834 1.23399 6.90225C1.48253 7.5983 1.77727 8.21968 2.11813 8.76659C2.67895 9.67562 3.44429 10.6151 4.41369 11.5845C5.38313 12.5539 6.32239 13.3192 7.23149 13.8803C7.77832 14.2211 8.39992 14.5158 9.09586 14.7646C9.15981 14.7857 9.33373 14.8496 9.61772 14.9564C9.90183 15.0629 10.099 15.1357 10.209 15.1747C10.319 15.2138 10.4878 15.2654 10.7149 15.3294C10.9424 15.3934 11.1465 15.4378 11.3275 15.4628C11.5087 15.4873 11.6952 15.5 11.8868 15.5C12.5401 15.5 13.2008 15.3188 13.8684 14.9566C14.5855 14.559 15.0186 14.1826 15.1677 13.8272C15.2462 13.6498 15.3204 13.4066 15.3915 13.0975C15.4627 12.7886 15.4981 12.5384 15.4981 12.3466C15.4983 12.2468 15.4876 12.1724 15.4662 12.1222Z" fill="currentcolor"/>
  </g>
  <defs>
    <clipPath id="clip0_3019_33320">
      <rect width="16" height="16" fill="white" transform="translate(-0.000976562)"/>
    </clipPath>
  </defs>
</svg>