<svg width="16" height="16" viewBox="0 0 16 16" fill="none" xmlns="http://www.w3.org/2000/svg">
<g id="Frame" clip-path="url(#clip0_1427_24386)">
<g id="Group">
<path id="Vector" d="M15.965 12.3971C15.9198 12.2607 15.6318 12.0598 15.1014 11.7949C14.9578 11.7114 14.753 11.5979 14.4881 11.454C14.223 11.31 13.9823 11.1774 13.7665 11.0561C13.5503 10.9349 13.3478 10.8175 13.1585 10.7041C13.1283 10.6813 13.0336 10.6151 12.8745 10.505C12.7152 10.3953 12.581 10.3138 12.4709 10.2607C12.3611 10.2079 12.2531 10.1813 12.147 10.1813C11.9955 10.1813 11.8063 10.2893 11.5791 10.505C11.3519 10.7211 11.1435 10.9558 10.9542 11.2098C10.7649 11.4637 10.5641 11.6983 10.3522 11.9142C10.14 12.1302 9.96562 12.2382 9.82942 12.2382C9.76104 12.2382 9.67579 12.2191 9.57362 12.1815C9.47149 12.1436 9.3938 12.1112 9.34047 12.085C9.28761 12.0583 9.1969 12.0055 9.06803 11.9257C8.93891 11.8461 8.86711 11.8025 8.85198 11.7949C7.81417 11.219 6.9241 10.5599 6.1816 9.81776C5.43935 9.07515 4.78016 8.18516 4.20444 7.14722C4.19688 7.13206 4.15321 7.06006 4.07373 6.93134C3.99413 6.8025 3.94107 6.71172 3.91457 6.65854C3.88806 6.60557 3.85586 6.52787 3.81805 6.42562C3.78024 6.32337 3.76125 6.2382 3.76125 6.16994C3.76125 6.03366 3.86923 5.85933 4.08516 5.64719C4.30104 5.43517 4.53594 5.23433 4.78964 5.04508C5.04353 4.85583 5.2782 4.64743 5.49416 4.42024C5.71004 4.19294 5.81798 4.00364 5.81798 3.85216C5.81798 3.74617 5.79147 3.63811 5.7385 3.5283C5.68548 3.41825 5.60405 3.28396 5.49416 3.12479C5.38423 2.96571 5.31796 2.8711 5.29519 2.84065C5.18168 2.6514 5.06438 2.44877 4.94303 2.23285C4.82168 2.01697 4.68922 1.77633 4.54522 1.51121C4.40134 1.24622 4.28778 1.0416 4.20436 0.897676C3.93936 0.367484 3.73865 0.079483 3.60225 0.0341892C3.54919 0.0114627 3.46959 0 3.36364 0C3.15898 0 2.89199 0.0378111 2.56248 0.113672C2.23285 0.189414 1.97346 0.268857 1.78405 0.35232C1.40526 0.511326 1.00379 0.973418 0.579505 1.73844C0.193155 2.4504 0 3.15508 0 3.85196C0 4.05634 0.0132538 4.25519 0.0397614 4.44854C0.066269 4.6417 0.113632 4.85953 0.181891 5.102C0.250031 5.34439 0.304997 5.52445 0.346549 5.6417C0.388141 5.75903 0.465793 5.96922 0.579466 6.27235C0.692979 6.5754 0.761238 6.76091 0.783964 6.82909C1.04908 7.57154 1.36347 8.23435 1.72705 8.81772C2.32527 9.78735 3.14163 10.7894 4.17566 11.8235C5.20974 12.8576 6.21161 13.6739 7.18133 14.2724C7.76462 14.6359 8.42766 14.9502 9.17 15.2156C9.23822 15.2382 9.42373 15.3063 9.72666 15.4202C10.0297 15.5338 10.24 15.6114 10.3573 15.6531C10.4747 15.6948 10.6548 15.7498 10.897 15.8181C11.1397 15.8863 11.3573 15.9337 11.5505 15.9604C11.7437 15.9865 11.9426 16 12.147 16C12.8439 16 13.5486 15.8068 14.2607 15.4205C15.0256 14.9963 15.4876 14.5948 15.6467 14.2157C15.7303 14.0265 15.8096 13.767 15.8853 13.4374C15.9613 13.1079 15.999 12.841 15.999 12.6364C15.9993 12.53 15.9879 12.4506 15.965 12.3971Z" fill="#FA8C16"/>
</g>
</g>
<defs>
<clipPath id="clip0_1427_24386">
<rect width="16" height="16" fill="white"/>
</clipPath>
</defs>
</svg>
