<svg xmlns="http://www.w3.org/2000/svg" width="14" height="14" viewBox="0 0 14 14" fill="none" id='posts-icon'>
  <g clip-path="url(#clip0_3627_40586)">
    <path fill-rule="evenodd" clip-rule="evenodd" d="M13.2218 3.88845V2.55457C13.2208 2.08353 13.0332 1.63209 12.7001 1.29901C12.367 0.965943 11.9156 0.778371 11.4446 0.777344H2.55457C2.08353 0.778371 1.63209 0.965943 1.29901 1.29901C0.965943 1.63209 0.778371 2.08353 0.777344 2.55457V3.88845H13.2218ZM11.0012 2.11123C11.0887 2.112 11.1741 2.13865 11.2465 2.18783C11.3189 2.23701 11.3751 2.30651 11.408 2.38759C11.441 2.46866 11.4492 2.55767 11.4317 2.64342C11.4141 2.72916 11.3716 2.80779 11.3095 2.8694C11.2473 2.93101 11.1683 2.97285 11.0824 2.98964C10.9965 3.00644 10.9076 2.99743 10.8268 2.96377C10.746 2.9301 10.677 2.87328 10.6285 2.80046C10.5799 2.72764 10.554 2.64208 10.554 2.55457C10.554 2.49602 10.5656 2.43805 10.5881 2.38401C10.6106 2.32996 10.6437 2.28092 10.6852 2.2397C10.7268 2.19848 10.7761 2.16591 10.8304 2.14386C10.8846 2.12181 10.9427 2.11072 11.0012 2.11123ZM9.22012 2.11123C9.3078 2.11123 9.39352 2.13723 9.46642 2.18595C9.53933 2.23466 9.59615 2.3039 9.62971 2.38491C9.66326 2.46592 9.67204 2.55506 9.65494 2.64106C9.63783 2.72705 9.59561 2.80605 9.53361 2.86805C9.4716 2.93005 9.39261 2.97227 9.30661 2.98938C9.22061 3.00649 9.13147 2.99771 9.05047 2.96415C8.96946 2.9306 8.90022 2.87377 8.8515 2.80087C8.80279 2.72796 8.77679 2.64225 8.77679 2.55457C8.77679 2.43699 8.8235 2.32422 8.90664 2.24108C8.98978 2.15794 9.10254 2.11123 9.22012 2.11123ZM2.9979 2.11123H4.77901C4.89659 2.11123 5.00935 2.15794 5.09249 2.24108C5.17564 2.32422 5.22234 2.43699 5.22234 2.55457C5.22234 2.67215 5.17564 2.78491 5.09249 2.86805C5.00935 2.95119 4.89659 2.9979 4.77901 2.9979H2.9979C2.88032 2.9979 2.76756 2.95119 2.68442 2.86805C2.60127 2.78491 2.55457 2.67215 2.55457 2.55457C2.55457 2.43699 2.60127 2.32422 2.68442 2.24108C2.76756 2.15794 2.88032 2.11123 2.9979 2.11123Z" fill="currentcolor"/>
    <path d="M3.44531 7H6.55642V10.5544H3.44531V7Z" fill="currentcolor"/>
    <path fill-rule="evenodd" clip-rule="evenodd" d="M13.2218 4.77954H0.777344V11.4451C0.778371 11.9161 0.965943 12.3676 1.29901 12.7006C1.63209 13.0337 2.08353 13.2213 2.55457 13.2223H11.4446C11.9156 13.2213 12.367 13.0337 12.7001 12.7006C13.0332 12.3676 13.2208 11.9161 13.2218 11.4451V4.77954ZM7.4429 11.0018C7.4429 11.1193 7.39619 11.2321 7.31305 11.3152C7.22991 11.3984 7.11715 11.4451 6.99957 11.4451H2.9979C2.88032 11.4451 2.76756 11.3984 2.68442 11.3152C2.60127 11.2321 2.55457 11.1193 2.55457 11.0018V6.55676C2.55456 6.43882 2.60115 6.32566 2.68418 6.2419C2.76721 6.15814 2.87996 6.11057 2.9979 6.10954H6.99957C7.1175 6.11057 7.23026 6.15814 7.31329 6.2419C7.39632 6.32566 7.4429 6.43882 7.4429 6.55676V11.0018ZM11.0012 11.0018H8.77679C8.66587 10.9914 8.56283 10.94 8.48781 10.8576C8.4128 10.7753 8.37122 10.6679 8.37122 10.5565C8.37122 10.4451 8.4128 10.3377 8.48781 10.2553C8.56283 10.173 8.66587 10.1216 8.77679 10.1112H11.0012C11.1121 10.1216 11.2152 10.173 11.2902 10.2553C11.3652 10.3377 11.4068 10.4451 11.4068 10.5565C11.4068 10.6679 11.3652 10.7753 11.2902 10.8576C11.2152 10.94 11.1121 10.9914 11.0012 11.0018ZM11.0012 9.22065H8.77679C8.65921 9.22065 8.54645 9.17394 8.4633 9.0908C8.38016 9.00766 8.33346 8.8949 8.33346 8.77732C8.33346 8.65974 8.38016 8.54698 8.4633 8.46384C8.54645 8.38069 8.65921 8.33399 8.77679 8.33399H11.0012C11.1188 8.33399 11.2316 8.38069 11.3147 8.46384C11.3979 8.54698 11.4446 8.65974 11.4446 8.77732C11.4446 8.8949 11.3979 9.00766 11.3147 9.0908C11.2316 9.17394 11.1188 9.22065 11.0012 9.22065ZM11.0012 7.44343H8.77679C8.65921 7.44343 8.54645 7.39672 8.4633 7.31358C8.38016 7.23044 8.33346 7.11768 8.33346 7.0001C8.33346 6.88252 8.38016 6.76975 8.4633 6.68661C8.54645 6.60347 8.65921 6.55676 8.77679 6.55676H11.0012C11.1188 6.55676 11.2316 6.60347 11.3147 6.68661C11.3979 6.76975 11.4446 6.88252 11.4446 7.0001C11.4446 7.11768 11.3979 7.23044 11.3147 7.31358C11.2316 7.39672 11.1188 7.44343 11.0012 7.44343Z" fill="currentcolor"/>
  </g>
  <defs>
    <clipPath id="clip0_3627_40586">
      <rect width="14" height="14" fill="white"/>
    </clipPath>
  </defs>
</svg>