<svg xmlns="http://www.w3.org/2000/svg" width="24" height="24" viewBox="0 0 24 24" fill="none" id='favorites-icon'>
  <path d="M21.9463 9.55294C21.7922 9.05728 21.3318 8.71653 20.6834 8.61805L15.5408 7.83697L13.2409 2.96645C12.9509 2.35223 12.4986 2 12 2C11.5014 2 11.0491 2.35227 10.7591 2.96645L8.45932 7.83693L3.31666 8.61805C2.66813 8.71653 2.20785 9.05724 2.05375 9.5529C1.89968 10.0486 2.08043 10.607 2.54966 11.085L6.27089 14.8762L5.3924 20.2296C5.27689 20.9338 5.4731 21.3549 5.65803 21.5841C5.87436 21.8523 6.18995 22 6.54667 22C6.8164 22 7.1036 21.9173 7.4002 21.7543L12 19.2267L16.5998 21.7542C16.8964 21.9173 17.1836 22 17.4534 22C17.8102 22 18.1258 21.8522 18.3421 21.5841C18.5271 21.3548 18.7233 20.9337 18.6077 20.2295L17.7291 14.8762L21.4503 11.0851C21.9195 10.607 22.1003 10.0486 21.9463 9.55294ZM20.6323 10.2079L16.6905 14.2239C16.5523 14.3645 16.4893 14.5673 16.522 14.7659L17.4527 20.4366C17.4826 20.6192 17.4674 20.7287 17.4533 20.7751C17.4179 20.775 17.3174 20.7647 17.1452 20.6701L12.2727 17.9927C12.1873 17.9458 12.0937 17.9224 12 17.9224C11.9064 17.9224 11.8127 17.9458 11.7274 17.9927L6.85488 20.6701C6.68285 20.7647 6.58234 20.775 6.54695 20.7751C6.53277 20.7287 6.51757 20.6192 6.54753 20.4366L7.47809 14.7659C7.51067 14.5672 7.44766 14.3645 7.30958 14.2238L3.36772 10.2079C3.2406 10.0784 3.19135 9.98037 3.17681 9.93423C3.21451 9.90586 3.30947 9.85682 3.48522 9.83012L8.93281 9.0027C9.12367 8.97371 9.28863 8.84841 9.37398 8.66766L11.8101 3.5084C11.8886 3.34207 11.9626 3.26282 12.0001 3.23407C12.0376 3.26282 12.1116 3.34207 12.1901 3.50844L14.6263 8.66766C14.7116 8.84841 14.8766 8.97371 15.0674 9.0027L20.5149 9.83012C20.6907 9.85678 20.7856 9.90582 20.8233 9.93423C20.8087 9.98041 20.7594 10.0784 20.6323 10.2079Z" fill="currentcolor"/>
</svg>