<svg xmlns="http://www.w3.org/2000/svg" width="85" height="85" viewBox="0 0 85 85" fill="none">
  <path d="M42.4688 0C19.0515 0 0 19.0515 0 42.4688C0 65.886 19.0515 84.9375 42.4688 84.9375C65.886 84.9375 84.9375 65.886 84.9375 42.4688C84.9375 19.0515 65.886 0 42.4688 0Z" fill="#16B86B"/>
  <path d="M21.2149 48.474L33.9791 61.2107L59.4561 35.7337C61.1144 34.0754 61.1144 31.3869 59.4561 29.7286C57.7978 28.0704 55.1093 28.0704 53.451 29.7286L33.9706 49.209L27.2135 42.4637C25.5533 40.8064 22.8638 40.8095 21.2074 42.4706C19.5521 44.1306 19.5554 46.8181 21.2149 48.474Z" fill="white"/>
</svg>