<svg width="14" height="14" viewBox="0 0 14 14" fill="none" xmlns="http://www.w3.org/2000/svg" id='team-icon'>
<g clip-path="url(#clip0_3627_40561)">
<path d="M13.1428 8.74006V7.85645H9.06937C9.06937 8.9998 8.1425 9.9267 6.99912 9.9267C5.85574 9.9267 4.92887 8.99982 4.92887 7.85645H0.855469V8.74006L2.62428 8.92736C2.73461 9.37963 2.91325 9.80515 3.14865 10.1923L2.03007 11.5759L3.27971 12.8255L4.66322 11.7069C5.05041 11.9423 5.47593 12.1209 5.9282 12.2313L6.1155 14.0001H7.88273L8.07004 12.2313C8.5223 12.1209 8.94782 11.9423 9.33501 11.7069L10.7185 12.8255L11.9682 11.5759L10.8496 10.1923C11.085 9.80515 11.2636 9.37963 11.374 8.92736L13.1428 8.74006Z" fill="currentcolor"/>
<path d="M7.0009 0C6.12593 0 5.41406 0.711867 5.41406 1.58684C5.41406 2.46181 6.12593 3.17365 7.0009 3.17365C7.87588 3.17365 8.58774 2.46181 8.58774 1.58684C8.58774 0.711867 7.87588 0 7.0009 0Z" fill="currentcolor"/>
<path d="M8.68819 3.6123H5.30921C4.53131 3.61233 3.89844 4.24518 3.89844 5.02308V7.03596H10.099V5.02308C10.099 4.24518 9.46609 3.6123 8.68819 3.6123Z" fill="currentcolor"/>
<path d="M3.63246 0.733398C2.84862 0.733398 2.21094 1.37111 2.21094 2.15492C2.21094 2.93244 2.8385 3.5658 3.61367 3.57595C3.93469 3.20046 4.37763 2.93246 4.88086 2.83416C4.99117 2.63223 5.05398 2.40079 5.05398 2.15492C5.05398 1.37108 4.41629 0.733398 3.63246 0.733398Z" fill="currentcolor"/>
<path d="M2.11927 3.96875C1.42241 3.96875 0.855469 4.53567 0.855469 5.23255V7.03573H3.07854V5.02282C3.07854 4.64179 3.17474 4.28285 3.34386 3.96875H2.11927Z" fill="currentcolor"/>
<path d="M10.3668 0.733398C9.583 0.733398 8.94531 1.37111 8.94531 2.15492C8.94531 2.40077 9.00809 2.63223 9.1184 2.83416C9.62166 2.93246 10.0646 3.20046 10.3856 3.57595C11.1608 3.56583 11.7884 2.93244 11.7884 2.15492C11.7884 1.37108 11.1507 0.733398 10.3668 0.733398Z" fill="currentcolor"/>
<path d="M11.8808 3.96875H10.6562C10.8254 4.28285 10.9216 4.64179 10.9216 5.02282V7.03571H13.1446V5.23252C13.1446 4.53567 12.5777 3.96875 11.8808 3.96875Z" fill="currentcolor"/>
</g>
<defs>
<clipPath id="clip0_3627_40561">
<rect width="14" height="14" fill="white"/>
</clipPath>
</defs>
</svg>
