<svg width="14" height="14" viewBox="0 0 14 14" fill="none" xmlns="http://www.w3.org/2000/svg">
<g id="wrapper" clip-path="url(#clip0_1096_19388)">
<g id="Icon">
<path id="Vector" d="M6.70833 7.14567C8.48025 7.14567 9.91667 5.70925 9.91667 3.93734C9.91667 2.16542 8.48025 0.729004 6.70833 0.729004C4.93642 0.729004 3.5 2.16542 3.5 3.93734C3.5 5.70925 4.93642 7.14567 6.70833 7.14567Z" fill="#2F61E6"/>
<path id="Vector_2" fill-rule="evenodd" clip-rule="evenodd" d="M7.54341 12.6944C6.93499 12.0434 6.56283 11.169 6.56283 10.2082C6.56283 9.22764 6.95074 8.33748 7.58074 7.68181C7.29666 7.66023 7.00499 7.64856 6.70866 7.64856C4.77083 7.64856 3.05524 8.13331 1.99008 8.85956C1.17749 9.41373 0.729492 10.1178 0.729492 10.8569V11.7033C0.729492 11.9658 0.833909 12.2184 1.01999 12.4045C1.20608 12.59 1.45808 12.695 1.72116 12.695L7.54341 12.6944Z" fill="#2F61E6"/>
<path id="Vector_3" fill-rule="evenodd" clip-rule="evenodd" d="M10.209 7.14563C8.51848 7.14563 7.14648 8.51763 7.14648 10.2081C7.14648 11.8986 8.51848 13.2706 10.209 13.2706C11.8995 13.2706 13.2715 11.8986 13.2715 10.2081C13.2715 8.51763 11.8995 7.14563 10.209 7.14563ZM10.6465 9.77063V9.1873C10.6465 8.9458 10.4505 8.7498 10.209 8.7498C9.96748 8.7498 9.77148 8.9458 9.77148 9.1873V9.77063H9.18815C8.94665 9.77063 8.75065 9.96663 8.75065 10.2081C8.75065 10.4496 8.94665 10.6456 9.18815 10.6456H9.77148V11.229C9.77148 11.4705 9.96748 11.6665 10.209 11.6665C10.4505 11.6665 10.6465 11.4705 10.6465 11.229V10.6456H11.2298C11.4713 10.6456 11.6673 10.4496 11.6673 10.2081C11.6673 9.96663 11.4713 9.77063 11.2298 9.77063H10.6465Z" fill="#2F61E6"/>
</g>
</g>
<defs>
<clipPath id="clip0_1096_19388">
<rect width="14" height="14" fill="white"/>
</clipPath>
</defs>
</svg>
