<svg xmlns="http://www.w3.org/2000/svg" width="18" height="20" viewBox="0 0 18 20" fill="none" id='profile-icon'>
  <path d="M8.38062 10.6397C5.67753 10.6397 3.47754 8.4397 3.47754 5.7366C3.47754 3.0335 5.67753 0.833496 8.38062 0.833496C11.0837 0.833496 13.2837 3.0335 13.2837 5.7366C13.2837 8.4397 11.0837 10.6397 8.38062 10.6397ZM8.38062 2.11257C6.38528 2.11257 4.7566 3.74125 4.7566 5.7366C4.7566 7.73195 6.38528 9.36063 8.38062 9.36063C10.376 9.36063 12.0046 7.73195 12.0046 5.7366C12.0046 3.74125 10.376 2.11257 8.38062 2.11257Z" fill="currentcolor"/>
  <path d="M11.6376 19.1666C11.3136 19.1666 11.0066 19.0472 10.7849 18.8255C10.5206 18.5612 10.4012 18.1775 10.4609 17.7767L10.6229 16.6255C10.6655 16.3271 10.8446 15.9775 11.0578 15.7558L14.0764 12.7372C15.2872 11.5263 16.3531 12.217 16.8733 12.7372C17.3167 13.1806 17.5469 13.6581 17.5469 14.1356C17.5469 14.6217 17.3252 15.0736 16.8733 15.5255L13.8546 18.5441C13.6414 18.7573 13.2834 18.9364 12.9849 18.979L11.8337 19.141C11.7654 19.158 11.7058 19.1666 11.6376 19.1666ZM15.4663 13.3426C15.3128 13.3426 15.1764 13.4449 14.9802 13.641L11.9617 16.6597C11.9361 16.6852 11.8934 16.7705 11.8934 16.8046L11.7399 17.8705L12.8058 17.717C12.8399 17.7085 12.9251 17.6659 12.9507 17.6403L15.9694 14.6217C16.1058 14.4852 16.2678 14.2891 16.2678 14.1356C16.2678 14.0077 16.1655 13.8286 15.9694 13.641C15.7647 13.4364 15.6113 13.3426 15.4663 13.3426Z" fill="currentcolor"/>
  <path d="M15.9874 16.1567C15.9277 16.1567 15.868 16.1482 15.8169 16.1312C14.6913 15.8157 13.7959 14.9203 13.4804 13.7947C13.3866 13.4536 13.5828 13.104 13.9239 13.0102C14.2649 12.9164 14.6145 13.1126 14.7083 13.4536C14.9045 14.1529 15.4587 14.7071 16.158 14.9033C16.499 14.9971 16.6952 15.3552 16.6014 15.6878C16.5246 15.9691 16.2688 16.1567 15.9874 16.1567Z" fill="currentcolor"/>
  <path d="M1.05604 19.167C0.706425 19.167 0.416504 18.8771 0.416504 18.5275C0.416504 14.8864 3.98937 11.9189 8.38085 11.9189C9.3103 11.9189 10.2312 12.0554 11.0925 12.3112C11.4335 12.4135 11.6211 12.7717 11.5188 13.1042C11.4165 13.4453 11.0584 13.6329 10.7258 13.5306C9.97541 13.3089 9.19092 13.1895 8.38085 13.1895C4.69712 13.1895 1.69557 15.5771 1.69557 18.5189C1.69557 18.8771 1.40565 19.167 1.05604 19.167Z" fill="currentcolor"/>
</svg>