<svg width="16" height="16" viewBox="0 0 16 16" fill="none" xmlns="http://www.w3.org/2000/svg">
<g id="Frame" clip-path="url(#clip0_3627_40519)">
<g id="Group">
<g id="Group_2">
<g id="Group_3">
<path id="Vector" d="M11.4418 3.12168C11.1053 2.86933 10.5165 2.86933 10.2641 3.28992L4.37599 10.8605L1.51603 7.32756C1.26368 6.99109 0.674863 6.90697 0.338398 7.15933C0.00193175 7.41168 -0.0821848 8.0005 0.170165 8.33697L3.70306 12.7111C3.87129 12.9634 4.12364 13.0476 4.37599 13.0476C4.62834 13.0476 4.88069 12.9634 5.04892 12.7111L11.61 4.29933C11.9465 3.96286 11.8624 3.45815 11.4418 3.12168Z" fill="#389E0D"/>
<path id="Vector_2" d="M15.6484 3.12168C15.3119 2.86933 14.7231 2.86933 14.4707 3.28992L8.58259 10.8605L8.07789 10.1876L6.98438 11.5334L7.90966 12.7111C8.07789 12.8793 8.33024 13.0476 8.58259 13.0476C8.83494 13.0476 9.08729 12.9634 9.25552 12.7111L15.8166 4.29933C16.1531 3.96286 16.069 3.37404 15.6484 3.12168Z" fill="#389E0D"/>
<path id="Vector_3" d="M4.79778 8.92624L5.89129 7.58036L5.72306 7.41212C5.47071 6.99154 4.88189 6.90742 4.54543 7.15977C4.20896 7.41212 4.12485 8.00095 4.3772 8.33742L4.79778 8.92624Z" fill="#389E0D"/>
</g>
</g>
</g>
</g>
<defs>
<clipPath id="clip0_3627_40519">
<rect width="16" height="16" fill="white"/>
</clipPath>
</defs>
</svg>
